/* XPM */
static char *e0b6567485c94628b94d413e178858f1eyp3pesi52IecwFe[] = {
/* columns rows colors chars-per-pixel */
"64 64 123 2 ",
"   c #422411",
".  c #472B14",
"X  c #492D17",
"o  c #492E1B",
"O  c #46311D",
"+  c #4C321D",
"@  c #4F381F",
"#  c #50361E",
"$  c #51381F",
"%  c #4E3521",
"&  c #4E3923",
"*  c #513621",
"=  c #533B24",
"-  c #593F25",
";  c #543E29",
":  c #593F29",
">  c #564126",
",  c #594226",
"<  c #564229",
"1  c #5C442A",
"2  c #5E492D",
"3  c #564533",
"4  c #5F4630",
"5  c #5C4A35",
"6  c #57473A",
"7  c #5D4D3A",
"8  c #5F503D",
"9  c #60472C",
"0  c #624B2E",
"q  c #684E2F",
"w  c #67502F",
"e  c #68502F",
"r  c #604731",
"t  c #634C31",
"y  c #694E31",
"u  c #614F3D",
"i  c #665133",
"p  c #6B5435",
"a  c #6F5836",
"s  c #64523D",
"d  c #6C5539",
"f  c #6E593B",
"g  c #715636",
"h  c #725937",
"j  c #705739",
"k  c #745C3C",
"l  c #795E3E",
"z  c #7A613F",
"x  c #5D5041",
"c  c #635343",
"v  c #665946",
"b  c #695946",
"n  c #645549",
"m  c #6C5D4B",
"M  c #755E41",
"N  c #795F41",
"B  c #705F4A",
"V  c #6D5F50",
"C  c #6C604E",
"Z  c #766143",
"A  c #7C6442",
"S  c #7F6844",
"D  c #7D6649",
"F  c #7F694B",
"G  c #6E6252",
"H  c #736554",
"J  c #766856",
"K  c #796A56",
"L  c #776758",
"P  c #75695B",
"I  c #7A6A5A",
"U  c #7D705C",
"Y  c #776B61",
"T  c #7B6E61",
"R  c #7D7365",
"E  c #816644",
"W  c #836946",
"Q  c #816748",
"!  c #856D49",
"~  c #896E4B",
"^  c #87704B",
"/  c #8B724D",
"(  c #876F50",
")  c #8D7651",
"_  c #8D7552",
"`  c #8D7652",
"'  c #8E7752",
"]  c #8F7852",
"[  c #8F7854",
"{  c #8F7955",
"}  c #917753",
"|  c #927A54",
" . c #927A55",
".. c #927C57",
"X. c #937B59",
"o. c #937D58",
"O. c #977F5B",
"+. c #837765",
"@. c #827566",
"#. c #82766A",
"$. c #847969",
"%. c #847B6F",
"&. c #887D6B",
"*. c #897D6D",
"=. c #8A7F73",
"-. c #96805B",
";. c #96815D",
":. c #98835F",
">. c #988361",
",. c #998561",
"<. c #9A8764",
"1. c #9A8965",
"2. c #9C8B67",
"3. c #9D8B68",
"4. c #8D8576",
"5. c #8D8279",
"6. c #908578",
"7. c #91897B",
"8. c #93897D",
"9. c #938C7E",
"0. c #958E83",
"q. c #979086",
"w. c #999186",
/* pixels */
"7 v C G G G C 7 5 y p p d d d d d f d f f f f f f f f f M M M Z Z Z Z Z Z Z Z Z Z Z Z M f f d d d d d d d p p y s m J H H H G c ",
"5 U 7.0.q.w.7.n Z  .O.-.-.-.-.;.;.;.;.:.:.>.>.,.,.,.1.1.1.1.3.3.3.1.3.3.3.3.3.3.3.2.1.1.1.<.,.,.,.,.,.,.,.,.:.' s R w.0.0.9.4.m ",
"5 H +.$.*.R G Z ! / ' ]  . . . . . . .......o.o.o.O.O.O.O.O.O.O.O.X.o.o. . . . . .[ [ [  . .[ [  . .[ [ [ [ ' / A B P %.&.$.+.v ",
"7 m K K m s d W ~ ! ! ^ / / / ' ' ' ' ' ' ' ' ' ' ' ' ' ' ' ' ' ' / / / / ^ ^ ^ ^ ~ ~ ~ ! ! ! ! ! ! ! ! ! ! ! W W k t b J U K c ",
"7 m K H 7 i S ! ^ / ~ / / / / ' ' ' ' ' ' ' ' ] ] ] ' ' ' ' ' ' ' ' ' ' ' ' ] ] ' / / / / ~ ! ! ! ! ! ! ! ! ! ! ! E g , m U K v ",
"8 m m 3 D Z 9 W / / / / / / ' ' ' ' ' ' ' ] ] ] ] ] ] ] ] ] ] ] ] ] ] ] ] ] ] ] ] ' ' ' ' ' / ~ ~ ~ ! ! ! ! ! ! ! k 1 Z p s K b ",
"5 5 7 p ! ^ Z d A ' ' ' } } } }  . . . . ..... . . . ............. ... .} ] ' ' ' ' ' ' ' ' / / / ^ ^ / / / / ! k p Z ! z i s 5 ",
"= ; i W ! / ' p d Q ! ! ~ ~ ! ^ ^ ^ ~ ^ / / / / / / / / / / / / / / / ~ ! Q Q W W W W W W E E E E E E E E E W Z y Z / ! ! A 1 = ",
"& d W ! ! ^ / ^ k 1 , 1 1 1 1 1 1 1 1 1 1 1 1 9 2 9 9 t t t t t 9 9 9 9 9 2 9 1 1 1 1 1 1 1 1 1 1 1 1 1 1 1 , i Q / ^ ! ^ ! A 2 ",
"= k ~ ! ! ! !  .N + + * $ $ $ +   X + + + # $ * * $ + * , , , , - - - , , # # = = * * $ # $ # . . $ * * $ $ + 2 / ' W ! ! ^ ^ t ",
"= k ! ! ! ! ^  .Z * > 2 0 0 0 9 1 * @ = = = , , 1 , + , 0 9 0 0 0 0 0 0 0 * * 1 1 1 , , , = & ; 1 2 2 1 1 , = t ~ / ! ~ ! ^ ! 9 ",
"= k ! ! ! ! ^  .N * , i d d a k N 2 + = > , 1 1 1 , + 1 e w y q 0 0 0 0 0 * = 2 2 1 1 , , * % p k i 0 0 0 1 = t ! / ! ! ! ^ W 9 ",
"; k ! ! ! ! ^ } N * 1 p d k k k A Z t + , 0 9 0 0 0 * 0 h h g g g g g d p , , 0 i 0 q y * * p Z N k i q 0 1 = t ~ / ! ^ ^ ^ ! t ",
"; k W ! W W ! } N * 2 d d k k k k E Z t , 9 d i i 0 * i z l l l l l k k k 1 , p p d p 9 2 d A Z k k d q 0 2 = t ^ / ! ^ ^ ^ ! t ",
"< k W W W W ! } N # > y d d k k k l A Z t , i i i 0 ; p z l l l l l k k k 2 1 p g p 0 ; M Q A l l k d q 0 1 * t ^ / ! ^ ^ ^ ! t ",
"< k W W W W W ] N # + 1 y d k k k k A W A p ; y d 0 , d z l z z z l l k k 9 0 p g 9 , N Q W A z Z k d q 9 * + t ^ / ! ^ ^ ^ ! t ",
"< k W W W E W ' N + X & 1 i k k k l l A ! D y 1 0 i 1 d z l z z z l l l k 0 0 d 9 9 k ~ ! A A A l k d t ; + + t ^ / ! ^ ^ ^ ! t ",
"< a W W W E W ' k * * % % 1 p k k l z z A ~ ~ y 1 0 2 d z z l l z l l l k 0 9 0 : Z ' ! E E A z k d p 1 + + & t ^ / ! ^ ^ ^ ! t ",
"< a A E W E W / k * * = & % , p k l A A A W / ! d * 1 d z z z z z z l l h 0 ; : D ' / W E E E k g i , % % & + t ^ / ! ! ^ ^ ! t ",
"; a A E E A W / k * ; , = % * , p k Z A A A W ' Q p ; p z l z z z z l k h , 1 N [ ' ! W W E l k p 2 % + & = & t ^ / ! ! ^ ^ W t ",
"; d S E E A W / k * , 1 < = % % 1 p k Z A A A E ' ' y i k l l l z z l k y 2 A O./ ~ ~ ! W A j p 4 + + * > < = t ^ / ! ^ ! ^ W t ",
"; d A E E A W / k * 2 t 2 < * % * 2 d k l Z A E ! / ' k 9 k l l l l k i = Q  .' / ~ ! ! E z p 1 % O + > 0 0 , t ^ / W ! ! ^ W t ",
"; d A E E A S / k * 2 y t 2 > & * = 2 d k Z A E E ! [ ~ k 9 h l l l q y A }  .~ ~ ~ ! E A g 1 % O + > 0 i i 1 t ^ / W ! ! ~ W t ",
"; d A E E A A / k * 2 y i i < = , ; = 9 j l z E W W Q  .' r y g k p t N :.} ~ ~ ~ ~ ! A k 9 % & & & 0 d i y 1 t ^ / W ! ! ~ W 0 ",
"= d A E E A A / k * 2 y i i 1 ; 2 0 , = 2 k z A A W W ! / [ y 1 g < Q O.' / ~ ~ ~ ! A k 1 + = < & = t d i t 1 t ~ / W ! ! ! W 0 ",
"= d A A A A A / k * 2 y i p 1 1 0 i 9 , ; 2 k z A S W W ! ' Q p 9 Q [ } ~ / / ~ W A k 9 * & > 2 2 < t d i t 1 t ~ / E ! ! ! W 9 ",
"; a A A A A A / k = 2 i p p 2 2 p d i 0 - ; 9 h Z A A A E W ! Z M O. .~ / / ~ W A k 0 % & < 2 i t 1 y d i y 1 t ~ / W W ! ! ! t ",
"> d A A A A A / k = 2 i p d 2 2 d k d y y , * 9 k l Z Z A A p F :./ / / ~ ~ W l k 9 % = > 2 d k y < y d p y 1 t ~ / W W ! ! W t ",
"= d A A A A A / k = 2 i d d 2 9 a k k d i 9 1 = t k z Z k t ' O.' / / ~ ~ ! A k 1 * = = t d k k i 1 t d p i 1 t ! / W W ! ! W 9 ",
"= d A A A z A / k = 2 i p d 2 t k k k k d i 0 , , y k d d D o.X.~ ~ ~ ~ ! W k 9 * & < t d k k k i 1 t d d i 1 t ~ / W ! ! ! E 9 ",
"= d A A A A A / k = 2 i d d 2 t k k k k k d y y , = 9 t Z :./ ~ ~ ~ ~ ! A Z y + = > 2 k k k k k p 2 y d i i 1 t ~ / W W ! W E 9 ",
"= d A A A A A / k = 2 i d d 2 t k k k k k k d i 0 1 ; F O./ ~ ~ ~ ~ ! E k 2 * = = t k k k k k k i 2 i d i i 1 t ~ / E W W W E 9 ",
"= d A A A Z A / k ; 2 i d d 2 t k k k k k k k p 2 2 D ' } ~ ~ ! W W E k 9 , * + y k k k k k k k i 2 i d p i 1 t ~ / E W W W E 9 ",
"= d A A A Z A / k ; 2 i d d 2 t k k k k k k a y 9 f } / ~ ~ ! W A A k t * i i 9 p k k k k k k k i 2 i d p i 1 t ~ / E E W W A 9 ",
"* p Z A Z z A / k : 2 i d d 2 t k z k k k k i ; k ' ~ ~ ~ ! E A A k 9 * 0 l ! ~ 1 2 k k k k k k i 2 y d p i , t ~ / E E W W E 9 ",
"= p Z z z z A / k : 2 p d i 1 t k k k k k y , N ~ / ~ ! W E A Z k 1 - 0 Z E W ! ' k , d k k a d y 1 i d p i , t ! ! A E E W A 2 ",
"* p Z z z z A / k : 2 p d i 1 2 k k k k y t k ~ / ! ! W E A z k t : 9 k A W E W  .~ f 9 p a a d t 1 t d p y 1 t ! ! Z A E E A 2 ",
"= p Z z z z A / k : 2 i d d 2 1 d k k i , k ' / ! ! A A A l k t * 9 d k k A E E W ' ' t 1 p d d 0 < t d i y 1 t ! ~ z A A A A 9 ",
"= d Z z z z z ^ k : 2 i d d 1 1 d a 9 : N ~ ~ ! W A A Z N k 9 - , = 9 d k k Z A W ! / [ f * w d 2 > t d i y 1 t ! ~ z A A E A 9 ",
"= d A z z l z ^ k : 2 i d d , 1 i 2 2 f Q ~ W E A A A Z k 9 - , 1 ; - 9 d k k Z A E ! ' ~ f , 0 0 > t d p y 1 t ! ~ z A A A A 2 ",
"= p z z z l z ~ k : 2 i d d , ; 2 , p ~ ~ Q E A Z A Z k y * , 2 0 2 ; = 9 d k k Z A W W } ' p 2 1 > y d p y 1 t ! ! z A A A A 2 ",
"= i k l l l l ~ k : 2 i d d 1 X = f Q Q Q A Z Z z l k t ; 1 1 i k 9 1 , = 2 d k k Z E W ! ' [ d X * y d i y , t ! ! z A A A z 2 ",
"= i k k k k l ! k : 5 i d d ; * d A ! A A Z Z Z k k y , - 2 p k z k y 1 , ; 2 d k k Z A A Q ' ( d % 9 a i y 1 t ! ! z A A A z 2 ",
"= i k k k k l ! k : 5 d p t , p D Q A A Z N N k d y 1 1 9 i k z Z Z a 0 2 = = 2 d k k z Z A E ' ~ p 2 t i i , 5 ! ! z A A A z 2 ",
"= y k k k k k ! k ; 2 d 9 ; d A A A A N N k k d 9 = < 1 i k Z z Z A z k 9 1 ; = 2 d k k N N Z E / ^ p ; y y 1 t ! ! l Z A A z 2 ",
"= y k k k k k ! a ; t 1 , d Z A z N N k k k d 2 ; ; 1 i k A A A A Z Z z k 2 > , = 2 d k k k Z Z E ~ A y ; 2 2 t Q ! l Z Z z l 2 ",
"& y k k k k k ! k = ; 1 p A Z k k k k k k p 2 = > 1 1 d Z z Z A A z z z l 9 > 2 ; = 2 d k k Z Z Z A Q Z t < * t Q ! k l z z l 2 ",
"& y k k k k k ! k % % d A k k k k k k d p 2 = , 2 2 1 d z z Z Z z z z z k 2 > 0 2 ; = 2 p k l z l z Z W A t o 2 Q W k l z z k 1 ",
"& y k h k k k ! d : p N k j d j d d d i , = , 2 i p 1 d k l z Z A Z z l k 2 1 y 0 1 ; = 2 p k k l k k A A N t 2 Q W g k z l k 1 ",
"= y k h k k k ! d : N k p p d d p p y 1 = ; 2 y a a 1 p k k z z l l k k k , 1 d i 0 2 ; = 1 i k k k k k Z A d , W A p k k k k 1 ",
"= t j d g d k ! a = t p p p p p i y , * , 2 t a k d < y k k k k k k k k k : , d a i 9 2 ; * 1 i k k k k k k y 1 W S p k k k k 1 ",
"= t g d d p h W a = 9 p p p i i y , = , 1 y d k k d = y k k k k k k k k k ; - d d d i 9 1 ; * 1 p k k k k k 9 , W A p h k k a 1 ",
"* 0 g d d d g W d = t p p p p y , = > 9 i d k k k d = 0 k k k k k k k k h - , p d d d i 0 1 ; = 1 i k k k k 2 , W A p h k k d , ",
"& 9 g d p p g ! d % , 9 2 9 9 ; o * , , y p p p p 9 % 1 y y y y y y y y y * * 0 9 9 9 0 1 , > + + < t p p y ; : W A p h h k d , ",
"& 9 p i i i d E d % + * + + * + o + + + * * * * * * + # * * * * * * * * * + + # * * * * * # # + o % * * = * o 1 A z i p d p i , ",
"= < 9 i i p p p d d d d d d d d d d d d d p p d d d d d d d d d d f k k k k k k k k k k k N N N N N M N N N N k p i p i p q - = ",
"; x v 9 y y 0 2 k ! ! ! ! ! ! ! ! ! ! ! ! ! ! ! ! ! ! ! ! ! ! ! ~ / / / / / / / / ' ' ' ' ' ' ' ' ' ' ' ' ' ' ! t , 0 i 0 y n 3 ",
"< R %.3 9 9 , A A k k z z Z Z Z Z Z Z Z Z Z Z Z Z Z Z Z Z Z Z Z Z Z Z Z Z Z Z Z Z Z Z Z Z z Z Z Z Z Z Z Z A z A Q d * 0 , G 8.m ",
"< P *.#.c 2 k Z l k k l l l l l l l l l l l l l l l l l l l l l l l l l l l l l l l l l l l l l l l l l l l k z A A g , Y 5.*.v ",
"3 b +.6.P b k g k k k l l l l l l l l l z z z z z z z z l z l z z z z z z z z z z z z z z z z z z z z z Z z z l l z Z m =.8.K u ",
"< m I L =.R 3 i k k k k k k k l l l k l l l z l l l l l z l z l l l z z z z z z z z z z z z z z z z l l l l l z l t c =.+.K L c ",
"< b H H P #.%.c 0 p d d d d d d d d d d d d d g g g d d d d d g d d d d g g d d d g d d g d d g d d d d d d g p t G +.T L H H 7 ",
"; 7 c c 7 V T 6 * 1 1 1 1 1 1 1 1 1 1 1 1 1 1 1 1 1 1 1 1 2 2 2 1 1 1 1 1 1 1 1 1 1 1 1 1 1 1 1 1 1 1 1 1 1 1 , = n P c c v c 3 ",
"% % + + + X . X o X X X X X X X X o o X X X X o o o + + + % % % % + + + + + + o o o o X X X X X X X X X X X X + % + X % % % & ; "
};
