/* XPM */
static char *f092a1c7311e4abaf384cb15ffe7d7deL9QZgTDYqFpcRpd5[] = {
/* columns rows colors chars-per-pixel */
"64 64 240 2 ",
"   c #3E240D",
".  c #472D16",
"X  c #472D18",
"o  c #492F19",
"O  c #49331A",
"+  c #4B321B",
"@  c #51361D",
"#  c #513A1E",
"$  c #4D3621",
"%  c #4D3C24",
"&  c #4C3B28",
"*  c #543C24",
"=  c #563C25",
"-  c #543E2A",
";  c #534D1D",
":  c #665B0F",
">  c #645B1C",
",  c #7D720F",
"<  c #6A611B",
"1  c #776B19",
"2  c #746A1B",
"3  c #7C7318",
"4  c #4D4326",
"5  c #544225",
"6  c #5A4226",
"7  c #544A25",
"8  c #5A4E25",
"9  c #54432B",
"0  c #5C442A",
"q  c #564B2C",
"w  c #5B4C2C",
"e  c #5B5224",
"r  c #5D532B",
"t  c #59552A",
"y  c #4D4435",
"u  c #5C4B33",
"i  c #594934",
"p  c #5C5232",
"a  c #5C5035",
"s  c #60472C",
"d  c #624A2D",
"f  c #645B25",
"g  c #62552D",
"h  c #645A2C",
"j  c #685A29",
"k  c #644D32",
"l  c #674D34",
"z  c #624D3B",
"x  c #635233",
"c  c #6C5436",
"v  c #635A33",
"b  c #6A5C33",
"n  c #64533B",
"m  c #6C553A",
"M  c #665B3A",
"N  c #6D5A3B",
"B  c #705D34",
"V  c #705738",
"C  c #755C3C",
"Z  c #785E3E",
"A  c #6D6424",
"S  c #6C6727",
"D  c #6B632B",
"F  c #746A28",
"G  c #736A2C",
"H  c #7B7323",
"J  c #7C732C",
"K  c #666234",
"L  c #6B6333",
"P  c #6C613C",
"I  c #726B33",
"U  c #746B37",
"Y  c #73623D",
"T  c #79613F",
"R  c #7C7534",
"E  c #5C4E43",
"W  c #635442",
"Q  c #6A5743",
"!  c #655943",
"~  c #6A5A44",
"^  c #6B5D4B",
"/  c #745D41",
"(  c #785F41",
")  c #705F4B",
"_  c #6A5E52",
"`  c #6E6147",
"'  c #756242",
"]  c #7B6342",
"[  c #7B6748",
"{  c #6C6454",
"}  c #736554",
"|  c #756A58",
" . c #7D6D5C",
".. c #7A6E62",
"X. c #7F7563",
"o. c #87780D",
"O. c #867913",
"+. c #867B15",
"@. c #82751B",
"#. c #857A1C",
"$. c #8C7E1C",
"%. c #867A26",
"&. c #82792B",
"*. c #857B35",
"=. c #816644",
"-. c #836A46",
";. c #866C48",
":. c #856D4A",
">. c #896E4B",
",. c #86744C",
"<. c #8A714D",
"1. c #866F50",
"2. c #8D7552",
"3. c #8F7854",
"4. c #837259",
"5. c #917752",
"6. c #917954",
"7. c #917A56",
"8. c #907758",
"9. c #947D5B",
"0. c #847869",
"q. c #8A7E70",
"w. c #98890C",
"e. c #8F8113",
"r. c #928413",
"t. c #9B8C13",
"y. c #92841C",
"u. c #998B18",
"i. c #9D911B",
"p. c #A9970B",
"a. c #AC9B13",
"s. c #A79719",
"d. c #B29D10",
"f. c #BAA60B",
"g. c #AFA015",
"h. c #B4A312",
"j. c #BAA718",
"k. c #8C8228",
"l. c #928525",
"z. c #9D8D21",
"x. c #91842B",
"c. c #978A28",
"v. c #9D912A",
"b. c #8C8335",
"n. c #958A38",
"m. c #9C9137",
"M. c #A39323",
"N. c #AB9C26",
"B. c #B09D25",
"V. c #A89937",
"C. c #B09E37",
"Z. c #B8A626",
"A. c #ACA139",
"S. c #B8A936",
"D. c #C4AD0E",
"F. c #C7B30C",
"G. c #D3BD0D",
"H. c #C2AE13",
"J. c #C9B517",
"K. c #CAB51C",
"L. c #D2BC16",
"P. c #C4AF26",
"I. c #C9B527",
"U. c #D2BB2B",
"Y. c #C9B837",
"T. c #D3BD34",
"R. c #D8C219",
"E. c #E4CC1E",
"W. c #D8C428",
"Q. c #DBC42B",
"!. c #D8C439",
"~. c #E2CC29",
"^. c #E3CC38",
"/. c #EED334",
"(. c #E9D338",
"). c #EBD33A",
"_. c #F6E13F",
"`. c #918641",
"'. c #97825F",
"]. c #B3A447",
"[. c #978360",
"{. c #9A8563",
"}. c #9D8966",
"|. c #9E8A69",
" X c #8C8373",
".X c #968679",
"XX c #948A7B",
"oX c #98917F",
"OX c #CABA45",
"+X c #CFC045",
"@X c #D9C548",
"#X c #DBCA54",
"$X c #E3CD46",
"%X c #EBD545",
"&X c #E8D446",
"*X c #EDD94B",
"=X c #F3DB44",
"-X c #F2DB4D",
";X c #EAD758",
":X c #F1DD56",
">X c #F5E34C",
",X c #F7E35A",
"<X c #DECD63",
"1X c #E7D768",
"2X c #EDDA6E",
"3X c #F3DF72",
"4X c #EFE169",
"5X c #F4E264",
"6X c #FAE669",
"7X c #FCE56B",
"8X c #FCE673",
"9X c #F8E678",
"0X c #FCEA7C",
"qX c #9C9382",
"wX c #E9DD87",
"eX c #EDE38F",
"rX c #F6E787",
"tX c #FCEB84",
"yX c #FCEB8A",
"uX c #FCEC92",
"iX c #F5E998",
"pX c #FDEE9B",
"aX c #FCF299",
"sX c #FCEEA2",
"dX c #FDF1A4",
"fX c #F7F2AA",
"gX c #FCF3AB",
"hX c #FDF4B3",
"jX c #FDF6BC",
"kX c #FDF8BE",
"lX c #FDF6C3",
"zX c #FDF9C4",
"xX c #FDF7CA",
"cX c #FDF9CC",
"vX c #FDFAD4",
"bX c #FEFBDB",
"nX c #FEFBE4",
"mX c #FEFCEC",
"MX c #FEFDF3",
"NX c #FFFEFA",
/* pixels */
"z ~ ^ { { { _ E 0 c m c c c c c m m m N N N N N N N N C C Y ' ' ' ' ' ' ' ' ' ' ' ' ' Y N b c c m m m m c m c l n ^ | { | } ^ ~ ",
"i  .XXoXXXqX.XQ [ 2.9.9.9.9.9.9.'.'.'.[.[.[.[.[.{.{.{.}.|.|.|.|.|.}.}.|.|.}.}.}.}.}.}.}.{.[.[.[.}.{.{.{.[.{.'.9.n 0.XXXXXXXX.X! ",
"u | X.q. X .} / -.2.6.6.9.6.6.9.6.6.6.6.6.6.6.6.9.9.9.9.9.9.9.9.9.9.9.9.9.6.6.6.6.3.3.3.3.6.9.9.6.3.6.6.3.3.<.<.[ /  .0.q.q.X.^ ",
"u { } { ^ n m :.:.>.>.:.:.>.>.<.5.5.5.5.5.2.1.2.6.6.2.2.2.2.1.[ ' ' [ <.<.<.:.:.<.:.:.:.:.:.:.:.:.:.:.:.:.:.:.-.-.' k W |  .| W ",
"n W 4.} u m ] >.<.<.>.:.<.<.2.5.2.2.2.2.2.[ ` 1.<.<.[ -.[ ' M M P ` [ 5.5.5.5.5.<.<.<.<.<.>.:.-.:.-.:.:.-.:.>.-.>.] c 0 ~ 4.| ! ",
"a ) Q 0 ' ' 6 -.>.<.<.<.<.2.2.5.6.6.6.3.:.` ` 1.>.[ ' ' M x v M P ' -.5.5.5.5.6.5.5.2.<.>.-.:.:.<.>.>.>.:.>.<.>.-.C 6 / N k | ~ ",
"i u n c [ 2.] c -.2.6.5.2.5.2.2.6.6.6.1.' v ' ` n a M x q K U P ' <.6.6.2.2.<.2.-.[ ' N N ~ ' ' -.>.>.>.>.<.<.-.C c C <.T c n u ",
"- * l -.:.2.2.m V ] >.:.:.:.:.>.<.<.:.' P v w q p p & 4 r R R K [ >.-.' N b h h L I I v v n ~ N C T =.=.-.-.-.T c ] 2.:.T ] 0 * ",
"* N -.:.>.>.:.<./ 0 6 0 0 6 s 0 0 0 9 u L L e e r q 4 t G x.%.r 0 9 7 f F %.l.l.x.k.R K p 9 9 9 9 6 6 0 0 0 6 m =.<.>.<.:.:.-.0 ",
"* C :.-.:.:.<.5.C + + # * # + o   + % 8 G R D f e 4 e G b.v.%.; 7 D %.z.Z.I.I.j.i.H f t q 4 % o + % % # + + + 0 <.2.:.:.-.>.>.d ",
"* C :.:.-.:.<.6.[ @ * d d d s s 0 5 t D J *.G D e ; h *.V.S.%.7 S s.I.$X*XW.K.s.3 > e t t q 4 % 4 i i 0 0 0 * l <.<.-.:.:.<.>.s ",
"* C >.>.:.:.<.6.] + 0 c c m C C N D J &.k.x.F A D e G c.S.P.&.S M.W.5X6X$XK.t., 2 2 2 S f g 8 p u u i i u 0 * k -.<.-.>.<.<.-.6 ",
"* C :.:.:.:.:.5.( + 0 c c C C c j k.l.l.z.z.#.F A f @.s.I.Y.3 i.!.9XyX3XY.w.O.o.w.t.u.+.H S G L v p q u u 0 * l >.<.:.>.:.<.>.d ",
"6 C -.-.:.:.:.5.( * k m V N m g &.M.N.s.a.a.t.@.3 2 r.Z.!.Y.e.I.9XsXpX2Xh.w.p.j.D.j.a.e.@.2 F D g w q i u i * k >.2.:.<.:.<.>.d ",
"6 C -.-.-.-.:.5.C * 6 l c x x S i.j.j.h.j.H.h.r.+., a.@X;X@Xp.;XpXhXhX#Xp.j.W.R.F.f.p.w.+.2 > > e r r q 9 9 * k :.<.:.2.<.<.:.d ",
"6 C -.-.-.=.:.2.( @ o 6 k u e H s.H.J.D.J.R.L.p.t.o.P.1X9X;XI.yXhXjXjXY.I.&X$XW.f.p.w.t.t.t.r.O.3 J D g q % % k >.<.:.<.<.<.>.d ",
"6 C -.:.-.=.-.2.( + + & 9 7 e #.h.J.R.L.~.&X(.f.d.s.@X9XtX7X1XhXxXzXkX#X4X9X9X*XF.f.H.L.L.L.H.h.s.z.k.J D t q a :.<.:.:.:.<.:.l ",
"6 C -.-.-.=.-.<./ + $ 4 8 t D +.h.L.R.~.&X4X5XW.J.@XeXpXpXyXrXzXcXcXlXuXdXhXdX5X(.(.(.=X=X=X(.W.I.j.M.x.*.I p u :.<.:.:.:.<.:.l ",
"9 N ] =.-.=.-.<./ $ % q S S H w.f.L.~.=X-XaXaX5X~.3XkXjXhXgXhXzXcXcXlXjXlXkXgXtX7X7X8X0XtX0X7X,X&XW.I.Z.c.R r u :.<.:.:.:.<.:.l ",
"* m ] ] =.=.=.<./ % 5 f H H #.g.f.R.(.,X5XgXzXdX2XuXvXcXxXzXzXzXzXzXzXzXxXlXjXsXpXpXdXdXuX5X^.J.j.s.z.v.v.b.K u :.<.:.:.:.<.:.l ",
"* m ] ] =.] =.<.C 4 b J #.o.o.j.W.W.(.,XuXhXcXcXgXpXvXcXvXcXzXvXcXzXzXzXzXlXkXhXjXjXhXsXtX5X(.H.i.l.&.S f h K n -.<.:.:.:.<.-.l ",
"* m ] -.] ] =.<.C 5 G k.u.p.p.j.&X&X=X6XdXkXcXcXzXkXvXcXcXcXcXvXvXcXzXzXzXlXlXlXkXjXhXsXtX5X$XK.g.z.x.&.G h p a [ <.:.:.:.>.-.d ",
"- m ] ] =.] =.<.C * G z.s.h.D.W.:X0X,X7XdXzXzXcXvXvXbXcXcXvXbXvXcXvXvXzXzXzXzXzXlXkXjXgXsXuX8X-XW.Z.c.&.J I v x [ >.:.:.:.:.-.d ",
"9 m ] ] =.] ] :.Q % f z.j.K.W.(.,XdXaXtXdXzXcXcXvXcXvXzXvXvXnXbXvXbXvXcXzXzXzXzXlXlXhXdXpXpXyX7X-XU.s.&.U P v p ] :.:.:.;.:.-.d ",
"* m ] ] =.] C -.N - r #.Z.W.(.-X7XdXzXgXsXzXcXzXcXzXcXcXcXcXcXbXbXnXvXbXvXzXzXzXzXlXjXgXdXpXyXtX7X&XP.x.v u 9 u ] >.-.:.:.:.-.d ",
"* m ] ] ] / N [ M 9 p G N.!.:X7XyXdXcXzXjXlXcXzXzXcXbXbXbXbXcXvXnXmXnXbXvXvXvXcXcXcXkXjXpXtX9X9X5X;XU.M.j u 6 l :.<.-.-.:.:.-.d ",
"* m ] ] ' / P P v v U U n.Y.:X0XsXhXzXcXzXzXvXzXzXzXvXvXbXmXnXbXbXbXnXcXzXcXcXcXcXcXzXcXhXtX:X*X*X&XW.B.2 w 0 l :.<.-.-.:.:.-.d ",
"* m ] ] / / P L I *.n.n.b.V.#X9XdXkXxXcXzXvXvXvXcXvXbXnXnXmXmXnXmXnXmXbXvXvXvXcXzXzXzXzXkXdX3XT.!.$XW.j.$.g 0 l >.<.-.:.:.:.-.d ",
"* m ] ] / / N U *.m.A.S.S.S.OX2XgXcXvXvXcXzXzXvXvXvXbXnXmXmXMXMXMXMXmXmXmXmXnXvXcXvXzXcXlXgXrX;XS.Z.I.J.s.F 0 k ;.<.-.-.:.:.-.s ",
"* m ] ] ] C N [ ,.n.C.Y.$X<XwXeXkXvXbXbXvXcXcXvXvXbXbXbXnXMXNXMXMXMXmXmXmXmXnXnXvXvXlXzXzXhXrX:X!.N.M.j.g.y.e w :.<.-.:.:.:.] s ",
"* m ] ] ] / N ' [ `.m.S.#XrXgXzXvXbXbXbXbXbXbXvXbXbXbXbXnXMXNXNXNXNXMXmXMXmXbXbXvXvXzXzXzXzXuX;XT.Z.$.M.N.z.S w ;.<.-.-.:.-.[ s ",
"* m ] ] ' / N Y v U `.C.OX1XfXzXvXvXbXbXbXbXnXnXnXbXnXmXMXMXNXMXmXMXMXMXMXMXnXvXvXbXbXcXlXkXgX;XU.Z.l.2 l.c.*.g ] <.=.-.=.=.] s ",
"* m [ ] ' N N P K D R n.C.Y.1XhXvXbXbXbXbXbXbXnXnXnXmXMXMXNXNXNXMXMXmXMXmXbXvXvXvXnXbXzXjXhXhXrX^.U.B.O.< b.b.D Y >.] -.-.-.] s ",
"* m ] ] ] N N P L I *.*.c.B.Y.1XsXcXbXbXbXbXvXnXmXnXmXMXMXNXNXNXNXmXmXmXnXnXnXbXbXbXvXcXzXhXgXpX:X^.K.t., &.b.G C :.] -.-.-.] s ",
"* m ] ] ] / N Y I R &.k.c.V.Z.I.@XwXkXvXbXvXvXbXmXmXmXMXMXNXNXNXMXMXMXMXmXnXnXbXvXcXcXzXzXhXdXpX8X&XK.d.r.&.R D b -.] =.-.=.] 0 ",
"* c ] T ] ] Y ' L I &.l.M.Z.P.P.I.@XrXzXvXvXvXvXbXmXMXNXNXNXMXMXMXmXmXMXmXnXbXvXcXlXkXgXgXhXuXyX8X(.K.j.t.@.S j b ] ] ] =.=.] s ",
"* c ] T ] ] ] -.m h G x.M.B.P.!.$X;X9XgXcXbXbXcXbXmXMXNXMXMXmXMXMXmXmXMXMXmXnXzXzXhXgXuXrXuX9X7X7X&XH.Z.s.O.S r b ] ] ] ] ] ] s ",
"* m ] ] ] ( ] <./ 6 h J x.M.Z.U.^.;X3XuXkXvXbXvXbXnXMXMXMXmXmXMXmXnXmXmXmXnXbXvXzXgXdXuX8X;X$X&X,X=Xa.B.u.o.S v N ] ] ] ] ] ] 0 ",
"* m ] T ] C ] <./ * 0 r D %.M.Z.U.^.*X5X0XuXhXzXbXnXmXMXmXmXmXMXmXnXmXmXnXnXbXbXlXdXuXtX8X^.j.J.^.&Xi.y.e., < g C [ ] ] ] ] ] 0 ",
"* m ] T ] C T <.( * 0 w e > 3 l.N.I.W.(.,X0XsXlXvXbXnXnXnXnXmXmXnXbXbXbXbXbXbXcXkXuXtX0X7X(.p.s.h.U.u.> 3 2 < w N [ ] ] ] ] [ d ",
"* c T T ] ( T >.] - 0 w r S @.y.s.I.~._.,X6XyXjXbXnXnXbXcXvXnXnXvXxXcXbXbXbXcXjXjXrX6X6X6X(.h.e.+.w.@.; f D > w C ] ] ] T T ] 0 ",
"* c C C Z Z Z :.C 6 k w r D 2 O.r.a.H.L.^.*XyXhXzXvXvXxXkXzXbXbXzXlXzXbXbXvXcXhXgXyX^.-X>X/.H.O.2 2 < 7 w x 7 q Y -.] ] ] ] ] d ",
"* l C C C C Z :.C - u u r f 2 $.t.d.f.L.~.&X5XpXkXvXcXzXlXzXvXvXzXzXcXvXvXvXcXhXuXtX@XW.(.~.D.o.< < f k w d 0 k ] >.] ] ] ] ] d ",
"* l C C C C C :.( * i a p j H %.M.g.H.G.E.=XtXjXcXcXzXzXzXzXzXzXzXcXcXvXvXvXxXhXtX7X$Xj.~.E.F.o.> j r w l k * l :.>.] ] ] ] ] d ",
"* l C C C C C :.C - u k q r S %.i.h.J.R.~.=XyXfXlXzXzXzXzXlXzXzXzXzXzXvXvXcXkXpXtX,X*XZ.K.L.F.r.j C x 6 k c 6 l -.>.( T ] T ] d ",
"* l C C C C C :.V 0 i 6 7 v J l.s.a.j.H.F.J.T.@XiXkXzXlXkXhXhXdXjXlXzXcXvXcXjXrX9X,X*XZ.p.D.H.u.B [ ] l * d d l -.:.C ( ] ] / d ",
"* l C C C C C -.C - - 9 v I &.%.y.u.s.s.a.p.p.Y.iXlXzXhXpXrX0X9XhXlXzXzXcXzXhX4X:X&X&XP.w.j.j.$.B C ] ] 0 * * d =.:.C C ] T C 0 ",
"* l C C C C C -.N & 9 p K I G J H H 2 2 2 2 3 ].iXkXgXrX$X*X>X6XrXdXdXgXlXjXsX;XW.W.W.Z.y.Z.y.J b ] ] [ :.k o d ] :.C C ] T C 0 ",
"* l C V C C C -.n 4 x M v g r h g g g w 8 f G ].2XeX<XI.J.~.(.&X;XrX0XtXsXeXuX$Xf.D.J.Z.z.C.2 j C C C ] ] / l d -.-.c / ] T C 0 ",
"* l C V C C C -.l 6 m n k n c c n x u 9 * 8 D c.S.S.s.p.F.R.~.R.^.:X;X#X1X<X9XT.w.a.Z.N.y.V.j c C C C C ] [ c * -.=.c C C C C 0 ",
"* l C c V C C [ n % u k u k x w q 9 9 5 5 f J n.V.l.r.a.F.G.F.F.H.!.S.S.OXOX;XZ.#.v.C.v.#.c.g n C C C C C C d 6 =.] c C C C C 0 ",
"* k c c c m C ] M 4 9 w u p x 8 q 7 8 r h f S &.*.l.i.a.h.j.g.t.t.s.#.m.A.S.+X%.J n.V.%.O.&.0 6 c C C ( C V s 0 =.] c C C C N 6 ",
"$ d c N m c V ] n 9 9 9 w u x q 7 7 r f f > S J b.k.%.@.y.y.#.2 3 : 2 &.m.A.A.L U `.`.&.%.j 9 * 6 c C / / / s * :.] c C C C c 6 ",
"$ s C c c c C :.m * 5 9 9 9 9 q q w 7 e g D G I b g 5 j S f 8 8 8 f D S &.n.*.x b *.*.&.G w * @ + 6 k m m l * 6 :.] c C C C c 0 ",
"* 0 c c x c V -.m # + + * + + % & 9 * * 5 9 6 % # # + * * # + $ 7 e 8 e G R v q b G S G w # @ + + + # * * @ o 6 ] C c m c c d 6 ",
"* * d g c c c c m m / m m m / n m n m m m c m m m / m Q m m l n x p u w v M N M b g h N C ( ( / / ] / C C ] C / c c l m x l 6 * ",
"- z ! u s l n q C ] >.>.:.:.:.:.-.:.:.:.:.:.:.:.:.:.:.:.:.-.-.[ ] [ [ ' ' [ ] ' Y [ :.2.6.6.6.6.8.2.2.8.8.2.2.1.k 9 z l l x ! y ",
"9 0.0.i k d @ ' ] T C C ] ] ] T T ] ] ] ] ] T T T T T T T T Y Y C C C C C C C N N C C T T T T T T Z Z ] ] ] ] ] ] c # d * } .X{ ",
"9 }  X0.n k C =.C C C C T C C C C C C C C C C C C C C C C C C C C C C C C C C C / ] ] ] ] ( ( ( C C C C C C T T =.=.g w  ..X0.^ ",
"9 ^ X. X .Q C c C C Z ] ] C C ( Z Z T T Z ] ] ] ] ] ] ] ] ] ] ] ] ] ] ] ] ] ] ] T T T T T T T T ] ] ] ] T T T ] Z C ' ~ q.qX..i ",
"9 ^  ...0...a a C C C C C / / C C C C Z Z Z ( ( T T C C C C T T T T T T ] ] ] ] ] ] ] ] ] ] ] ] C C C C Z Z C C ] l E q.0.| } ! ",
"6 n } | | 0.0.W l c m m c m m m c c c c c m m V c c c c c c V V c c c c c c c c c c c c c c c c m m c V V V m c w } 0...| | { a ",
"* k z Q E ^  .i @ * 0 s 0 6 6 0 0 0 0 0 0 0 0 0 6 0 0 0 0 0 0 d 0 0 0 0 0 0 0 0 0 0 0 0 0 0 0 0 0 0 0 0 6 6 6 6 - z 4.W a ~ Q i ",
"% + + + + o X o + X . o o . . o + + + + + + + + o + + + + $ $ $ $ + + + + + + + o o o o X X X X . X o o . . o + $ + . % $ $ & * "
};
