/* XPM */
static char *ab6f9daaa4f4495bf631d1e697c57f4c8YpHtNhBhY2A7xeQ[] = {
/* columns rows colors chars-per-pixel */
"64 64 231 2 ",
"   c #1A1B16",
".  c #1E1E1C",
"X  c #171715",
"o  c #1F201B",
"O  c #1D2317",
"+  c #383709",
"@  c #242413",
"#  c #21221E",
"$  c #26291D",
"%  c #2A2B1D",
"&  c #2A2917",
"*  c #352B15",
"=  c #333018",
"-  c #3A3715",
";  c #29270B",
":  c #1E1E20",
">  c #1E2421",
",  c #242423",
"<  c #262923",
"1  c #292A26",
"2  c #262629",
"3  c #28262B",
"4  c #2C2C2B",
"5  c #282828",
"6  c #342C25",
"7  c #362E2C",
"8  c #2E3226",
"9  c #2F302B",
"0  c #333124",
"q  c #3B3324",
"w  c #3C3A22",
"e  c #31322D",
"r  c #34392C",
"t  c #3B3B2C",
"y  c #38332A",
"u  c #2E2E31",
"i  c #2C2630",
"p  c #312D34",
"a  c #333332",
"s  c #363933",
"d  c #3A3B34",
"f  c #3B3B39",
"g  c #3B3437",
"h  c #463B06",
"j  c #443C14",
"k  c #453B1C",
"l  c #523C0D",
"z  c #453D24",
"x  c #423D2C",
"c  c #493C24",
"v  c #423E32",
"b  c #423D3B",
"n  c #432F26",
"m  c #36401D",
"M  c #3F462E",
"N  c #3E4135",
"B  c #3F4038",
"V  c #4B4207",
"C  c #5D5400",
"Z  c #4A4317",
"A  c #514A16",
"S  c #554A1D",
"D  c #574915",
"F  c #5B5218",
"G  c #56490B",
"H  c #665906",
"J  c #65591D",
"K  c #665A16",
"L  c #614B1C",
"P  c #6B6202",
"I  c #69630A",
"U  c #766503",
"Y  c #7A7305",
"T  c #6A631D",
"R  c #6B6918",
"E  c #756719",
"W  c #7C741A",
"Q  c #43432A",
"!  c #4D492B",
"~  c #494628",
"^  c #564A27",
"/  c #5E5A23",
"(  c #595428",
")  c #444434",
"_  c #4C4B35",
"`  c #43443B",
"'  c #45493A",
"]  c #4D4B3D",
"[  c #494533",
"{  c #524B33",
"}  c #564E38",
"|  c #4E5438",
" . c #54513C",
".. c #5B5739",
"X. c #635828",
"o. c #635D3A",
"O. c #655B35",
"+. c #596227",
"@. c #686628",
"#. c #766A25",
"$. c #7C742B",
"%. c #6A6637",
"&. c #766A35",
"*. c #797636",
"=. c #3D3E43",
"-. c #494A45",
";. c #4F5545",
":. c #535345",
">. c #5E5D46",
",. c #585651",
"<. c #7D7843",
"1. c #6D674A",
"2. c #887508",
"3. c #887916",
"4. c #907E1A",
"5. c #847C25",
"6. c #867A2A",
"7. c #847A37",
"8. c #947C3E",
"9. c #826F2A",
"0. c #8B850A",
"q. c #938805",
"w. c #969107",
"e. c #8B8417",
"r. c #95851A",
"t. c #989216",
"y. c #A89817",
"u. c #A38F11",
"i. c #ADA418",
"p. c #B7A61B",
"a. c #B7B11F",
"s. c #888329",
"d. c #92852C",
"f. c #938B25",
"g. c #999225",
"h. c #878237",
"j. c #938937",
"k. c #9C9635",
"l. c #A19624",
"z. c #A99A27",
"x. c #A59C35",
"c. c #B09E2C",
"v. c #AEA327",
"b. c #B6A726",
"n. c #B7B223",
"m. c #AAA438",
"M. c #B9AA3A",
"N. c #BCB53A",
"B. c #C7B829",
"V. c #C9BC34",
"C. c #C3B538",
"Z. c #CAB639",
"A. c #CEC534",
"S. c #CDC52E",
"D. c #958D46",
"F. c #A89D46",
"G. c #ABA141",
"H. c #B4AC48",
"J. c #BBB44A",
"K. c #B5AC58",
"L. c #BBB257",
"P. c #CEB645",
"I. c #C3BB48",
"U. c #C9BE55",
"Y. c #D2B84A",
"T. c #CABC63",
"R. c #CCC247",
"E. c #DACA46",
"W. c #DAD440",
"Q. c #C9C456",
"!. c #DBC953",
"~. c #DFD65F",
"^. c #E1CF4A",
"/. c #E3D249",
"(. c #EADB5B",
"). c #E7D858",
"_. c #F0D559",
"`. c #D7CD66",
"'. c #DDD277",
"]. c #D6CE6A",
"[. c #E8D96A",
"{. c #F4DF67",
"}. c #F4DD7A",
"|. c #E0D675",
" X c #E9E269",
".X c #F6EA66",
"XX c #EAE47D",
"oX c #FAE57B",
"OX c #F8E674",
"+X c #FFF86C",
"@X c #ECE386",
"#X c #FBED85",
"$X c #FDED8C",
"%X c #F3E989",
"&X c #FEF583",
"*X c #FDF38D",
"=X c #FFED93",
"-X c #FCEC9B",
";X c #F7E896",
":X c #FEF392",
">X c #FFFE91",
",X c #FFF39C",
"<X c #FFFA9C",
"1X c #F7F69A",
"2X c #FDEDA3",
"3X c #F7EBA6",
"4X c #FEF5A4",
"5X c #FFFBA3",
"6X c #FEF5AB",
"7X c #FEF9AC",
"8X c #FEF3B4",
"9X c #FEFAB3",
"0X c #FEF4BD",
"qX c #FEFBBB",
"wX c #F8ECB2",
"eX c #FFF5C3",
"rX c #FDFBC3",
"tX c #FFF5CB",
"yX c #FEFBCB",
"uX c #F7FECA",
"iX c #FEF5D4",
"pX c #FDFBD4",
"aX c #FDF5DC",
"sX c #FDFCDC",
"dX c #F7FBD6",
"fX c #FEF6E3",
"gX c #FEFCE3",
"hX c #FDFDEB",
"jX c #FFF6EA",
"kX c #FDFDF4",
"lX c #FEFDFC",
/* pixels */
"s < , 4 4 # # 4 1 . # 4 e < < a # 1 1 # , 4 4 , , 4 4 , , 4 4 : a 2 , u u , , 4 4 , , 4 4 < < p # 1 1 , , 4 4 , . e e # # e 4   ",
"1 , , 4 4 , , 1 1 , , 1 4 , , 4 < 4 4 , , 4 1 , , 1 1 < 2 4 u 2 4 , , 4 4 2 < 4 4 < < 1 1 < , 1 < 4 4 < < 4 1 , < 4 1 # , 4 e < ",
". 1 4 , , e 4 # , 4 4 , , 4 4 # e # # e e , , 4 4 , , 9 a < , a , 4 4 , , u u , , p 4 , , 4 4 . a , , e e , # 4 a , . 4 4 , , a ",
"1 4 1 , , 1 1 1 < 1 1 < 1 4 4 1 1 # # 1 1 < < 4 4 < < 1 4 2 , 1 4 4 4 2 2 4 4 < < 4 1 < < 4 4 1 5 , , 1 1 < < 4 4 , , 4 4 , # < ",
"s . . e a . . a a . . a a . . a   4 e . . a a , : a a . : a p . a . . s s . . a a . : a a , , s   4 e . . a a # . e e # , e 4   ",
", , , 1 4 1 < 1 1 1 < 1 1 , , < 1 1 1 1 1 1 1 1 2 2 2 5 4 4 i 4 1 < < 1 1 1 1 1 1 1 1 1 2 < < < 1 1 1 1 1 1 1 1 1 1 < , < 1 4 4 ",
"  4 4 # , a e . # e e . . 4 4 . s , , a a : : a a : : a s , , a : 4 4 . # e e . : a a . . p p . a # # a a . . a a # . 4 4 , , a ",
"e 1 , 1 1 , < 4 1 , , 4 4 < 1 4 , 5 1 < 2 4 4 1 1 4 4 2 2 4 2 , e 1 < 4 4 < , 1 1 < < 4 4 2 1 4 , < 1 , < 1 1 1 , 4 4 , , 4 1 . ",
"a < , 1 4 , , 4 4 , , 4 4 , < 4 2 1 4 2 2 4 4 2 < 4 u < , 4 4   e # # 4 9 # # 1 1 # < a a , , a # 1 1 , , 4 4 , , 4 4 , , 4 1 . ",
"  4 e . # a a   . a a . . e e   a : : a a : : a a . . a a , < a   4 e # o 4 e , , a p . , a 4 X a # # a a . . a a . . e e . # s ",
"# 1 1 < < 4 1 , < 4 4 , , 1 1 , 1 1 1 1 1 1 1 1 4 < < 1 1 , < 1 < < < 1 < , < 1 < 1 1 < 2 4 4 , 4 < < 4 4 < , 1 4 < , 1 1 < 1 e ",
"s , # 4 4 , , a 4 # # e e , , a . a a . . a a # , a a # # 4 1 . s # o e r # o 1 1 # , a a : < f . 4 4 . # e e # . 4 e , , 4 4 . ",
"4 4 1 , < 1 1 1 < 1 1 1 1 1 1 1 1 < , 1 1 , , 4 < 9 4 4 e 1 , e < 0 e < < e e , 1 4 4 1 2 1 1 2 < , < 1 1 < 5 1 < < 1 1 1 < , , ",
"# 1 1 , < 4 1 , , 4 4 , , 1 1 , a , , e 9 # o 4 4 e 4 e r < # d 4 N B 1 # 4 e 1 5 1 < . < a 4 . 4 < < 4 4 < , 1 4 , , 1 1 , 1 e ",
"1 # , 4 4 < , 1 4 , , 1 1 , , 1 , 1 1 , , 1 1 < e ` d 1 0 e 8 N :.N r r 4 # , e 4 1 1 1 4 1 1 4 < 4 4 < < 4 1 , < 4 1 , , 4 4 1 ",
"e 1 < 1 1 < < 1 1 < < 1 1 1 1 4 . < 1 , , e 0 % t ] f r v x Q >.1.t @ = w = & r e f ` s < > 1 a , 1 1 < < 1 1 < , 1 1 1 1 1 < # ",
". 1 1 , < u u , 2 4 4 1 < 1 , o a 1 , 1 a % @ w :.) b ,.q { X.&.k * j h + Z ( | | ;.-.s 9 9 1 . a 4 1 1 1 1 < 1 4 , , 4 4 , < a ",
"1 4 1 , , 4 u 3 , 4 4 < < 4 1 , o 1 4 2 7 6 * - o.1. .{ k %.8.K G V F E 6.D.<.%._ N 0 r 8 $ # 1 4 , # 1 4 , < 4 1 , < 4 4 < , 2 ",
"a , , 4 u : , p 3 , , 4 4 < < 4 O 1 4 2 6 q j A @.*./ A J h.F.C C s.J.Q.H.5.K ( { x q t t r e e # 1 1 # , 4 4 , . 4 a , , 4 4 . ",
"< # < 4 u 2 2 4 4 1 1 1 1 < < < 9 < < 4 q k F $.5.5.I H W F.G.P m.[. XC.q.P H #.X.O.{ ! [ ] f 4 1 1 1 1 1 1 1 < < 1 1 , < 4 u 4 ",
"  9 e # , a a . , a a , , 4 4 o s 5 < y c ( 6.x.l.t.Y Y 0.Q.m.r.XX>XR.0.q.i.z.4.E #.J S ! [ g 3 a # # e e # . e a . . a a : , f ",
"4 1 1 < 2 1 4 4 4 2 < 4 1 , , 4 , < 9 q ^ &.x.M.p.a.w.Y t. XI.U.<X%XN.v.S.B.y.2.2.U H H S z g f 4 1 1 , , 1 1 1 < < 1 1 1 2 < < ",
"s # . e a : : a a : . a a o # s > < t ~ F 6.M.V.B.W.n.w.I.&X|.%XqX4X].[.).p.y.p.b.y.r.3.#.( _ -.1 s e # # e e , . a a , : a u   ",
"# , 1 < 1 4 4 2 2 4 4 , # 4 9 < s 8 ~ / K 3.C.^./.+XE.N.#X<X@X7X0XrX-X<X&X!.(..X_._.!.M.k.*...) ` 9 1 e e # # e 1 < < 1 1 1 1 a ",
", < 1 1 1 1 1 , . 4 1 , 4 a e < s M ( T 3.y.V./..X&X#X%X7XqX8X0XyXyXqX7X<X:X*X#XOX!.C.v.k.h.+.m ' 4 # 4 e , , 4 4 , , 1 4 < 2 a ",
"a # . a a . : s s , . e f 1 < ` 8 Q *.s.0.b./.).oX<X4XwXrXyXeXpXpXpXrX9X7X4X,X=XoXY.y.2.Y R +.~ % d s , # 9 e ,   a a : . a a   ",
"1 1 1 < 2 1 4 4 1 < , 1 a e e d r ~ 7.x.y.V..XOX;XqXyXtXsXaXiXsXsXpXuXrXqX9X4X,X:X[.P.z.W @.%.| r s a 4 1 < 1 1 , 1 4 2 < 1 1 , ",
"X 4 a , , s a .   e 9 # 4 ` N 0 Q j R m.R.(.&X:X3XyXsXaXfXfXaXfXgXsXpXuXrXqX9X4X$X#XoXU.5.@...' ,.s < e e # # 9 a , : 4 4 , < s ",
"< , < 4 4 < , 1 5 1 1 9 s N ` ] ~ A I k.~.OX:X7X0XiXsXaXaXfXfXfXjXjXaXpXuXrX9X4X$XOX{.!.d.F Q ` -.` e 1 1 1 1 , 5 1 2 < < 1 4 4 ",
"a , , 4 4 , , u 4 < # < s f ' >.o.*.5.f.U.XX-XqXyXpXaXdXaXsXjXjXhXfXgXdXdXuX0X6X<X[.!.!.H.T - ) r f s 1 , 1 1 , , 1 4 < < 4 1 , ",
"1 4 4 < < 4 4 2 , 4 1 o 1 d ' _ <.D.F.G.U.@X8XyXpXdXpXpXpXsXgXgXjXjXgXgXgXsXiXeX6X}.P.C.H.5.V + t e 9 e 4 # , 1 1 , < 4 4 < , 2 ",
". 5 4 < < p 4 , , 4 4 , 4 r d x O.7.K.'.@X4XrXyXsXdXdXsXpXsXhXhXhXgXgXgXhXjXfXiX8X-XP.u.z.x.T + ) a 1 < 1 1 1 < 1 < < 1 1 < 1 p ",
"a < , 1 4 , , 4 4 . < e < e -.] ..&.j.L.@X5XqXtXsXhXhXhXhXkXkXlXkXhXgXsXgXjXfXiXeX-XR.b.U r.8.^ & 9 e , . 1 e , , 1 1 1 1 1 < , ",
"2 , , 4 4 < , 1 < 1 # < s a s :...&.$.d.H.|.7XyXsXhXhXkXkXkXlXlXkXhXgXsXsXsXaXiXwX5X XV.q.2.8.O.q e e 1 # 1 4 , < 4 1 , , 4 4 1 ",
". 4 4 , , a 4 . , s 4 o 4 e 9 t %.*.s.f.x.I.'.3XyXsXgXhXhXkXkXkXkXhXgXsXpXyXtX0X4X>X.XA.b.Y 9.( x , # a 9 o , 4 4 , < 1 1 < 2 a ",
"1 4 1 , , 1 4 < 4 , 4 4 . < a % - / 6.x.M.I.`.@X9XrXpXsXgXhXhXhXhXhXgXpXyX0X8X2X$X X.XA.b.3.E S t # o 4 4 # , 4 < < 1 1 1 < < < ",
"f , . p a . . a a   # s 4 , s ` ; - F #.l.C.!.OX*X4X0XyXsXgXgXgXhXhXsXpXrX8X2X$X).C.).V.e.5.@.( 0 e 4 # # e a . . 4 a , , 4 4 . ",
"< < < 1 1 1 1 < , a 1 o 4 e e f ` ) k G E t.B.E..X#X7XrXpXsXsXgXgXgXaXpXrX6X=XoX^.y.b.l.I $./ ! v 4 1 1 1 1 1 < 4 < < 1 1 < 2 p ",
". 4 a : , s a .   f r X # e 4 1 =.b x S E r.i.B./. X,XrXiXaXfXgXfXaXaXiXeX2X}.).).u.2.E D ( ! t ' , # a 9 o , e a . . a a : , f ",
"a 1 < 1 1 < < 1 4 . < a 1 # e e 3 s v ( E 2.u.p.A.(.=X0XiXiXiXaXpXdXiXyX0X;X[.R./.v.H K ^ = ) -.e e 4 , # 1 e , , 4 4 < < 4 1 : ",
"a < , 1 4 , , 4 1 1 4 9 4 , 1 9 O % w S K 4.v.V.E.OX,X8XtXiXtXtXrXrXyX0X-X$X{.p.V.v.H F ! y e -.1 1 1 , , 1 1 , , 1 1 2 2 1 2 , ",
"  u a : , s a   . a a # # a s $ ) - = S #.d.z.c.N.m.T.4XrX8X3X4X9X6X8X7X,XoX(.y.p.c.K h = b s < a # . e e o . 4 a . . a a : , a ",
", 1 1 < < 4 1 , 1 1 1 1 4 9 e r Q ~ { O.&.7.6.3.3.Y H.:X>X[.)..X*X1X5X5X#XR.E.i.y.r.G j q r 9 < < < 1 1 1 1 < , 1 1 2 < 2 1 4 4 ",
"s < , 4 4 , , a a o . e s 1 4 ` @ Q  .! Z S D h V H k.Q.N.n.S.W. XXX@X%X`.t.N.y.l.I h k x 1 $ 8   9 e o # a a o . e a , , a u   ",
"4 4 1 < < 1 1 1 < 1 1 , 1 a s a d d t q n c ~ j A K s.f.w.i.S.n.J.H.H.].J.3.x.e.5.J j = 6 0 % @ 1 , , 1 1 , < 4 1 , < 4 4 < , < ",
", 1 1 < < 4 1 , , 4 9 # # s s e -.f v {  .} } ..o.%.*.s.e.g.l.e.W 5.s.K.k.W j.7.&.^ [ 6 1 4 % @ e , # 9 4 . # e e , , 4 4 , < s ",
"2 , , 4 4 < , 1 1 , < 4 4 < 4 a 9 r Q ! ! ! {  ._ ..@.X.J J L l D J #.D.T T *.<.o.q b g p , # 8 , 4 4 , , 1 1 < < 4 1 , < 4 4 1 ",
"p 1 < 2 1 < < 1 1 , , 4 4 # < s # d x = = ! ] ) ) _ - ; * c n * ( S A %.A O.o...[ , g p i , 1 e . 1 4 , , 4 e < , 4 4 < < 4 1 . ",
". 1 4 , < 4 4 , 1 1 1 , < 1 1 , a 1 $ $ 1 0 e 4 4 $ % 0 0 % 6 v w w z Q _  ._ t 4 e p 4 3 3 2 , e < , 4 4 , , 4 4 , , 1 4 , < a ",
"1 4 4 , , 1 4 < , 1 1 , < 4 4 < 1 , # 1 e 9 4 4 9 < < 9 4 , 1 d r r r r f ` d 4 < 4 u 1 3 u u 2 1 , , 1 1 < < 1 1 , < 4 4 , , < ",
"a , , 4 4 # , e 4 , , 4 4 1 < 4 # 1 1 , < e e 1 , 4 4 , , e e 4 d % $ d f 4 , 9 1 , < 4 u 1 4 a , 4 4 . # e e # . 4 e , , 4 4 . ",
"< , , 4 4 < , 1 1 1 < 1 1 < , < 4 4 1 < , 1 4 4 , 1 1 , 1 r a 4 9 $ $ 9 e 4 < 4 1 < 1 1 4 2 2 1 1 4 4 < < 4 1 , < 1 1 , , 4 4 1 ",
"  4 e # # a a . , e 4 . # 4 4 . a # # e 9 # # d 4 # # 4 e 1 1 a   9 9   . e e . # e e # , 4 4 . a # . a a # . e a . . e e # , s ",
"4 1 1 < < 1 1 1 4 , , 1 4 1 < 4 o < 1 1 1 4 1 < , 4 1 # , 4 4 # < 1 1 < < 1 1 < 4 < < 4 4 < < 4 < < , < 1 1 1 1 < < 1 1 1 1 , , ",
"s # . e e . . a a . . a a # # a   4 e # , a e . # a e . . e 4   a , , a e # # e a . . a a # . a . e 4 . . a a . . e a # # a 4   ",
"# < 1 1 1 4 1 , , 4 4 , , 4 1 # a , # 4 4 , , e 4 # # e e # , e , 1 1 , # 1 1 , , 4 4 , # 4 1 # 4 1 < 1 1 < < 1 1 < , 1 1 1 1 e ",
"# 1 1 < < 4 1 , 1 1 1 , < 1 1 , 4 1 < 1 1 < < 1 5 , < 1 4 1 1 4 < 1 1 < < 1 4 2 1 1 1 < , 1 1 # 4 1 1 1 1 < , < 1 , , 1 1 < 1 a ",
"a , # 4 4 . # a a . . a a # # a . e 4 . . a a . . a a . . e e . s , , a a : . a a . . a a # # a . e 4 . . a a . . 4 e # , e 4 . ",
"1 4 1 , , 1 1 1 1 1 < 1 1 1 1 1 < < < < 2 1 1 1 1 1 1 1 2 < < < 4 4 4 1 1 1 2 < 1 1 < 1 1 1 1 1 < , , < 1 1 1 1 1 < 1 4 1 < , , ",
"  4 a . . a a . # a e . . e e   s , . a a , . a a . . a a , , a . u p . . a a : , a e . . a u   a # . a a # . e a . . e a . # s ",
", , , 1 4 1 < 1 4 < , 1 1 , , 1 1 4 4 < < 4 4 , < 4 4 < < 4 4 2 1 , , 1 1 < < 4 4 < , 1 4 < , 2 1 4 1 < < 4 4 , 1 1 1 , , 1 4 1 ",
"a , , 4 4 , , e 4 # # 4 e , , e , 4 4 : , p a , , a u , : 4 4 . a , , a a , , 4 4 , : u a , < a . 4 4 . , e e , # 4 4 , , 4 1 . ",
"1 4 4 , , 4 4 < , 1 1 , < 4 4 < 1 , , 1 4 < < 4 4 < < 4 1 , , 1 5 4 4 < < 1 1 < < 4 4 2 3 u u 2 1 , , 1 1 < < 1 1 , , 4 4 , , 1 ",
". 1 4 , , e 4 # , 4 4 , , 4 1 # a < < 4 4 , , 4 4 , , 4 4 < < a , 1 1 , , 4 4 , < 4 4 , , u i , a < , 4 4 , , 1 4 # # 4 4 , < a "
};
