/* XPM */
static char *_ba5d85f65a34ec7f91f00d40ba32b29E0VSzsg6yvuAMitO[] = {
/* columns rows colors chars-per-pixel */
"64 64 256 2 ",
"   c #EA3D1D",
".  c #DC3929",
"X  c #EA3C2C",
"o  c #FD3C2D",
"O  c #F93829",
"+  c #EC3E37",
"@  c #F83D37",
"#  c #F62F36",
"$  c #DB492A",
"%  c #DD5130",
"&  c #E9482B",
"*  c #FC432D",
"=  c #F3472B",
"-  c #E8522D",
";  c #ED4435",
":  c #E54B33",
">  c #EB4C34",
",  c #ED4C3B",
"<  c #E84639",
"1  c #F34433",
"2  c #F34A34",
"3  c #FC4B34",
"4  c #F6453B",
"5  c #F44B3C",
"6  c #FA4B3C",
"7  c #FB4338",
"8  c #E45234",
"9  c #EA5334",
"0  c #E5533A",
"q  c #EC533C",
"w  c #ED5A3C",
"e  c #EA5D37",
"r  c #F35334",
"t  c #F2523D",
"y  c #FC513C",
"u  c #F65B38",
"i  c #F55225",
"p  c #DE7137",
"a  c #EC663B",
"s  c #F6683A",
"d  c #EB7A3A",
"f  c #F5793A",
"g  c #EF702C",
"h  c #F73D43",
"j  c #DD4E44",
"k  c #DC5551",
"l  c #EA4A44",
"z  c #F44C43",
"x  c #FC4C42",
"c  c #F74747",
"v  c #EA5645",
"b  c #F55341",
"n  c #F95644",
"m  c #E85A56",
"M  c #ED4C55",
"N  c #DB7049",
"B  c #E66548",
"V  c #F46442",
"C  c #F56D44",
"Z  c #FC6847",
"A  c #EC7E43",
"S  c #E97848",
"D  c #F47443",
"F  c #F37D44",
"G  c #FA7C44",
"H  c #F47D4B",
"J  c #FB7C4B",
"K  c #FA7447",
"L  c #E66558",
"P  c #E87955",
"I  c #F37D52",
"U  c #FE7E55",
"Y  c #D87066",
"T  c #E96A65",
"R  c #F66A66",
"E  c #EB7768",
"W  c #F67D6C",
"Q  c #EC7A77",
"!  c #F77875",
"~  c #FCB514",
"^  c #DA813B",
"/  c #EA8438",
"(  c #F5853D",
")  c #F39836",
"_  c #F4A725",
"`  c #F8B131",
"'  c #FBCC08",
"]  c #FED406",
"[  c #F9C919",
"{  c #FDD618",
"}  c #FBCE22",
"|  c #F9CB28",
" . c #FCD32B",
".. c #FAD328",
"X. c #F9C739",
"o. c #FBD334",
"O. c #FBD43B",
"+. c #F9D837",
"@. c #EFC221",
"#. c #DD8A41",
"$. c #EC8244",
"%. c #ED8349",
"&. c #E88846",
"*. c #F38245",
"=. c #F4834A",
"-. c #FA834C",
";. c #F3894B",
":. c #F78845",
">. c #EC9946",
",. c #F6974C",
"<. c #EC8953",
"1. c #F48251",
"2. c #FD8452",
"3. c #F98957",
"4. c #F89D54",
"5. c #FBB845",
"6. c #F4AD50",
"7. c #D98B6A",
"8. c #E88776",
"9. c #F68878",
"0. c #F2966A",
"q. c #F3AD70",
"w. c #FFC943",
"e. c #FDD643",
"r. c #FBD64B",
"t. c #F7D848",
"y. c #FAD952",
"u. c #FADB5B",
"i. c #F6D856",
"p. c #F4D054",
"a. c #F9E352",
"s. c #FBCB6B",
"d. c #F9DB63",
"f. c #F9DC6C",
"g. c #F6D76A",
"h. c #FBDE73",
"j. c #F9DA78",
"k. c #F4CC6B",
"l. c #FCE06B",
"z. c #EEE376",
"x. c #F6E07A",
"c. c #FAE376",
"v. c #F87B81",
"b. c #E68986",
"n. c #F88886",
"m. c #E89887",
"M. c #F59689",
"N. c #F69995",
"B. c #EAA999",
"V. c #F4A798",
"C. c #EDAD8A",
"Z. c #EBAEA5",
"A. c #F5A8A8",
"S. c #EAB8B4",
"D. c #F5BAB6",
"F. c #F4B1AD",
"G. c #DE9D98",
"H. c #FADC88",
"J. c #F8DC97",
"K. c #F5C991",
"L. c #F6E183",
"P. c #F7E28D",
"I. c #FBE587",
"U. c #F8E396",
"Y. c #F7E59B",
"T. c #F7E897",
"R. c #EEEB90",
"E. c #EEEB90",
"W. c #EEEB90",
"Q. c #EEEB90",
"!. c #EEEB90",
"~. c #EEEB90",
"^. c #EEEB90",
"/. c #EEEB90",
"(. c #000000",
"). c #000000",
"_. c #000000",
"`. c #000000",
"'. c #000000",
"]. c #000000",
"[. c #000000",
"{. c #000000",
"}. c #000000",
"|. c #000000",
" X c #000000",
".X c #000000",
"XX c #000000",
"oX c #000000",
"OX c #000000",
"+X c #000000",
"@X c #000000",
"#X c #000000",
"$X c #000000",
"%X c #000000",
"&X c #000000",
"*X c #000000",
"=X c #000000",
"-X c #000000",
";X c #000000",
":X c #000000",
">X c #000000",
",X c #000000",
"<X c #000000",
"1X c #000000",
"2X c #000000",
"3X c #000000",
"4X c #000000",
"5X c #000000",
"6X c #000000",
"7X c #000000",
"8X c #000000",
"9X c #000000",
"0X c #000000",
"qX c #000000",
"wX c #000000",
"eX c #000000",
"rX c #000000",
"tX c #000000",
"yX c #000000",
"uX c #000000",
"iX c #000000",
"pX c #000000",
"aX c #000000",
"sX c #000000",
"dX c #000000",
"fX c #000000",
"gX c #000000",
"hX c #000000",
"jX c #000000",
"kX c #000000",
"lX c #000000",
"zX c #000000",
"xX c #000000",
"cX c #000000",
"vX c #000000",
"bX c #000000",
"nX c #000000",
"mX c #000000",
"MX c #000000",
"NX c #000000",
"BX c #000000",
"VX c #000000",
"CX c #000000",
"ZX c #000000",
"AX c #000000",
"SX c #000000",
"DX c #000000",
"FX c #000000",
"GX c #000000",
"HX c #000000",
"JX c #000000",
"KX c #000000",
"LX c #000000",
"PX c #000000",
"IX c #000000",
"UX c #000000",
/* pixels */
"wX7XbXIXDXDXDX7XwX7X8XbXIXPXDXDXwXwX7X8XrXDXJXBXIX7X7XwX7XwXJXJXDXIXrX7XwXwXwXJXDXPXJXrX7X8XwXwXDXDXDXDXrX7X7XwX7XDXDXSXPXiX7XwX",
"8X7XiXJXSXDXSXwX7X7X7XiXJXPXDXFX7X7X7X7XrXSXPXJXDXwX8XwX7XrXJXJXDXJXrX7X8XwXwXSXDXJXSXrXwX8X7X7XDXDXDXDXbXwX7X7XwXSXDXDXPXbX7XwX",
"rXrXrXrXrXrXiXrXrXrXrXiXbXSXSXrXdXrXrXrXiXrXrXSXrXrXiXrXrXbXSXSXrXrXrXrXrXrXrXrXSXrXrXiXiXrXrXrXrXSXSXrXrXiXrXwXrXiXbXbXSXiXrXrX",
"JXDXrX7X7X8XrXSXFXPXJXrXwXwXwX7XDXFXDXJXSXwX7X7X7XSXJXDXDXSXwX7X7X7XiXJXJXJXSXwXwX7X7XiXDXDXDXDXwXwX7X7XrXDXPXPXSXwX8X7X7XrXDXJX",
"JXDXrX7X7X8XrXSXDXJXFXwX7X7X7X7XDXSXDXDXSX7X7XwX7XSXJXDXDXSXwX7X7X7XbXJXPXJXSXrXwX7X7XiXJXJXDXJXwXwX7X7XrXDXIXPXSXrX7X7X7XrXDXPX",
"rXrXrXiXiXiXbXiXrXrXrXrXrXbXbXbXSXrXrXrXrXrXrXrXrXiXbXrXrXiXbXrXiXiXrXrXiXrXrXbXiXrXrXrXbXrXrXrXrXrXrXrXiXbXiXrXbXbXrXrXrXrXiXbX",
"wX7XbXPXDXDXSXwXwX7XwXSXDXJXDXnXwXwXwXeXdXFXFXBXDXwX8XwX7XrXJXJXDXJXrX7XwXwXwXSXDXDXSXrXwX8X8X7XSXDXDXDXbXwX7X7XwXSXDXDXJXbX7XwX",
"wX7XSXIXDXJXDX7X8X7X7XSXJXSXuXwXoXoX7XrXFXLXLXFXPX7X7XwX7XwXPXPXDXPXrX7X7X7X8XDXJXIXJXrX7X7X8X7XDXDXPXPXiX7X7XwX7XSXDXDXIXSX7XwX",
"iXSXrXwXbXrXwXSXbXiXrXiXiXwXoXOXZ.v.8.7.9.Z.XX+XHXLXLXFXBXzXiXuXpX0XeXBXDXMXnXnXzXnXnXuXiXDXhX0XbXwXwXrXiXrXrXSXiX8XrXSXrXwXbXbX",
"PXDXrX7X7X7XrXSXJXDXSXrXrXwXwXtX4XGX|.F.n.c X 0 L Q B..X0XVXBXNX3XcXHXIXIXFXaX=XaX#X=XFXLXFXDXIX8X7X7X8XrXSXJXDXDXrX8X7X7XwXSXJX",
"IXSXrXwX7X7XrXSXPXJXSXrX7X7XwXrXxXgXY B.ZX3XB.8 - 2 1 z m Q Z.Q.eXBXSXSXJXGXVX9X7X=X=XdXFXBXSXSX7X7X8X7XrXJXPXDXDXSX7XoX7XrXSXJX",
"rXwXrXSXrXrXSXrXrXiXrXrXrXrXwXwXbX0X|.E.bXMXxXuX4 5 5 5 2 1 7 7 R m.W.aXhXnXMXxXnXnXnXiXiXSXzXcXrXbXrXrXrXiXbXrXwXSXrXwXSXSXrXrX",
"7X7XrXIXPXJXSX8X7X7XwXbXDXPXJXFXcX1X<X8XyXS.A.Q.L v , 7 3 3 r - & & l ! F.OXBXHXLXHXxXuXtX>X7XeXJXDXJXDXiX7X7X8X7XSXJXDXPXSX7X7X",
"wX7XrXDXJXDXbXwX7X7XwXrXDXPXJXDX9XoXBXeX4XXX; & , , , 9 > : 0 v u , ; @ l L B.&XVXZXZXNX7X>X7X=XDXDXJXJXbX7X7XwX8XSXDXJXDXbXwX7X",
"bXbXrXrXrXrXrXbXSXSXrXrXiXrXrXwX:XVXxX1XdX:Xm.4 7 5 u V a 9 ; 4 6 t v v > X < n Z.XXlXBXBXDXSX0XrXrXrXSXiXrXrXSXSXrXrXiXrXrXbXSX",
"SXJXrX7X8X7X8XDXFXDXSXiXwX8X8X7XmXbXjXFXmXcX.Xz x : % a J J Z u 2 1 = 2 2 t 5 , @ T Z.yXLXHXSXGX7XwX8X7XrXDXPXDXPXwX7X8X7XwXJXPX",
"SXJXrX7XwX8X8XDXCXKXgXsXqXqX4X-XSXGXKXHXfXMX3XB , V a d -.=.-.*.D a 9 > 5 z l , & y c v.-XIXSXZX$X<XcX3X=XjXfXmXDXrX7X7X8XiXDXJX",
"rXrXrXiXrXiXSXrXMX8XaXeXmXmX4XaXKX{.sXDXaXxXuX9.5 Z K F =.=.=.$.1.J C w > > , b q & q < m D.VX8X8XZXnX3XZXtXrXrXrXiXbXSXSXbXrXrX",
"8X7XbXIXDXJXJX7X>XwXeXbXIXNXLXKX5XsX=X=X0XmXLXE ; Z J =.=.H -.*.%.=.-.H V 9 > > z t = y 2 j V.pXLXdXGXJXHX2XuX#X7XiXPXIXJXiX8X7X",
"7X7XSXPXJXDXSX8X3XrXeXeXZXVXnXMX4XtX.X9XMXmXaXv X w K =.=.H =.*./ $.%.1.-.K u - x t r & u x l m.FXhXBXKX1XeXrX3XwXiXDXJXSXrXwX8X",
"rXSXrXwXrXrXwXSXVXSXKXrXrXKXoXFX.XF.sXBX1XAXB.= 5 w D =.=.=.F *.*.*.$.$.;.-.H D 6 n $ : 6 > v + M.fXqX1XBXyXrXZXiXrXrXwXwXrXbXSX",
"JXIXrX{.7X7XwXIXZXGXF. X0X{.4X=X9.+XLXZXJX}.L O b 9 a =.=.=.A *.-.*.*.$.$.$.=.=.H $ t n z , > y 7 G.NX3XdXGXpXIXSXrX7X,X7XrXSXPX",
"SXSXrX7XwXwXrXSXKXaXY b.SX3XfX8.R ZXxXjXXXT $ 7 5 9 D =.%.-.H *.F *.=.=.*.A A $.$.F 2 ; v b 6 % * l Q.#XuXIXSXSXbXrXwX8XwXrXSXSX",
"rX7XiXJXSXSXSX7X1X$XV.b.IXJX.Xh 9.6XCXW.m o n l 2 9 J -.A -.=.F =.=.F H H =.=.=.*.-.D 9 2 q : 6 9 5 m -XZXUXBX#XrXrXSXSXSXiXrXwX",
"8X7XbXIXJXJXSX8X=XbX=XjXHXLX7.o k 9.W z 4 t 9 > < s G I =.( ( I _ ~ &.P :.K I :.*.d A D a : ; 6 j y * Q LX>X8XqX7XDXPXDXJXSX7X7X",
"wXwXiXDXSXSXSXrX0XqXfXtXIXOXB 2 5 , : + 6 b , , q s F H =.*.F I ` [ ~ ;.I f -.%.*.*.*.F C w , 5 l = = m [.sXwXrXwXSXSXSXDXSXrXwX",
"bXSXrXwXrXrXrXSXnXNXhXtXFXF.+ q * 3 y > > 5 5 z V F *.H 1.=.*.=.` [ ] ` %.d :.H *.*.*.=.H C t 2 n & 9 : ! sXBXSXSXrXrXrXrXrXSXSX",
"DXJXrX7X7X7XwXDXHXZX+XuX4Xn.; > 9 2 t 0 0 6 x q H *.$.%.1.=.*.:.[ ' ] ] _ %.A U F *.$.%.=.J V > y : q * x .XLXKXPXwX7X8X7XwXJXPX",
"SXDXrX7XwXwXwXSXLX|.|.BX4X! : 2 v < < q , 1 r S =.*.$.=.1.I $.) ] ' [ ] ' >.S 2.F *.$.&.%.-.C e > z z * ; n.LXHXDXwX8XrXwXrXSXSX",
"eXrXSXSXDXSXrXrX;X! E.xXFX8.X y z c 6 4 2 r a <.$.$.$.*.=.S / _ ] [ ' [ { [ &.I =.=.$.$.*.-.H s > z c 2 : M +XCXrXrXbXDXSXbXrXwX",
"7XwXSXPXPXDXSXwXB.@ W.xXIX9.X t 1 b 9 & s 2.;.$.$.%.*.*.H S ) ` { [ ] [ } ] _ %.=.=.*.*.*.*.=.F b 5 x , 9 1 N.NX7XbXDXJXPXSXwX7X",
"wX7XBXDXSXDXSXwXL o W.HXIX9.+ > u H %.F -.%./ -.*.=.=.:.H S ) } { [ { { @.{ ' <.=.*.*.*.F F *.;.n & y 0 6 - R 4X7XSXJXSXJXSX7X7X",
"LXiXSX3X-XvXZXV.X 2 M.CXCX8.2 5 9 J -./ / -.H 3.<.A ( -.1.&._ { } } [ [ } } | @.*.P =./ 1.I *.*.s v > 9 x 5 v XXPX7XrXiX8XiXDXDX",
"HXSXzX3X-XqXqXE 5   L @X<XW & ; : C -.$.*.=.F A H =.H A ( ` | { } } } } } .. .| ( P =./ =.I *.*.f v > 9 x , < ^.LXwX7X7X7XiXJXIX",
"dXJXzXzXyXrXQ.l t = $ T Q q = b > V I 1.=.;.:./ d H I / _ |  . ............. ...) %.*./ =.I *.*.G v 2 9 6 , 1 N.LXrXwX7X8XiXbXPX",
"7XaXbXmXKXFXB.o < y r < < = r z 5 w H 1.%.:.5.` ) ) >.6.X.} ..o... . ....... . .` $.*.f =.I *.*.=.v 4 9 q q @ 9.BXBXSXSXDXSX7XrX",
"7X#XSXmXLXlXP o z t > y n > , z 6 9 H =.A / 5.o.X.X.X.e.+. . .o.o.o.o.o. . . . .5.&.*.f =.=.*.*.*.v 7 r , w o E sXBXPXIXIXJX7X7X",
"rX3XSXnXCXXX0 7 z , $ , t : , z 4 - F =.F / ` +.O.+.+.+.+.O.O.O.O.O.O.O.O.o.o.+.w.&.H f =.%.:.F F q 7 9 , q o Q BXrXSXSXDXDXrXwX",
"JXBXlXuXAXS.= 5 : b b t t 5 z , x 9 F *.J d 5.+.o.+. . .X.e.e.O.O.O.O.e.e.O.O.+.w.&.H G =.$.:.*.f , 4 q z , 1 m.FXeXrXwX>XiXSXFX",
"HXLX=X>X5XB.* l - n 5 < 5 x 6 - x 9 F F U A 6.t.e.e.O.e.e.e.e.O.O.O.O.t.e.e.O.e.w.&.I J H A :.*.s , 4 q z z 4 V.LXeX8XoX{.uXJXJX",
"iXDX4XcXKXm.& v : C F a w = x 5 7 e A <.H *.5.t.t.t.t.r.r.r.r.r.t.t.y.r.e.r.t.t.s./ G G =.;.%.=.B = y : b 4 j ~.HXCXC.v ,XHX$XKX",
"0XrXdXHXKXm.= l : C -.F K w q 8 9 a *.=.A :.5.a.r.r.r.r.r.r.r.r.t.y.y.r.r.r.t.a.6./ -.J =.;.=.H 0 3 1 v : 3 T rXsXG.+ 0 ;XzX#XuX",
"9XqXSXIXLXN.o , 5 a -.=.-.H H H S -.2.G d ,.p.a.y.y.y.y.y.y.y.y.p.u.p.y.u.p.i.u.,.d -.F %.=.F s 2 , l v r X D.6X}.c * 8 9.jXHX>X",
"aXzXuXDXZXV.o q 6 w =.A *.-.=.;.<.=.f f &.6.u.t.u.u.u.u.u.u.u.u.i.d.i.u.u.u.d.p.*.d -.A %.=.D w i c M r   b.HXzX{.c & r + Q.BXvX",
"VXKXuX=XNXZ.+ r 5 0 -.$.A *.d p A d d &.6.k.l.u.d.d.d.u.d.d.d.d.d.d.u.d.i.f.h.6.F A 1.A =.-.C > 9 h n   P SXKXhXVXS.+ * v Q kXMX",
"jXKXiXOXBX|.j 2 , 8 J =.=.=.,.>.,.,.4.q.g.f.l.d.d.d.d.f.f.f.f.f.f.g.d.l.g.h.s.>.F F =.A -.K V > v 8 o m =XLXnXIXLXBXF.v + ! kXHX",
"fXMXBX=XbXuXY 1 z 9 a J =.;.q.h.s.s.j.c.c.l.f.g.f.f.f.f.f.f.f.f.f.f.f.f.c.h.6.$.*.=.%.%.J a t , 4 p v @XZXpX=XKXmX#XVXB.# B.VXHX",
"=X2XVXlXmXIXm.* b : a J =.^ k.x.c.z.z.z.f.h.c.z.h.h.h.h.h.h.h.h.f.c.h.f.c.s.&.H *.%.%.=.J 9 , z 3 z XXLX1XNXsX7X2XjXDX.XB &XvX3X",
"tX3XsXIXSXZX+XM v < y S -.G ^ I.I.j.x.j.j.I.j.z.x.x.x.x.x.x.x.x.j.L.j.L.I.4.-.%.%.$.$.-.w t , 5 O Z.LXFX;XpX<X#XvXzXLXrXtXJXaXOX",
"uXsXsXnXbXNXgXN.X 2 8 B H J ,.k.R.j.H.I.L.I.H.L.L.L.L.L.L.L.L.L.j.L.H.I.j.,.*.F $.$.A J q t , , v .XHX1XNX4XvXNX#XZXnXnXNX3XDXdX",
"SXLXwXtXwX3XfXpXV 1 t 8 P 3.s 6.R.H.H.T.R.L.I.H.P.P.P.P.P.P.P.P.L.P.H.T.s.*.&.F $.*.F C 9 5 5 > v =XCX1XAX6XIXIXkX|.OXsXeXbXJXVX",
"KXPX9X7X8X,XzXZX~.c @ 9 a 2.A %.H.T.P.U.R.R.T.H.U.U.U.U.U.U.U.U.R.T.J.T.q.F &.-.$.=.F a > 6 6 > < B.=XrX0XlX-XS.n.b..X4X,XnXSXFX",
"MXrX9XsXrXuXMXeXLXS.c o u s 2.S q.T.R.J./.Y./.J.Y.Y.Y.Y.Y.Y.Y.Y.T.Y.Y.).q.f $.-.F =.D 9 > 5 t > x + R n.n.E v c k !.0XwXBXuXnXdX",
"vX7XdXVXFXKXKX>X2X6XB.z & i H 3.H K.]./.).)./.)./././././././././././.).q.D *.=.A =.D - > 5 t : 8 w n . . 3 X v |.kXGXiXIXZX9X8X",
"wX7XhXDXSXIXDXtXwX{.fXQ.M , N K D 0.J.).(.(.(.`.(.(.(.(.(.(.(.(.).].`.(.C.K G $.A =.D - 5 5 5 : < $ - 6 x 7 L Q.4XoXGXLXDXBX#XtX",
"eXeXiXnXMXNXaXyXpXyX4XDX+XT O p 3.S q.(.].'.'.`.`.`.`.`.`.`.`.`.'._.`.`.K.H J $.%.=.D - x 5 5 9 c 3 r < h 8..XHXvXKXuXeXsXuXnXrX",
"JXJXwX7XrX7X7XIXfXGXFX3X9X-XA.k i s 3.K.`.*X%X'.'.%X%X'.%X%X'.'._.'.'.'.'.q.S K &.=.K n 6 1 2 2 w 1 @ m B.kXLXMXPXwX7X8X7XrXJXPX",
"DXDXrX7XwX7X8XDXDXIXKXrXeXhX-X!.b.B i J K.*X*X].%X&X%X%X%X%X%X%X'.%X%X-X;X'.q.^ g *.;.&.S B B 0 X l b..XJXDXiXGXSXrX7X7X7XrXDXJX",
"rXrXrXrXrXrXrXrXzXvXnXnXrXaXsXhXZX|.W s F q.'.gX&X;X*X*X*X*X*X*X-X-X&X%X_.*X'.K.0.<.#.&.:.D V Z N.~.aXNXvXMXSX0XrXbXrXrXrXrXrXiX",
"7XwXSXJXJXJXSXwX5X3XwXSXGXFXBXBX+XaX4X}.b.E M.^.&X-X;X*X;X;X;X;X*X%X;XgXDXLXFX=Xq.<.g g s E Z.2XZXLXVXFXiX>XvX3X7XDXJXDXJXSX7X7X",
"7XwXSXJXJXJXSXwXeX7X7XdXFXGXIXKXtX>X7XCXLXnX!.V..X-X-X-XgXgX;XgX9XlX;X;XXXC.0.=.;.0.m.S.,XSXVX4XHXmXbXIXFX#XqXeX7XDXJXDXJXSX7X7X",
"iXiXiXrXiXrXrXiXpXpXyX9X9XrXdXiXHXxXrXtXyXyXBXAXOXtXpXiXpXyX8X-X.X~.K.C.C.C.^.~.wXnXKXJXrXaXsXaXpXFXzX<XvXSXhX-XrXbXrXrXrXrXrXiX",
"DXDXrX7XwX7XwXDXDXIXIXSX8X7X7X7XfXIXKXKXdX=X9XcX0XSXJXJXSXuX8X>X+XOX3XAXZXLXIX8XrXoX3XBXLXIXmXmX$X=X7XqXxXKXnXhXSXrX7X7X7XrXDXJX",
"DXDXwX7XwX7X7XIXVXZXHXbX<X<X8XwXJXDXSXhXyXwX7XwX7XSXJXJXJXSXwXwXxX7XlXkXyXiXJX3XrXrXwXrXSXPXKXSXwX8XyX=X#XAXAXKXPXwX7X8X7XrXJXPX"
};
