/* XPM */
static char *fd41a925c7b7486fe94744a644d37a9dTMAGnGl5mASPo5xi[] = {
/* columns rows colors chars-per-pixel */
"64 64 221 2 ",
"   c #000000",
".  c #090403",
"X  c #000609",
"o  c #040A0B",
"O  c #0C0C0B",
"+  c #0B0806",
"@  c #120C09",
"#  c #1B110D",
"$  c #17100D",
"%  c #030F11",
"&  c #0A0F10",
"*  c #0D1314",
"=  c #091416",
"-  c #151615",
";  c #1A1512",
":  c #1C1916",
">  c #151B1A",
",  c #1B1D1C",
"<  c #2F0F06",
"1  c #221712",
"2  c #231914",
"3  c #251D1A",
"4  c #2A1B16",
"5  c #351F17",
"6  c #1F211E",
"7  c #2C231E",
"8  c #24211F",
"9  c #3F2015",
"0  c #33221B",
"q  c #3A241B",
"w  c #3E281F",
"e  c #2E2F2C",
"r  c #3C2B22",
"t  c #3D2F29",
"y  c #362824",
"u  c #37322C",
"i  c #492A1E",
"p  c #44251A",
"a  c #582D1D",
"s  c #78331C",
"d  c #432C23",
"f  c #482F25",
"g  c #44342C",
"h  c #4C3329",
"j  c #543425",
"k  c #5D3525",
"l  c #57382C",
"z  c #4F3C34",
"x  c #433B36",
"c  c #543D33",
"v  c #643C2C",
"b  c #753C27",
"n  c #5D4539",
"m  c #594237",
"M  c #78412D",
"N  c #6D4A3B",
"B  c #6B4333",
"V  c #774836",
"C  c #775241",
"Z  c #80391E",
"A  c #823B21",
"S  c #97401D",
"D  c #8C422B",
"F  c #954B2E",
"G  c #944426",
"H  c #844B34",
"J  c #8B4F37",
"K  c #9E4D31",
"L  c #944A33",
"P  c #8C523B",
"I  c #9B5135",
"U  c #95543B",
"Y  c #9C5539",
"T  c #A34C2E",
"R  c #AB4C28",
"E  c #B34C29",
"W  c #BB532D",
"Q  c #A55233",
"!  c #AB5533",
"~  c #AE5B3D",
"^  c #A6583B",
"/  c #B25A36",
"(  c #BB5A34",
")  c #BB5D3A",
"_  c #B45837",
"`  c #A54D33",
"'  c #AC603E",
"]  c #BB603B",
"[  c #FF4E0A",
"{  c #FF4A04",
"}  c #F44F1A",
"|  c #F84E16",
" . c #F45316",
".. c #FB5315",
"X. c #F65A15",
"o. c #FE5A16",
"O. c #F6531A",
"+. c #FA551A",
"@. c #F65B19",
"#. c #FD5B1B",
"$. c #EA5415",
"%. c #FF6F06",
"&. c #F36802",
"*. c #FF710C",
"=. c #FC790E",
"-. c #F76316",
";. c #F66C16",
":. c #FA6D16",
">. c #F7611A",
",. c #FC621C",
"<. c #F76A1A",
"1. c #F96A19",
"2. c #FF6516",
"3. c #F67415",
"4. c #FA7316",
"5. c #FA7C16",
"6. c #FA7319",
"7. c #FB7A19",
"8. c #F67819",
"9. c #EF7914",
"0. c #C2542B",
"q. c #D75C2C",
"w. c #C75C35",
"e. c #D85E31",
"r. c #C84F24",
"t. c #EA5D2A",
"y. c #F45B21",
"u. c #FE5D23",
"i. c #F85520",
"p. c #C5623C",
"a. c #CB633B",
"s. c #CB6036",
"d. c #D56035",
"f. c #DE6335",
"g. c #D5663D",
"h. c #D9683C",
"j. c #ED642F",
"k. c #FE6323",
"l. c #FC652B",
"z. c #FF6A2B",
"x. c #FB6C27",
"c. c #FF7E22",
"v. c #F97627",
"b. c #E46433",
"n. c #EE6A38",
"m. c #F46834",
"M. c #FD6D35",
"N. c #F46A36",
"B. c #FC713C",
"V. c #FF7035",
"C. c #875B45",
"Z. c #9E5B42",
"A. c #A45F41",
"S. c #B35D42",
"D. c #AE644A",
"F. c #B86849",
"G. c #B56445",
"H. c #CB6740",
"J. c #C76D4B",
"K. c #CB6C4A",
"L. c #C66843",
"P. c #D56B43",
"I. c #DA744C",
"U. c #E66F41",
"Y. c #EA774A",
"T. c #FF7D42",
"R. c #E97E54",
"E. c #F98D0A",
"W. c #FB930D",
"Q. c #FA9C0D",
"!. c #FA8415",
"~. c #FB8D14",
"^. c #FA8719",
"/. c #F68616",
"(. c #FB9313",
"). c #FB9B12",
"_. c #F69518",
"`. c #FBAC01",
"'. c #FAA30D",
"]. c #FBAC0C",
"[. c #FBB404",
"{. c #FCBB06",
"}. c #FCB409",
"|. c #FBB909",
" X c #FAA512",
".X c #F78526",
"XX c #F89A26",
"oX c #F79C2C",
"OX c #F89B28",
"+X c #F68D37",
"@X c #F7A031",
"#X c #FDC403",
"$X c #FECB02",
"%X c #FDCD0C",
"&X c #FFD200",
"*X c #FCCA15",
"=X c #FCD639",
"-X c #EE855E",
";X c #F9B346",
":X c #F29F69",
">X c #F2A97D",
",X c #F7BD6E",
"<X c #FCDF5A",
"1X c #F4C167",
"2X c #F7C673",
"3X c #FBDF72",
"4X c #FBE174",
"5X c #FCE67D",
"6X c #FCEA65",
"7X c #F3AB80",
"8X c #F7CA85",
"9X c #F8D79A",
"0X c #F7D584",
"qX c #FDEA85",
"wX c #FCED96",
"eX c #F9E1A8",
"rX c #FBF0BD",
"tX c #FCF3C7",
"yX c #FCF8D9",
"uX c #FCFCE7",
"iX c #FEFFFC",
/* pixels */
"                                                                                                                                ",
"                                                                                                                                ",
"                                                                                                                                ",
"                                                                                                                                ",
"                                                                                                                                ",
"                                O p 9 9 p p d                                                                                   ",
"                          @ p 1 b k.u.u.u.#.B.c 5                                                                               ",
"                      2 y F x.k.o.X.X.@.@.@.O.u.m.l r                                                                           ",
"                  1 7 F.z.8.E.(.oX@XXXE.W.^.@.X.O.u.M.n r                                                                       ",
"                  I z.8.E._.XX,XuXuXeXOXoXW.W.~.@.X. .u.M.n                                                                     ",
"                , ~ *._._.,XyXrXtXtXtXtX9XOXXX(.(.~.+. ...M.#                                                                   ",
"                L .XE.2XyXtXqX$X%X%X%X%X=XtXeXXX(.~.@.@.O.y.h                                                                   ",
"              o Q %.1XuX5X%X%X$X$X#X#X#X$X%X=XeX(.(.~.~.+.O.M.c                                                                 ",
"              ^ c.E.8XwX$X$X$X$X{.(.(.(.'.#X#X*X#X{.).~.@.+. .M.m                                                               ",
"              T *.1XuX4X$X$X$X$X$X}.(.(.(.(.).W.'.$X#X(.~.~.@...m.h                                                             ",
"            % S.%.8XwX$X$X$X$X|.'.$X#X|.(.(.(.(.(.'.#X(.(.(.@.O.@.m.c                                                           ",
"            A.#.:XuX4X#X$X$X|.(.(.(.].$X#X#X{.(.(.(.).(.(.(.!.>.C b.M.q                                                         ",
"            / { 7XiX4X$X$X&X}.~.(.~.).$X$X$X$X|.(.(.(.|.(.(.~.k.z 1 < - I.N                                                     ",
"            ~ [ >XiX4X$X$X$X}.~.(.(.(.).'.$X$X#X~.-.(.'.{.(.-.O.n.y     g -Xl                                                   ",
"            / [ >XiX3X#X$X$X$X].(.!.;.(.(.].$X#X(.!.>.(.#X(.O.+...n.g     q R.k                                                 ",
"            ! ..v.9XyX<X[.].&X|.~.(.6.;.(.(.'.$X|.(.5.<.Q.|.~.O.O.#.n.b.c   l 2                                                 ",
"            ] #.&.2XiX5X`. X&X#X].(.!.O.;.(.(.'.$X{.~.@.~.'.(./.k.V i $.m.g                                                     ",
"            g a.o..X9XqX`.(.}.&X|.~.(.3.@.(.(.(.'.'.~.@.;.~.<.~.z.0   q.#.n.h                                                   ",
"              Q #.&.8XqX#X X'.&X#X].(.!.>.(.(.(.~.(.~.+.O.>. .x.C.+   p i t.m.f                                                 ",
"              t p.o..X0X6X[.(.}.&X|.(.!.O.1.4.(.(.(.(.5.@.O.O.+.g.8       n T.b                                                 ",
"                I #. .+X;X`.].~.}.$X].~.3.} +.4.(.(.(.~.O.O.+. .o.P.4       N 0                                                 ",
"                d s.+. .=.).}.].~.}.$X].~.4.| @.~.(.(.~.5.7. .+. .u.d     .     G.v                                             ",
"                  D.#.O.@.5.).].(.(.}.$X].~.4.>.(.(.(.(.(.(.5.O.+.@.g.) y       M i                                             ",
"                  d h... .@.:.1.5.(.(.].}.}.!.O.4.(.(.(.(.(.(.5.+.} ..#.0.S R r                                                 ",
"                    g Y.o... .O.@.5.(.~.).].(.4.O.4.(.(.(.(.(.(.8.3.+.} ..#.#.g.G R z                                           ",
"                      z Y a.#.O.O.@.5.~.:.6.6.3.6.O.4.(.(.(.(.(.).).5.4.3.@.} ..#.#.g.Q j                                       ",
"                          f I P.#...@.:.t.D ) ,.3.O.O.4.(.(.(.(.4.4.(.).).5.4.6.@.O...,.H   .                                   ",
"                              g F a.#...q.  > F.+. .+.O.3.~.5.(.3.O.:.4.4.(.).)./.@. .+.w.d                                     ",
"                                  7 ( o.t.O + I u. .O.+.O.~. .4.(.5.O.O.O.:.4.4.5.2.o. .o.f.d                                   ",
"                                .   j z.Z.  i k. .#.o. .@.(.6.O.4.(.5.+.+.O.+.0.` ! Q j...#.G                                   ",
"                                    b b.    d u.u.R E y. .5.(.6.O.4.5.4.@. .,.v       V j.#.Z                                   ",
"                                    d K.V   h l.I X ; u...O.~.(.>.O.O.4.>. .k.k   .     ~ #.A                                   ",
"                                      r G.  j M.N   # H.i.@.7.~.@.O.@.O.....#./ :       ) #.s                                   ",
"                                        ; k t U.l.$   : y.O.O.~.6.@.O.+.d.W ( z.) 6     P l.w.r                                 ",
"                                        i )   0 L.+   # @.O.@.5.(.@.} k.r   % Z.k.L.,     T ,.G                                 ",
"                                                X @ l ; a.#. .O.~.4.-.#.^ O     U k.) l ; b e.F.q                               ",
"                                                  5 B.k e g.#...5.^.(.;.u.Z.9 +   U u.u.L.-   U L                               ",
"                                                  1 e.u.  * w.q.@.| 5.(.3.#.k.A.;   _ o.#.J.7       0 w                         ",
"                                                    3 R.N .   > H.b.@.=.!.;. .k.V   W !.9.k.F   .   H -Xp 0                     ",
"                                                      y R.4     o , a.t.f.^.-.o.^ = E 4._.6.s         C.M.f.u                   ",
"                                                        o           o O * L.u. .k.V I u.8.5.Q 8         N z.U.x                 ",
"                                                                          > f...#.V % w.4._.c.D           B z.g.X               ",
"                                                                            L.#.#.H   G.u.3.5.T O           V K.                ",
"                                                                            , 0.z.B   > ' #.3.7.! -         + 7 2               ",
"                                                                              r.P       X ~ l.y.#.K           a P.              ",
"                                                                              a.J X   2 O + - D.#._ *         O $               ",
"                                                                              * I.b   H.^     X Y z.K                           ",
"                                                                                3 #   G.z.M     X / )                           ",
"                                                                                      - d.Q X     : 2 + O                       ",
"                                                                                        ! z.J         H K.%                     ",
"                                                                                        : p.V.U   .   H z.K                     ",
"                                                                                          3 r J.Y     & ~ w.X O                 ",
"                                                                                              4 0       3 3 V J.                ",
"                                                                                                            1 q                 ",
"                                                                                                                                ",
"                                                                                                                                ",
"                                                                                                                                ",
"                                                                                                                                ",
"                                                                                                                                ",
"                                                                                                                                ",
"                                                                                                                                "
};
