/* XPM */
static char *_59eb2f0753f4dba9c9b41f7006b520868kZI59HSewG3qw8[] = {
/* columns rows colors chars-per-pixel */
"64 64 177 2 ",
"   c None",
".  c #1B1B1B",
"X  c #201E1A",
"o  c #2B2318",
"O  c #252424",
"+  c #2E2A25",
"@  c #2C2B2B",
"#  c #332F2A",
"$  c #372F25",
"%  c #34302A",
"&  c gray19",
"*  c #422D13",
"=  c #4A3112",
"-  c #5B3C15",
";  c #683D05",
":  c #613B15",
">  c #443A2C",
",  c #493B29",
"<  c #6D410C",
"1  c #6F4105",
"2  c #734305",
"3  c #76470C",
"4  c #7B4806",
"5  c #644217",
"6  c #6C4212",
"7  c #69461D",
"8  c #724514",
"9  c #75471B",
"0  c #56442E",
"q  c #4A4033",
"w  c #524535",
"e  c #584835",
"r  c #674523",
"t  c #794C28",
"y  c #604D35",
"u  c #6A5438",
"i  c #7B5F3B",
"p  c #844D07",
"a  c #8B5107",
"s  c #9C5B07",
"d  c #92570E",
"f  c #824E18",
"g  c #81541C",
"h  c #8E5D1F",
"j  c #905D1D",
"k  c #A05C07",
"l  c #9C601B",
"z  c #A96207",
"x  c #B26808",
"c  c #B16607",
"v  c #AA6711",
"b  c #8D5621",
"n  c #8C5938",
"m  c #97672B",
"M  c #86653B",
"N  c #986B36",
"B  c #9F733B",
"V  c #A46C25",
"C  c #AA742E",
"Z  c #B77B2D",
"A  c #A0653B",
"S  c #A77535",
"D  c #B67E38",
"F  c #C47309",
"G  c #CA7609",
"H  c #D67C09",
"J  c #C27318",
"K  c #C87A2C",
"L  c #CB7E3D",
"P  c #A87E4A",
"I  c #BA764B",
"U  c #BC8238",
"Y  c #DB831D",
"T  c #EF8C0B",
"R  c #FF960C",
"E  c #EB8A13",
"W  c #FFA40D",
"Q  c #FFAC0E",
"!  c #FFBF0E",
"~  c #FFB30E",
"^  c #FFAD19",
"/  c #FFBA12",
"(  c #C5822D",
")  c #D68426",
"_  c #C48433",
"`  c #C2863A",
"'  c #C78A3D",
"]  c #CE8D3C",
"[  c #CA8937",
"{  c #D18C3C",
"}  c #DD8631",
"|  c #DC973E",
" . c #D2913E",
".. c #E58A2D",
"X. c #E78D34",
"o. c #EA9B37",
"O. c #E4993B",
"+. c #FA9E32",
"@. c #FFA92A",
"#. c #FFB22B",
"$. c #FEA634",
"%. c #F8A83B",
"&. c #FFB534",
"*. c #FFBC35",
"=. c #FFB03D",
"-. c #FFC316",
";. c #FFDE15",
":. c #FFCA27",
">. c #FFD424",
",. c #FFC538",
"<. c #B78545",
"1. c #BA8645",
"2. c #B28348",
"3. c #C38B43",
"4. c #C98E43",
"5. c #D29241",
"6. c #C88055",
"7. c #E59B41",
"8. c #EA9F42",
"9. c #E19A4B",
"0. c #F39853",
"q. c #FEAA49",
"w. c #FFBB46",
"e. c #FFA053",
"r. c #FFBC51",
"t. c #FFAA68",
"y. c #FFBD6C",
"u. c #FFB664",
"i. c #FFC247",
"p. c #FFDD42",
"a. c #FFD748",
"s. c #FFC552",
"d. c #FFCC56",
"f. c #FFC55B",
"g. c #FFCD5D",
"h. c #FFD952",
"j. c #FFD758",
"k. c #FFE54A",
"l. c #FFEC52",
"z. c #FFE35B",
"x. c #FFF35D",
"c. c #FFC565",
"v. c #FFCB62",
"b. c #FFC36C",
"n. c #FFCE6C",
"m. c #FFDA6C",
"M. c #FFC272",
"N. c #FFCB74",
"B. c #FFCA7B",
"V. c #FFD47B",
"C. c #FFDD7B",
"Z. c #FFE061",
"A. c #FFE777",
"S. c #FFBC84",
"D. c #FFBB8A",
"F. c #FFB49D",
"G. c #FFB6A6",
"H. c #FFBFB3",
"J. c #FFB8B7",
"K. c #FFC38E",
"L. c #FFD786",
"P. c #FFDF84",
"I. c #FFC194",
"U. c #FFCF97",
"Y. c #FFE281",
"T. c #FFCEA6",
"R. c #FFDAA7",
"E. c #FFCDB7",
"W. c #FFD9B6",
"Q. c #FFE2A4",
"!. c #F9B2E9",
"~. c #FFC9C1",
"^. c #FFD6D1",
"/. c #FFC1FF",
"(. c #FFCCFF",
"). c #FFD1FF",
"_. c #FFD3F4",
/* pixels */
"                                                                                                                                ",
"                                                                                                                                ",
"                                                                                                                                ",
"                                                                                                                                ",
"                                                                                                                                ",
"                                                                                                                                ",
"                                                                                                                                ",
"                                                                                                                                ",
"                                                                                                                                ",
"                                                                                                                                ",
"                                                                                                                                ",
"                                                                                                                                ",
"                                                                                                                                ",
"                                                                                                                                ",
"                                                                                                                                ",
"                                                                                                                                ",
"                                                                                                                                ",
"                                                                                                                                ",
"                                                                                                                                ",
"                                                                                                                                ",
"                        4 a s a 1                                                                                               ",
"                    ; F R W ~ Q T x 2                                                                                           ",
"                    x W / / -.-./ Q G < :                                                                                       ",
"                  ; G ^ &.u.y.b.c.r.$.K n t 7 6                                                                                 ",
"                  p J q.F.G.S.M.K.I.y.e.6.I A f                                                                                 ",
"                c s ) F.!.J.N.v.d.v.M.y.t.0.L 9                                                                                 ",
"                  k #.~./.E.m.h.f.f.c.d.b.i.@.l 8 < <                                                                           ",
"                  G >.Q.(.^.P.N.D.D.M.g.h.p.*.{ N V g *                                                                         ",
"                  H ;.x.)._.R.U.H.J.S.g.h.a.w.9.1.` _ V 5 =                                                                     ",
"                  z ! >.L.^.W.P.T.H.I.n.d.w.w.8.7.5.| o.( g *                                                                   ",
"                  4 F W :.z.A.Y.C.V.V.B.s.q.8.=.%.3.2.3.{ Z 7 o X                                                               ",
"                    2 a E :.k.Z.z.l.l.j.i.7.| $.O.1.P P 3.U m , O .                                                             ",
"                        3 Y &.c.s.p.k.p.,.| <.]  .1.2.3.3.' B u q % X .                                                         ",
"                          < J } ..+.=.&.#.o.<.1.4.3.4.4.| O.] U N y $ . . .                                                     ",
"                            < < 8 b I X.Y ) _ D ' 3.3.5.| O.O.+._ M > O . . .                                                   ",
"                                  6 r 9 d v j m C D [ ` ] ] ` ` S u > % @ O . .                                                 ",
"                                        a p < = 5 h V m C Z B M i y 0 % @ O . .                                                 ",
"                                                  3 6 - 7 r 0 e w w > # @ & O . .                                               ",
"                                                          o o + # % + @ @ @ O O . . . . .                                       ",
"                                                              . . . . O @ @ O O . . . . . .                                     ",
"                                                                    . . O @ O . .     . . . .                                   ",
"                                                                      . . . . .       . . . .                                   ",
"                                                                          . .             .                                     ",
"                                                                                                                                ",
"                                                                                                                                ",
"                                                                                                                                ",
"                                                                                                                                ",
"                                                                                                                                ",
"                                                                                                                                ",
"                                                                                                                                ",
"                                                                                                                                ",
"                                                                                                                                ",
"                                                                                                                                ",
"                                                                                                                                ",
"                                                                                                                                ",
"                                                                                                                                ",
"                                                                                                                                ",
"                                                                                                                                ",
"                                                                                                                                ",
"                                                                                                                                ",
"                                                                                                                                ",
"                                                                                                                                ",
"                                                                                                                                ",
"                                                                                                                                "
};
