/* XPM */
static char *_f089a54db734627b085ad2bbfd07d5bFAYJOcDjq4PcDUM4[] = {
/* columns rows colors chars-per-pixel */
"64 64 256 2 ",
"   c #ED3B1A",
".  c #D83A26",
"X  c #E83A27",
"o  c #F83A2A",
"O  c #EB3A36",
"+  c #F73B36",
"@  c #F92B2A",
"#  c #DE4412",
"$  c #ED4C1C",
"%  c #DB4B36",
"&  c #DC5636",
"*  c #D84328",
"=  c #E9482A",
"-  c #F9472B",
";  c #E9542B",
":  c #EC4434",
">  c #ED4C34",
",  c #ED4C3B",
"<  c #E74839",
"1  c #FA4434",
"2  c #F24B34",
"3  c #F3453B",
"4  c #F34C3B",
"5  c #FC4C3C",
"6  c #F84537",
"7  c #E55234",
"8  c #EB5335",
"9  c #EC533B",
"0  c #EE5D3B",
"q  c #E75838",
"w  c #F2523C",
"e  c #F55738",
"r  c #F4542B",
"t  c #DF6638",
"y  c #EB663C",
"u  c #F4663B",
"i  c #EB7E3D",
"p  c #E97639",
"a  c #F57A3B",
"s  c #FA3C44",
"d  c #EF3F41",
"f  c #DE5544",
"g  c #EB4B42",
"h  c #EC4643",
"j  c #F34B43",
"k  c #FA4A46",
"l  c #E85646",
"z  c #F65545",
"x  c #EE5753",
"c  c #F75855",
"v  c #F84B56",
"b  c #DD6F56",
"n  c #EB6B44",
"m  c #F46D43",
"M  c #F66646",
"N  c #EB7D43",
"B  c #EC7847",
"V  c #F47445",
"C  c #F27C44",
"Z  c #FC734B",
"A  c #F47C4A",
"S  c #FB7C4D",
"D  c #F87746",
"F  c #E86758",
"G  c #F76656",
"H  c #EA7958",
"J  c #F77A55",
"K  c #D67A65",
"L  c #EB6765",
"P  c #F96966",
"I  c #E87669",
"U  c #E97B76",
"Y  c #F57572",
"T  c #E25B67",
"R  c #F9B619",
"E  c #F9B212",
"W  c #E9883C",
"Q  c #F5863A",
"!  c #EC9339",
"~  c #F69839",
"^  c #EC932A",
"/  c #FABA29",
"(  c #F7A635",
")  c #F8AC2A",
"_  c #F9CB0B",
"`  c #FCD407",
"'  c #FCCD1B",
"]  c #FBC915",
"[  c #FDD215",
"{  c #FCD31C",
"}  c #FDDC11",
"|  c #FFE91A",
" . c #FACA27",
".. c #FDD225",
"X. c #FBD32C",
"o. c #FAD429",
"O. c #F7CD38",
"+. c #FBD334",
"@. c #FBD43B",
"#. c #F6D639",
"$. c #EDD636",
"%. c #DD8D46",
"&. c #EC8344",
"*. c #EC854B",
"=. c #EA8948",
"-. c #F28345",
";. c #F3834B",
":. c #FB824C",
">. c #F58848",
",. c #F3984A",
"<. c #EA8553",
"1. c #FD8351",
"2. c #F68752",
"3. c #F19552",
"4. c #F5A947",
"5. c #F4AB53",
"6. c #F08E72",
"7. c #F5B56C",
"8. c #DB9A73",
"9. c #FAD747",
"0. c #FECC57",
"q. c #FBDA5B",
"w. c #F9D854",
"e. c #F2CB51",
"r. c #F4E152",
"t. c #FBDB64",
"y. c #FADE6C",
"u. c #F6D968",
"i. c #F7DF7D",
"p. c #F9DC75",
"a. c #F8C773",
"s. c #F8E26A",
"d. c #F9E074",
"f. c #F3E276",
"g. c #EFE475",
"h. c #F97B86",
"j. c #DA9591",
"k. c #E99587",
"l. c #EB9894",
"z. c #FA9A96",
"x. c #F28B8A",
"c. c #EAA498",
"v. c #EFB091",
"b. c #F996A1",
"n. c #EAA8A4",
"m. c #F7A7A5",
"M. c #F9BAB4",
"N. c #EFB6AE",
"B. c #DCAC9A",
"V. c #F9DC86",
"C. c #FDDB98",
"Z. c #F3D092",
"A. c #ECE789",
"S. c #F5E38A",
"D. c #F9E28C",
"F. c #F8E183",
"G. c #F6E396",
"H. c #F9E395",
"J. c #F7E59A",
"K. c #F8E59C",
"L. c #F8EC98",
"P. c #EDEC95",
"I. c #D9CDB7",
"U. c #FBD9A6",
"Y. c #E7C8B7",
"T. c #F9C7B6",
"R. c #F2CBB0",
"E. c #F6E6A3",
"W. c #F8E6A5",
"Q. c #F6E7AD",
"!. c #F7E8AC",
"~. c #FAEBA5",
"^. c #ECEBB6",
"/. c #F5E9B4",
"(. c #F6EABC",
"). c #F9EBBD",
"_. c #FAE5B5",
"`. c #F8F3BA",
"'. c #ECECAB",
"]. c #DCD78E",
"[. c #FABCC1",
"{. c #D9DAD5",
"}. c #EAC9C3",
"|. c #FBC9C7",
" X c #EBD5C8",
".X c #F9D7CB",
"XX c #E6DCD9",
"oX c #FAD9D6",
"OX c #F6CED7",
"+X c #D9E8DD",
"@X c #DCF1D6",
"#X c #E8EAC6",
"$X c #000000",
"%X c #000000",
"&X c #000000",
"*X c #000000",
"=X c #000000",
"-X c #000000",
";X c #000000",
":X c #000000",
">X c #000000",
",X c #000000",
"<X c #000000",
"1X c #000000",
"2X c #000000",
"3X c #000000",
"4X c #000000",
"5X c #000000",
"6X c #000000",
"7X c #000000",
"8X c #000000",
"9X c #000000",
"0X c #000000",
"qX c #000000",
"wX c #000000",
"eX c #000000",
"rX c #000000",
"tX c #000000",
"yX c #000000",
"uX c #000000",
"iX c #000000",
"pX c #000000",
"aX c #000000",
"sX c #000000",
"dX c #000000",
"fX c #000000",
"gX c #000000",
"hX c #000000",
"jX c #000000",
"kX c #000000",
"lX c #000000",
"zX c #000000",
"xX c #000000",
"cX c #000000",
"vX c #000000",
"bX c #000000",
"nX c #000000",
"mX c #000000",
"MX c #000000",
"NX c #000000",
"BX c #000000",
"VX c #000000",
"CX c #000000",
"ZX c #000000",
"AX c #000000",
"SX c #000000",
"DX c #000000",
"FX c #000000",
"GX c #000000",
"HX c #000000",
"JX c #000000",
"KX c #000000",
"LX c #000000",
"PX c #000000",
"IX c #000000",
"UX c #000000",
/* pixels */
"pXmXGXmXdXzXjX=XVXVXbXbXLXLXGXCXAXpXkX@XFXPXdXkXDXiXrXtXtXGXPXBXFXCXbXuXdXmXCXhXGXGXpXpXpXpXtXuXGXGXdXpXpXpXpXpXpXGXdXpXGXmXpXGX",
"KXlX-XXXeXmXPXPXKXGXzXtXeXeXtXsXsXoXl.:XpXnXiXaXeXHXPXLXPXpX-XkX4XfXHXHXGXGXbXpXeXeXpXmXGXUXGXGXeXuXuXtXGXGXPXHXdXpXuXpXpXmXGXGX",
"DXFXvXvX8X7XpXLXPXPXGXpXyXwXuXuXKXoXT |.wXBX9X3XMXPXFXFXUXdXXXeX-XrXjXJXIXUXdX3XwXuXpXGXUXPXHXGXwXwXuXpXGXPXUXUXGXwXwXuXwXmXUXGX",
"MXdXtXtX=X=X>XcXzXzXjXpXrXrXpXmX0XVX4XzXpX4X+XzXCXCXLXLXbX7XrXhXpXCXUXJXCXpXtXtXtXpXpXGXGXGXGXdXtXpXpXpXdXmXGXGXGXpXpXpXpXdXGXmX",
"eXtXtXmXPXPXNX6XiXvXCXDXIXDXDXFXBXyXGX+XCXPXPXFXkX-XgXLXAXFXJXfXPXBXuX3X2XuXjXjXGXGXmXtXeXuXpXmXGXGXGXGXtXuXpXpXpXGXGXGXGXpXuXuX",
"7XCXUXUXUXCXwX{.M.M.n.n.N.M.T.|.I. X#X=XZXIXLXSXBXOXn.j.R.:XHXPXDXVXiXyXyXpXzXJXUXPXGXpXwXwXeXpXUXUXUXGXpXwXwXuXpXUXUXHXUXpXXXuX",
"-X XN.k.I l , : * = X - - - $ # 3 c v Y k.m..XfXqXhXR.H < j Y b.Y. XlXJXiX7XpXPXGXGXmXpXpXpXpXtXGXGXGXmXpXpXuXuXpXGXGXGXGXpXtXpX",
".XN.j.l.z.z.z.k.6.P x g g z G J n y 5 : = o % x Y c..XM.T + - # s x U N.fXUXLX2XuXeXpXpXGXHXGXGXpXeXuXtXGXGXGXGXGXuXtXpXeXdXUXGX",
"PXLXCXXXN.k.6.6.k.c.6.7 k v % a *.;.;.;.V y q 7 o d h 2 r 4 j j j ; : = G m.Y.SX0XiXrXIXPXsXKXjXeXtXwXwXGXUXHXUXGXuXwXuXeXGXUXGX",
"hXJXxX|.l.L h @ O 3 z < j 1 = q &.&.&.-.:.S S Z y 8 > 3 h j w 8 ; r c 2 = l F b.,X4XyXmXKXUXMXhXuXtXpXpXGXGXGXGXmXpXeXuXpXmXGXGX",
"9XiXpXGXUXKX.Xj.l 1 6 f G u D J ;.-.&.N -.1.1.S Q a m x j r ; < j e Z D 8 O o k c  XKXsXsXgXFXCXGXGXGXGXtXpXdXpXpXGXmXmXGXpXtXpX",
"2XPXPXLXvXVXGXdX XK 7 9 l & V S A ;.-.i i &.-.N A -.:.A V u 0 z z ; a >.J G e $ h 3 v.@XuXmXXXAXUXHXUXGXuXuXpXwXpXGXPXHXPXpXwXwX",
"-X=XkXZXUXKXpX+XbX=Xk.X e 4 o 8 y V :.-.&.&.-.-.-.N &.>.>.A Z Z a y A *.=.;.B & c = X k.8XbXiXdXGXGXGXGXrXuXpXuXpXGXGXGXGXpXwXuX",
"HXfXpXpXgXgXmXDXMXLXUXk.= 1 c O 8 u V A -.&.>.>.) =.H C Q -.;.*.>.;.>.C i Q J V 7 z 5 @ U CXmX>XpXpXpXpXpXjXGXGXpXdXpXtXpXdXdXGX",
"AXvXyXyXnXnXmXPXHXBXSXrX6.. & z 4 , 0 V ;.-.-.-.R ( ,.Q i Q &.*.&.B Q a Q ~ ;.:.p : , 0 + h.KX+XwXuXuXrXGXUXUXUXmXpXuXuXeXmXPXPX",
"IXzXaX-X=X9XkXKXGXJXuXBX4XL 1 8 k : > m S ;.-.N ! R ` R =.I J a Q H C >.( E W A Z y % k : = z.IXuXpXuXuXGXUXGXUXGXuXwXeXuXGXUXGX",
"pXpXGXdXpXmXpXpXbX#XN.CXIX[.: 5 9 , 3 w Z ;.&.&.&.^ ` `  .R ^ ! <.^ ! ( ] ] ~ J W Z 4 < q 6 j M.kXDXz.8.IX5XsXtXuXdXGXGXmXmXpXrX",
"wXpXGXHXHXGXpXwXAXk.N.cXPXGXF r 9 4 3 w V >.&.&.J &.R _ { ] ] / R E R _ ` ` ^ A =.;.z , l 5 3 6.UXPXk.< @X8XrXnXzXtXkXJXLXuXeXdX",
"wXpXHXPXPXGXpXwXnXP c.ZXMXPXv.  9 4 3 9 m ;.-.C J A ~ E ` ` ` [ ` ` ` ` ` _ ) H &.*.V 9 w 5 : % m.UX XM.uX7XfX4XtXlXKXJXjXpXgX4X",
"dXmXdXdXpXpXdXGXXX2 N.qX:XJXM.< , 4 3 8 m ;.;.C a -.*.R ` _ ` ] _  .' _ ' { ) J A *.2.8 6 4 4 : b ZXCXzX7XjXcXj.+XdXHXdXrXhXCXnX",
"PXdXuXeXuXuXdXUXR.  x.AXqX8XY.z 4 4 3 8 V ;.-.A Q -.H ( { ' [ ' _ ' ' _ { [ E C D &.;.0 1 3 z 5 g |.VX XkXOX:XfXhXyX2X2XeXhXZXIX",
"UXpXeXpXeXuXpXUXn.$ k N.qXnXY.= 4 4 4 0 C >.-.A *.;.H !  .[ [ ' ` _ [ _ [ { ) V :.i &.u 5 4 9 2 + x.qX3XjXN.U R.lXpXyX3XeXxXHXPX",
"pXpXdXmXpXtXpXGX[.o 2 l c.|.Y * 4 3 w M ;.>.&.;.<.;.S &./ ` ' ' ] _ .. .[ ..~ H >.-.&.y 6 k q > r L aX0XAXUXx.* l.|.GXvXuXfXHXgX",
"wXpXGXGXGXGXmXpXOXx 7 o > O   z 4 3 9 m >.=.&.:.N a Q N / }  ...X.[ ..X.` [ ( N %.-.>.V : k g w & v xXqXdX4X#XM . 6.:XIXFXeXeXbX",
"=XuXPXMXKXcXrXvXFXx.< > M q 8 9 f M D -.&.&.-.S S S N ! / ..' X. ...' { +.[ ! A -.i *.C 8 5 > 9 k - .XSX-XwXLX8.1 3 F ,XNXBX@XyX",
"kXuXPXmXGXzXGXuXnX:Xl o > G J a Z Q ^ N H J -.i B N =.(  .{ [ {  ...' { X.' ! C -.&.*.S q 4 3 9 < o N.SXgXCXvXc.1 , 9 k.LXAX-XpX",
"GXGXpXyX8X7XGXHXCXIXT.< 5 z n ,.Q B <.=.2.H <.! ! ! 4.O.X.{ { .. .......O.' ! V -.&.*.A M : 4 4 z + j.0XMXIXSXM.2 j > 3 I.IXHXHX",
"PXZXXXeXVX7XmXUXcXbXIXm.X 2 u p Q B H (  . ./ /  . .O.@.X.o.+.O.X.X...o.O...,.A -.&.*.;.Z = 4 3 , - P tXCX0XSXz.7 + , 1 I zXIXPX",
"PXmXrXzX4XaXJXhXzXmXBXFXc.5 = z A :.-.W ) | | O.o...o.+.o.X.@.@.+.X.X.X.O...,.B ;.*.&.;.S 7 w 2 j = 5 R.DXAXHXG 7 + l e + }.SXGX",
"iX4XDXkXx.m.kXuXAX-X:XCXIXc., 3 g m ;.H <.4.@.9.@.O.+.+.+.X.X.X.+.+.X.+.O.o.4.B ;.;.&.;.S y 9 2 c 2 = b :XaXb.< 3 > 9 7 + j.pXCX",
"+X2XIX XO l Y.mX6X+XkXPXyXSXM.l = 8 m :.:.*.4.+.9.@.#.@.@.+.X.X.@.O.+.#.O.o.4.N A ;.-.;.;.V 8 3 < 6 l % H K g j j ; 8 < 5 b eXpX",
"-XqXDXM.1 o 6.BX+XmX2X9XIXNXHXR.x h : u C &.! ~ +.+.+.+.9.9.9.9.9.@.@.@.9.X.5.&.A ;.-.;.;.1.7 4 2 k z 4 o - - g h r ; k 4 l >X4X",
"PXjXaX7XL   P IXxXhXAX0X8XaXaXpXbXF - j & Q >.H ~ 0.9.$.#.@.9.9.#.O.9.@.$.9.0.W -.-.&.&.=.A M z 4 4 4 j g , , , 2 w j ; j 5  XIX",
"PXhXwXmXn.O c.PXbXHX X XjX8XyXgXJX,Xx.g > - e 2.=.! 4.w.#.$.9.9.#.9.9.9.$.9.0.4.N ;.C i &.>.S y = > > 4 j w , > > 9 h ; 4 6  XUX",
"GXfX8XfX>Xl.:XGXLXzXkXl.x.cX{.DXdXUXJXc.x 9 2 y n :.i ! 0.w.#.#.#.9.w.9.#.9.w.5.&.>.1.A ;.;.-.i z e 2 6 6 4 4 4 0 8 3 8 4 + }.UX",
"rXdXGXhXGXUXHX=XkXuXnXZX6.c  XpXiXeXgXSXY.G 7 < 4 M A &.! 4.w.r.9.9.w.w.9.9.w.0.5.=.N S S A N &.S m u 8 e e 0 y V 0 j r 4 O Y.LX",
"eX9XNXqXDXUX7X-X:X{.BXIXcXb s k.XX-XFX1XHXT.< k 6 > n Z V W 5.s.w.w.w.w.w.w.w.w.0.4.p C S 1.A ;.=.=.*.A A A *.<.1.y 3 r j : }.bX",
"uXdXfXFXUXOXXXtXgX7XiXbXUX.Xl   L }.4X-XJXHXc.o e 2 : w J *.%.7.q.q.w.q.q.q.w.w.q.0.4.W N A A S *.;.-.;.-.;.>.>.>.y 3 2 g j  XbX",
"AXfX=XiXHXn..XAX0XPXrXmX6XMX6.; = s z.&X9XFX[.& > : z z 7 B >.3.t.t.q.w.q.t.q.q.w.q.0.5.%.W &.-.D C a i i C a a ;.y j 2 g z :XDX",
"IXkXoXqX:XU N.UXHXzXHX3XVXhXY.d 2 M . Y 3XFX.Xl 6 4 9 = e Z a =.u.t.q.w.q.t.t.u.s.t.t.y.y.7.5.,.3.3.,.5.5.5.3.&.*.y k 2 g c xXIX",
"GXjXsX7XCXL 6.IXxXIXGXrXMXyX@Xc 2 e 1 3 F v.6.3 5 2 7 7 8 Z :.-.e.y.y.u.s.y.u.t.u.u.u.t.s.s.s.s.y.s.y.t.g.p.=.C <.u , 5 = U DXfX",
"mXjXlXbXGXF b fXFXyXJXsXfXDXtXI X 7 0 5 O g l w % 9 z 4 9 m ;.*.e.y.y.u.s.s.u.y.u.u.y.u.y.y.y.y.u.s.y.t.g.p.=.C <.u < 5 = k.DXfX",
"uXiXHXUXJXG * M.DX3X8XqXZXIXHXx.6 8 n Z e z 6 1 & j 6 1 z Z S D u.p.p.u.d.d.u.p.d.y.y.y.y.y.y.y.u.g.d.y.g.a.&.C ;.u 7 5 1 N.vXaX",
"eXvXKXGXlXP X I oXCX2XPXPXNXKXY O : V *.p y w w 1 1 O > V 2.=.=.u.p.p.p.d.d.p.d.d.d.p.d.p.p.p.p.p.f.d.p.d.a.&.A -.0 8 2 v  XyXwX",
"dXVXzXtXrXP - < z.ZXqXnXBXqX@Xz k 7 p -.:.1.V n u m B A ;.N =.5.i.F.i.i.i.i.i.i.i.i.i.i.i.i.i.i.i.f.f.i.F.7.-.C C q w * Y jXGXpX",
"HXVXtXrX=XL 5 > q n.zXZXZXXX6.o < 7 V :.3.=.N Z N *.&.:.D C 5.p.F.F.F.V.V.V.F.F.F.F.F.F.F.F.F.F.V.A.F.V.D.7.-.A V 9 4 % m.DXIXGX",
"KXSXuXtXhXh.: e ; g P U I c O 2 z 0 V ;.a.V.7.3.1.-.C >.3.7.V.L.S.S.D.D.D.D.D.S.S.S.S.S.D.D.S.S.V.S.S.F.V.5.C S u j 1 F  XLXIXHX",
"xXDXuXsXDXb.. 0 D t + - = 1 l 8 o m =.N 7.L.P.A.S.V.V.V.A.P.L.V.S.V.S.D.D.D.D.S.D.D.D.D.D.D.D.D.V.A.S.V.V.3.C :.y j + 6.jXNXVXzX",
"yXgXjXUXFX X3 $ y 1.m 7 l + k 9 8 B 1.m 5.L.P.C.H.H.H.H.H.H.H.H.H.H.H.H.H.H.H.H.G.G.G.G.G.G.G.G.U.G.S.D.V.;.a W % - f oXUXuX-XsX",
"iXaXJXMXLXxXF - y =.%.1.0 n t e :.;.&.p 7.K.G.C.G.G.G.G.G.G.G.G.K.K.K.K.K.K.K.K.J.J.J.J.J.J.J.J.P.K.C.L.7.*.1.t z . m.HXUX7XrXeX",
"iXrXzXgXNXUXl.o 2 Z 2.C C ;.;.D a p i =.a.~.P.W.J.J.J.J.J.J.J.J.K.K.K.K.K.K.K.K.E.E.E.E.E.E.E.E.L.C.E.~.%.N J , o K fXdXzXjXiXpX",
"mXZX-XuXNXrX Xx 9 y -.p 3.2.C :.=.;.5.a.K.~.E.'.W.W.W.W.W.W.W.W.W.W.W.W.W.W.W.W.W.W.W.W.W.W.W.W.~.J.`.Z.&.-.y s g .XFXXX=XJXLXDX",
"PXZX+X9XnXXXkXn.O 8 B 2.3.G.P.C.Z.Z.U.!.!.W.U._.!.!.!.!.!.!.!.!.Q.Q.Q.Q.Q.Q.Q.Q.Q.Q.Q.Q.Q.Q.!.!.'./._.6.&.p = k v.GX1XmX-XdXPXDX",
"PXrXjX9XpXgXZXsXL + u *.V 7.'._.$X).).^.^._._./././././././././././././././././././././././././._.`.Z.<.a   z c.kXiXnXmXtXdXMXCX",
"gX7XHXpXCXHXpXGX[.v + u S B v.`._._._./.^./.(.^.(.(.(.(.(.(.(.(.(.(.(.(.(.(.(.(.(.(.(.(.(.(.(.(.&XU.8.m 5 g l.=XVXdXHXiXLXfXeXbX",
"3XhXHXMXKXJXeX3XrXI.f - p Z J 8.`.`./.`._._.&X$X).).).).).).).).).).).).).).).).).).).).).(.$X$X*Xv.N o + N.9X6X6XfXcXDXNXtX+XpX",
"uXtXGXGXGXGXdXpXnXZXY.x o u -.p ].E.`.$X:X:X&X`.*X%X$X$X$X$X$X*X$X$X$X$X$X%X%X%X$X<X#X%X&X&X%X,Xa.V + Y |.9X8X2XpXUXGXGXGXpXwXpX",
"GXpXpXpXpXtXpXGXmXdXkX#X6.6 5 *.Z v.&X>X<X(.#X<X%X%X*X*X*X*X%X$X%X%X*X*X*X*X%X%X&X&X&X&X#X*X&XR.3 F B.-XJXIXHXPXpXpXpXtXpXmXGXGX",
"UXpXuXwXwXwXpXUXZXPXBXqXrXn.F q u A 6.R.,XcX:X.X;X%X%X%X%X;X;X,X;X;X;X;X;X;X;X;X:X,X;X@X>X&Xv.b n.}.tXZXmXdXzXJXGXwXwXyXwXpXUXGX",
"PXmXpXuXeXuXpXGXHXCXAXnXyXGX:Xc.P e r a v.^.>XzX,X;X;X;X;X;X,X,X,X,X;X;X;X;X,X,XlX,X;X:X.XB.B.&X9XhXpXyXbXUXUXxXGXpXpXpXuXpXGXGX",
"pXdXGXGXGXGXmXpX3XGXbXaXMXHXCXIX8X Xz.J S 3.v. X:X:XlXlXlXlXsX-XsXlXlXlXlXlXlXsX>X>XlX:XoXfXUX+XMXHXGXbXbXCXiX+XuXGXGXGXGXpXpXdX",
"wXpXPXPXPXUXmXwX0X{.aXKXKXZXCXnXwXbXbXpXeX.XT.T.-X-XtXsXlXzXzXzXzXzXdXtXtXdXzXHXJXjXjXiX8X7X2X5XzXJXHXMXaX3XrXVXuXUXUXGXUXpX3XuX",
"uXpXGXGXGXGXmXpXuXpXrXtXHXKXGXPXFXpX-XeXPXIXIXZXeXeXwXwXtXpXGXUXHXGXtXuXuXtXGXHXpXPXMXuXvX8X8XCXZXJXHXGXjXuX2X4XmXGXHXGXGXtXuXeX",
"mXpXpXpXpXpXpXGXfXMXmXhXpXgXdX9XaXjXFXVXdXaXrXqXzXzXzXpXbXbXbXbXpXpXGXGXGXmXbXbXPXyX8XCXmXfXfXdXmXdXpXtXpXjXCXCXGXpXdXGXpXpXGXdX"
};
