/* XPM */
static char * Holy_VFX_02_4_xpm[] = {
"64 64 109 2",
"  	c #000000",
". 	c #FED64A",
"+ 	c #FED431",
"@ 	c #FFF2D7",
"# 	c #FFFFFF",
"$ 	c #FDCD35",
"% 	c #FED64B",
"& 	c #FCBF00",
"* 	c #FDCD2E",
"= 	c #FED64C",
"- 	c #FC9311",
"; 	c #FCB503",
"> 	c #FDCF30",
", 	c #FC9211",
"' 	c #FDCF2E",
") 	c #FED648",
"! 	c #FED42B",
"~ 	c #FC9011",
"{ 	c #FCB405",
"] 	c #FDCE1C",
"^ 	c #FED100",
"/ 	c #FFF1D5",
"( 	c #FCB70B",
"_ 	c #FDC500",
": 	c #FEDF8E",
"< 	c #FFF3DB",
"[ 	c #FFF1D6",
"} 	c #FFFBF2",
"| 	c #FCC906",
"1 	c #FDCF00",
"2 	c #FFE8AF",
"3 	c #FFFFFE",
"4 	c #FED64D",
"5 	c #FCC607",
"6 	c #FDCD00",
"7 	c #FEE6A9",
"8 	c #FCC806",
"9 	c #FDCE00",
"0 	c #FFE7AD",
"a 	c #FCC308",
"b 	c #FDCB00",
"c 	c #FEE4A3",
"d 	c #FFFEFB",
"e 	c #FFFCF6",
"f 	c #FFFEFC",
"g 	c #FC9810",
"h 	c #FCB800",
"i 	c #FDD146",
"j 	c #FEDA6D",
"k 	c #FED85E",
"l 	c #FDCE1E",
"m 	c #FED42F",
"n 	c #FED200",
"o 	c #FC9210",
"p 	c #FCB603",
"q 	c #FC920F",
"r 	c #FCB400",
"s 	c #FDCE02",
"t 	c #FCB100",
"u 	c #FC8B00",
"v 	c #FED24B",
"w 	c #FCA124",
"x 	c #FCB600",
"y 	c #FDCF2F",
"z 	c #FED32A",
"A 	c #FED646",
"B 	c #FDD251",
"C 	c #FCBD53",
"D 	c #FCA158",
"E 	c #FED54D",
"F 	c #FDCA2A",
"G 	c #FDCB2B",
"H 	c #FEEFCD",
"I 	c #FFFCFC",
"J 	c #FFF9F6",
"K 	c #FFFEFE",
"L 	c #FED739",
"M 	c #FECF05",
"N 	c #FDAC00",
"O 	c #FCCB00",
"P 	c #FED74D",
"Q 	c #FFFCF5",
"R 	c #FFF4DE",
"S 	c #FEE4AD",
"T 	c #FDC6A8",
"U 	c #FDD5AC",
"V 	c #FDDE91",
"W 	c #FED541",
"X 	c #FED42E",
"Y 	c #FFF4DF",
"Z 	c #FFF5E1",
"` 	c #FEF1D8",
" .	c #FEE9D3",
"..	c #FEE1D3",
"+.	c #FFFCFB",
"@.	c #FFF1D4",
"#.	c #FED42C",
"$.	c #FED32B",
"%.	c #FED42D",
"&.	c #FCA159",
"*.	c #FCBD56",
"=.	c #FDD354",
"-.	c #FED649",
";.	c #FED430",
">.	c #FDCF2A",
",.	c #FC9200",
"'.	c #FCBA00",
").	c #FDCB04",
"!.	c #FDCD34",
"                                                                                                                                ",
"                                                                                                                                ",
"                                                                                                                                ",
"                                                                                                                                ",
"                                                      . + @ # # # # @ + .                                                       ",
"                                                    $ % + @ # # # # @ + % $                                                     ",
"                                                  & * = + @ # # # # @ + = * &                                                   ",
"                                                - ; > % + @ # # # # @ + % > ; -                                                 ",
"                                                - ; > % + @ # # # # @ + % > ; -                                                 ",
"                                                - ; > % + @ # # # # @ + % > ; -                                                 ",
"                                                - ; > % + @ # # # # @ + % > ; -                                                 ",
"                                                - ; > % + @ # # # # @ + % > ; -                                                 ",
"                                                - ; > % + @ # # # # @ + % > ; -                                                 ",
"                                                - ; > % + @ # # # # @ + % > ; -                                                 ",
"                                                - ; > % + @ # # # # @ + % > ; -                                                 ",
"                                                , ; ' ) ! @ # # # # @ ! ) ' ; ,                                                 ",
"                                                ~ { ] ! ^ / # # # # / ^ ! ] { ~                                                 ",
"                                                ( _ : < [ } # # # # } [ < : _ (                                                 ",
"                                                | 1 2 # # # 3 # # 3 # # # 2 1 |                                                 ",
"                                  4 4           5 6 7 # # # # # # # # # # 7 6 5                                                 ",
"                                  4 4 4         5 6 7 # # # # # # # # # # 7 6 5                                                 ",
"                                  4 4 4         5 6 7 # # # # # # # # # # 7 6 5                                                 ",
"                                  4 4 4         8 9 0 # # # # # # # # # # 0 9 8                                                 ",
"                                  4 4 4         a b c d e f # # # # f e d c b a                                                 ",
"                                  4 4 4         g h i j k < # # # # < k j i h g                                                 ",
"                                  4 4 4         ~ { l m n / # # # # / n m l { ~                                                 ",
"                                  4 4 4         - ; > % + @ # # # # @ + % > ; -                                                 ",
"                                  4 4 4         - ; > % + @ # # # # @ + % > ; -                                                 ",
"                        4 4 4         4         - ; > % + @ # # # # @ + % > ; -                                                 ",
"                      4 4 4 4 4                 - ; > % + @ # # # # @ + % > ; -                                                 ",
"                      4 4 4 4 4                 - ; > % + @ # # # # @ + % > ; -                                                 ",
"                      4 4 4 4 4                 - ; > % + @ # # # # @ + % > ; -                                                 ",
"                      4 4 4 4 4                 - ; > % + @ # # # # @ + % > ; -                                                 ",
"                      4 4 4 4 4                 - ; > % + @ # # # # @ + % > ; -                                                 ",
"                      4 4 4 4 4                 - ; > % + @ # # # # @ + % > ; -                                                 ",
"                      4 4 4 4 4                 - ; > % + @ # # # # @ + % > ; -                                                 ",
"                      4 4 4 4 4                 - ; > % + @ # # # # @ + % > ; -                                                 ",
"                      4 4 4 4 4                 - ; > % + @ # # # # @ + % > ; -                                                 ",
"                      4 4 4 4 4                 - ; > % + @ # # # # @ + % > ; -                                                 ",
"                      4 4 4 4 4                 - ; > % + @ # # # # @ + % > ; -                                                 ",
"                      4 4 4 4 4                 - ; > % + @ # # # # @ + % > ; -                                                 ",
"                      4 4 4 4 4                 - ; > % + @ # # # # @ + % > ; -                                                 ",
"                      4 4 4 4 4                 - ; > % + @ # # # # @ + % > ; -                                                 ",
"                      4 4 4 4 4                 - ; > % + @ # # # # @ + % > ; -                                                 ",
"                      4 4 4 4 4                 - ; > % + @ # # # # @ + % > ; -       # # # # # #                               ",
"                      4 4 4 4 4                 - ; > % + @ # # # # @ + % > ; -           # # # # #                             ",
"                      4 4 4 4 4                 - ; > % + @ # # # # @ + % > ; -           # # # # # #                           ",
"                        4 4 4                   - ; > % + @ # # # # @ + % > ; -           # # # # # # #                         ",
"                                                - ; > % + @ # # # # @ + % > ; -               # # # # #                         ",
"                                                - ; > % + @ # # # # @ + % > ; -               # # # # #                         ",
"                                                - ; > % + @ # # # # @ + % > ; -               # # # # #                         ",
"                                                - ; > % + @ # # # # @ + % > ; -               # # # #                           ",
"                                                - ; > % + @ # # # # @ + % > ; -           # # # #                               ",
"                                                o p > % + @ # # # # @ + % > ; -         # # # #                                 ",
"                                                q r > % + @ # # # # @ + 4 s t u         # # # #                                 ",
"                                              v w x y % + @ # # # # @ z A B C D         # # #                                   ",
"                                          4 4 4 E F G % + @ # # # # / ^ ^ H I J K # # #                                         ",
"                                            L M N x O P + @ # # # # Q R R 3 # #                                                 ",
"                                              S T U V W X @ # # # # Q Y Z `  ...                                                ",
"                                              # +.# @.#.$.@ # # # # / n %.6 t u                                                 ",
"                                                &.*.=.-.;.@ # # # # @ ! ) >.r ,.                                                ",
"                                                  '.).P + @ # # # # @ + = * &                                                   ",
"                                                    !.% + @ # # # # @ + % !.                                                    ",
"                                                      . + @ # # # # @ + .                                                       "};
