/* XPM */
static char * Holy_VFX_02_3_xpm[] = {
"64 64 80 1",
" 	c #000000",
".	c #FFFFFE",
"+	c #FFFFFF",
"@	c #FFFAEF",
"#	c #FFFEFC",
"$	c #FED64D",
"%	c #FED64A",
"&	c #FED432",
"*	c #FFF1D6",
"=	c #FFFCF6",
"-	c #FEDA6C",
";	c #FED435",
">	c #FCC500",
",	c #FDCC30",
"'	c #FED74F",
")	c #FED431",
"!	c #FFF2D7",
"~	c #FEDA6D",
"{	c #FED434",
"]	c #FDCC2E",
"^	c #FED430",
"/	c #FED433",
"(	c #FCC200",
"_	c #FDC900",
":	c #FED536",
"<	c #FED42E",
"[	c #FED200",
"}	c #FFF1D5",
"|	c #FED85F",
"1	c #FCCB51",
"2	c #FDD15D",
"3	c #FEDA6E",
"4	c #FEDA6B",
"5	c #FED85E",
"6	c #FFF3DB",
"7	c #FFFCF7",
"8	c #FEDD82",
"9	c #FFFBF5",
"0	c #FFFBF6",
"a	c #FED32A",
"b	c #FED100",
"c	c #FED85B",
"d	c #FFF6E1",
"e	c #FFF5DF",
"f	c #FFF6E4",
"g	c #FEF0DD",
"h	c #FEF2DF",
"i	c #FFF5E0",
"j	c #FFF2D8",
"k	c #FFFBF2",
"l	c #FEEFD5",
"m	c #FEEDD3",
"n	c #FDCC28",
"o	c #FED64B",
"p	c #FED546",
"q	c #FCC400",
"r	c #FED64C",
"s	c #FED64E",
"t	c #FEECD1",
"u	c #FEF0D9",
"v	c #FFF0CF",
"w	c #FED545",
"x	c #FED328",
"y	c #FED64F",
"z	c #FEE9B6",
"A	c #FED540",
"B	c #FEE6AC",
"C	c #FED209",
"D	c #FFFDF9",
"E	c #FEE7B1",
"F	c #FED541",
"G	c #FFFCF5",
"H	c #FED436",
"I	c #FDD03D",
"J	c #FED651",
"K	c #FED648",
"L	c #FED20F",
"M	c #FFF5E2",
"N	c #FEDC78",
"O	c #FED31A",
"                                                                ",
"                                                                ",
"                                                                ",
"                                                                ",
"                                                                ",
"                                                                ",
"                                                                ",
"                                                                ",
"                                                                ",
"                          .+++++++++++++                        ",
"                         @+++++++++++++#                        ",
"                   $$$$%&*+++++++++++++=-;$$$                   ",
"                 >,'$$$%)!+++++++++++++=~{$$',>                 ",
"                 >]'$$$%^!+++++++++++++=~/$$']>                 ",
"                 >]'$$$%^!+++++++++++++=~/$$']>                 ",
"                 >]'$$$%^!+++++++++++++=~/$$']>                 ",
"                 >]'$$$%^!+++++++++++++=~/$$']>                 ",
"                 >]'$$$%^!+++++++++++++=~/$$']>                 ",
"                 (_:{//<[}+++++++++++++=|[/{:_(                 ",
"                 123~~~456+++++++++++++78|~~321                 ",
"                 90======#+++++++++++++.7====09                 ",
"                 ++++++++++++++++++++++++++++++                 ",
"                 ++++++++++++++++++++++++++++++                 ",
"                 ++++++++++++++++++++++++++++++                 ",
"                 ++++++++++++++++++++++++++++++                 ",
"                 ++++++++++++++++++++++++++++++                 ",
"                 !}6#++++++++++++++++++++++++++                 ",
"                 abc=++++++++++++++++++++++++++                 ",
"                 abc=++++++++++++++++++++++++++                 ",
"                 def++++++.++++++++++++++++++++                 ",
"                 ghij!!!}k+++++++++++++#6}!!!lm                 ",
"                 (_/)^^ab}+++++++++++++=5[^)/_(                 ",
"                 >no%%%pa!+++++++++++++=4<%%on>                 ",
"                 >]'$$$%^!+++++++++++++=~/$$']>                 ",
"                 >]'$$$%^!+++++++++++++=~/$$']>                 ",
"                 >]'$$$%^!+++++++++++++=~/$$']>                 ",
"                 >]'$$$%^!+++++++++++++=~/$$']>                 ",
"                 >]'$$$%^!+++++++++++++=~/$$']>                 ",
"                 >]'$$$%^!+++++++++++++=~/$$']>                 ",
"                 >]'$$$%^!+++++++++++++=~/$$']>                 ",
"                 >]'$$$%^!+++++++++++++=~/$$']>                 ",
"                 >]'$$$%^!+++++++++++++=~/$$']>                 ",
"                 >]'$$$%^!+++++++++++++=~/$$']>                 ",
"            $$$  >]'$$$%^!+++++++++++++=~/$$']>                 ",
"           $$$$$ q]'$$$%^!+++++++++++++=~/$$']>                 ",
"           $$$$$ q]'$$$%^!+++++++++++++=~/$$']>                 ",
"           $$$$$ q]'$$$%^!+++++++++++++=~/$$']>                 ",
"            $$$  >]'$$$%^!+++++++++++++=~/$$']>                 ",
"                 >]'$$$%^!+++++++++++++=~/$$']>                 ",
"                 >]'$$$%^!+++++++++++++=~/$$']>                 ",
"                 >]'$$$%^!+++++++++++++=~/$$']>                 ",
"                 >]'$$$%^!+++++++++++++=~/$$']>                 ",
"                 >]'$$$%^!+++++++++++++=~/$$']>                 ",
"                 >]'$$$%^!+++++++++++++=~/$$']>                 ",
"                 >]'$$$%^!+++++++++++++=~/$$']>                 ",
"                 >nr$$$%^!+++++++++++++=~/$$']>                 ",
"                 (_:os$%^!+++++++++++++=~/$$']>                 ",
"                 tuvwxy%^!+++++++++++++=~/$$']>                 ",
"                 +++z3A%^!+++++++++++++=~/$$']>                 ",
"                +++++BC%^!+++++++++++++=~/$$']>                 ",
"             ++++++++BC%^!+++++++++++++=~/$$']>                 ",
"           ++++++++DE-F%/}+++++++++++++G4H$$sI                  ",
"           ++++++++GF[JKLM+++++++++++++DNO$$$                   ",
"                         +++++++++++++++                        "};
