/* XPM */
static char * Holy_VFX_02_6_xpm[] = {
"64 64 54 1",
" 	c #000000",
".	c #FCC70F",
"+	c #FCC715",
"@	c #FED54A",
"#	c #FCC91C",
"$	c #FC8B00",
"%	c #FDB032",
"&	c #FED74C",
"*	c #FCCA1C",
"=	c #FCA809",
"-	c #FC8E11",
";	c #FC8D00",
">	c #FDAE30",
",	c #FED84C",
"'	c #FCCB1C",
")	c #FCA709",
"!	c #FC8F11",
"~	c #FC8C00",
"{	c #FDAF31",
"]	c #FCC711",
"^	c #FCC936",
"/	c #FEEED4",
"(	c #FFFFFF",
"_	c #FEF6EB",
":	c #FFFFFE",
"<	c #FFF8EE",
"[	c #FEECCE",
"}	c #FFFDF9",
"|	c #FDAF32",
"1	c #FED84D",
"2	c #FCCA18",
"3	c #FCA705",
"4	c #FC8F12",
"5	c #FEEDD2",
"6	c #FCC600",
"7	c #FDAE2F",
"8	c #FED649",
"9	c #FCCC23",
"0	c #FCA810",
"a	c #FC8F0F",
"b	c #FED64D",
"c	c #FFFDFB",
"d	c #FFFAF4",
"e	c #FC8800",
"f	c #FC9C1B",
"g	c #FDAC2E",
"h	c #FDAA2B",
"i	c #FED94F",
"j	c #FDAE31",
"k	c #FC9105",
"l	c #FC8A00",
"m	c #FC9611",
"n	c #FCC81C",
"o	c #FED54C",
"                                                                ",
"                                .                               ",
"                                +                               ",
"                               @#                               ",
"                             $%&*=-                             ",
"                             ;>,')!                             ",
"                             ~{,')!                             ",
"                             ~{,')!                             ",
"                             ~{,')!                             ",
"                             ~{,')!                             ",
"                             ~{,')!                             ",
"                             ~{,')!                             ",
"                             ~{,')!                             ",
"                             ~{,')!                             ",
"                             ~{,')!                             ",
"                             ~{,')!                             ",
"                             ~{,')!                             ",
"                             ~{,')!                             ",
"                 ]]          ~{,')!                             ",
"                 ]]]         ~{,')!                             ",
"                 ]]]         ~{,')!                             ",
"                  ]]         ~{,')!                             ",
"                   ]         ~{,')!                             ",
"                             ~{,')!                             ",
"                             ~{,')!                             ",
"                             ~{,')!                             ",
"                             ~{,')!                             ",
"            ^/((             ~{,')!                             ",
"           ^_(((((((         ~{,')!                             ",
"           /(((((:           ~{,')!                             ",
"           (((<[}            ~|1234                             ",
"           (((56             ;7890a     bbb                     ",
"            ((cd             a0987;     bbb                     ",
"             (((             4321|~                             ",
"              ((             !)',{~                             ",
"               ((  ((        !)',{~                             ",
"                   (((((     !)',{~                             ",
"                             !)',{e                             ",
"                             !)',>f                             ",
"                             !)',ghib                           ",
"                             !)',jk                             ",
"                             !)',{l   bb bb                     ",
"                             !)',{~   bb bb                     ",
"                             !)',{~                             ",
"                       ]     !)',{~                             ",
"                      ]]]    !)',{~                             ",
"                     ]]]]    !)',{~                             ",
"                     ]]]]    !)',{~                             ",
"                     ]]]]    !)',{~                             ",
"                     ]]]]    !)',{~                             ",
"                      ]]]    !)',{~                             ",
"                       ]     !)',{~                             ",
"                             !)',{~                             ",
"                             !)',{~                             ",
"                             !)',{~                             ",
"                             !)',{~     m                       ",
"                             !)',{~ m                           ",
"                        m    !)',{~                             ",
"                        m    !)',>;                             ",
"                             -=*&%$                             ",
"                               n@                               ",
"                                o                               ",
"                                b                               ",
"                                                                "};
