/* XPM */
static char * Holy_VFX_02_2_xpm[] = {
"64 64 109 2",
"  	c #000000",
". 	c #FED64D",
"+ 	c #FED64E",
"@ 	c #FED64B",
"# 	c #FED430",
"$ 	c #FED32B",
"% 	c #FED100",
"& 	c #FED85C",
"* 	c #FFFCF6",
"= 	c #FFFFFF",
"- 	c #FEE4A2",
"; 	c #FED000",
"> 	c #FED42C",
", 	c #FED32A",
"' 	c #FED544",
") 	c #FED64F",
"! 	c #FED545",
"~ 	c #FFEECB",
"{ 	c #FFF2D7",
"] 	c #FFF0D1",
"^ 	c #FFF2D8",
"/ 	c #FFFEFC",
"( 	c #FFF6E4",
"_ 	c #FFF0D0",
": 	c #FFF1D4",
"< 	c #FEDD83",
"[ 	c #FED436",
"} 	c #FED310",
"| 	c #FED964",
"1 	c #FEE9B6",
"2 	c #FFF1D3",
"3 	c #FEDD81",
"4 	c #FED322",
"5 	c #FED64A",
"6 	c #FED96A",
"7 	c #FED755",
"8 	c #FEE8B5",
"9 	c #FFF4DF",
"0 	c #FED85D",
"a 	c #FEDA6C",
"b 	c #FED758",
"c 	c #FED548",
"d 	c #FED326",
"e 	c #FED75A",
"f 	c #FFF9ED",
"g 	c #FFFDFA",
"h 	c #FFFDF9",
"i 	c #FFFEFB",
"j 	c #FEE39D",
"k 	c #FED313",
"l 	c #FEDD82",
"m 	c #FFF5E0",
"n 	c #FFF9EE",
"o 	c #FEE6AE",
"p 	c #FED206",
"q 	c #FEE5A9",
"r 	c #FEE39F",
"s 	c #FFF9EC",
"t 	c #FEE5A8",
"u 	c #FEE4A3",
"v 	c #FEE8B2",
"w 	c #FFEFCC",
"x 	c #FEE3A0",
"y 	c #FED756",
"z 	c #FECF00",
"A 	c #FED31D",
"B 	c #FED85B",
"C 	c #FFF3DB",
"D 	c #FFFCF7",
"E 	c #FED547",
"F 	c #FED200",
"G 	c #FFF3DC",
"H 	c #FFFFFE",
"I 	c #FFFEFD",
"J 	c #FED861",
"K 	c #FED320",
"L 	c #FED53C",
"M 	c #FFF8EC",
"N 	c #FFFCF5",
"O 	c #FFEFCD",
"P 	c #FED862",
"Q 	c #FED53E",
"R 	c #FFF1D5",
"S 	c #FEE6AB",
"T 	c #FED329",
"U 	c #FED649",
"V 	c #FED540",
"W 	c #FEDA6E",
"X 	c #FEDE85",
"Y 	c #FED64C",
"Z 	c #FED328",
"` 	c #FFEFCF",
" .	c #FFF7E8",
"..	c #FED433",
"+.	c #FEE39C",
"@.	c #FED546",
"#.	c #FEDE84",
"$.	c #FED53D",
"%.	c #FEE39E",
"&.	c #FEE5A7",
"*.	c #FEE7AE",
"=.	c #FFEECA",
"-.	c #FEE29B",
";.	c #FEE4A5",
">.	c #FED648",
",.	c #FECE00",
"'.	c #FECD00",
").	c #FED437",
"!.	c #FED651",
"                                                                                                                                ",
"                                                                                                                                ",
"                                                                                                                                ",
"                                                                                                                                ",
"                                                                                                                                ",
"                                                                                                                                ",
"                                                                                                                                ",
"                                                                                                                                ",
"                                                                                                                                ",
"                                                                                                                                ",
"                                                                                                                                ",
"                                                                                                                                ",
"                                                                                                                                ",
"                                                                                                                                ",
"                                                                                                                                ",
"                                                                                                                                ",
"                                                                                                                                ",
"                                                                                                                                ",
"                                                                                                                                ",
"                                                                                                                                ",
"                                                                                                                                ",
"                                                                                                                                ",
"                                                                                                                                ",
"                                                                                                                                ",
"                                                                                                                                ",
"                                                                                                                                ",
"                                                                                                                                ",
"                                                                                                                                ",
"                                                                                                                                ",
"                                                                                                                                ",
"                                                                                                                                ",
"                                                                                                                                ",
"                                                                                                                                ",
"                                                                                                                                ",
"                                                                                                                                ",
"                                                                                                                                ",
"                                . . . . . . + @ # $ % & * = = = = = = = = - ; > , ' ) . . . . .                                 ",
"              . . . . . . . . . . . . . . ) , ! ~ { ] ^ / = = = = = = = = ( _ : ^ < % ) . . . . . . . . . . . . .               ",
"            . . . . . . . . . . . . + @ [ } | 1 = = = = = = = = = = = = = = = = = 2 3 4 # ! ) . . . . . . . . . . .             ",
"  . . . . . . . . . . . . . . . . . 5 . 6 7 8 = = = = = = = = = = = = = = = = = = = 9 0 a b c . . . . . . . . . . . . . . . .   ",
"  . . . . . . . . . . . . . . . . ) d e f g h = = = = = = = = = = = = = = = = = = = / * i j % + . . . . . . . . . . . . . . .   ",
"  k k k k k k k k k k k k k k k k ; l m = = = = = = = = = = = = = = = = = = = = = = = = = n o % p k k k k k k k k k k k k k k   ",
"  q q q q q q q q q q q q q q q q r _ = = = = = = = = = = = = = = = = = = = = = = = = = = = s - t q q q q q q q q q q q q q q   ",
"  = = = = = = = = = = = = = = = = = = = = = = = = = = = = = = = = = = = = = = = = = = = = = = = = = = = = = = = = = = = = = =   ",
"  = = = = = = = = = = = = = = = = = = = = = = = = = = = = = = = = = = = = = = = = = = = = = = = = = = = = = = = = = = = = = =   ",
"  = = = = = = = = = = = = = = = = = = = = = = = = = = = = = = = = = = = = = = = = = = = = = = = = = = = = = = = = = = = = = =   ",
"  = = = = = = = = = = = = = = = = = = = = = = = = = = = = = = = = = = = = = = = = = = = = = = = = = = = = = = = = = = = = = =   ",
"  = = = = = = = = = = = = = = = = = = = = = = = = = = = = = = = = = = = = = = = = = = = = = = = = = = = = = = = = = = = = = =   ",
"  = = = = = = = = = = = = = = = = = = = = = = = = = = = = = = = = = = = = = = = = = = = = = = = = = = = = = = = = = = = = = =   ",
"  q q q q q q q q q q q q q u v h = = = = = = = = = = = = = = = = = = = = = = = = = = = = = = = = w x q q q q q q q q q q q q   ",
"  k k k k k k k k k k k k k ; y g = = = = = = = = = = = = = = = = = = = = = = = = = = = = = = = = u z k k k k k k k k k k k k   ",
"  . . . . . . . . . . . . . [ 6 f = = = = = = = = = = = = = = = = = = = = = = = = = = = = = = = / u A . . . . . . . . . . . .   ",
"  . . . . . . . . . . . . . @ . B C = = = = = = = = = = = = = = = = = = = = = = = = = = = = = D < E 5 . . . . . . . . . . . .   ",
"  . . . . . . . . . . . . . + E F G = = = = = = = = = = = = = = = = = = = = = = = = = = = H = I J K ) . . . . . . . . . . . .   ",
"  . . . . . . . . . . . . . . @ L v M = = = = = = = = = = = = = = = = = = = = = = = = = = = N O P Q . . . . . . . . . . . . .   ",
"  . . . . . . . . . . . . . . . + % u = = = = = = = = = = = = = = = = = = = = = = = = = = = R F E + . . . . . . . . . . . . .   ",
"  . . . . . . . . . . . . . . . . F S = = = = = = = = = = = = = = = = = = = = = = = = = = = C T U . . . . . . . . . . . . . .   ",
"  . . . . . . . . . . . . . . . . V W 1 = = = = = = = = = = = = = = = = = = = = = H = = = 2 X ! Y . . . . . . . . . . . . . .   ",
"  . . . . . . . . . . . . . . . . ) Z ! ` ^  .= = = = = = = = = = = = = = = = = = = * R C X % ) . . . . . . . . . . . . . . .   ",
"  . . . . . . . . . . . . . . . . . + @ ..; +./ = = = = = = = = = = = = = = = = = = O F T ! ) . . . . . . . . . . . . . . . .   ",
"              . . . . . . . . . . . . . 5 @.' #./ = = = = = = = = = = = = = = = = 1 ' E U Y . . . . . . . . . . .               ",
"                                . . . . . + $.E %.&.r *.h = = = = = = = = =.-.;.&.a > + . . . .                                 ",
"                                . . . . . . ) >.% ; ,.' N = = = = = = = = -.'.% ; ).!.. . . . .                                 ",
"                                                                                                                                "};
