/* XPM */
static char * Holy_VFX_02_1_xpm[] = {
"64 64 23 1",
" 	c #000000",
".	c #FC9611",
"+	c #FC9411",
"@	c #FC8F11",
"#	c #FC8C11",
"$	c #FC9511",
"%	c #FCC311",
"&	c #FCC911",
"*	c #FCC711",
"=	c #FC9D11",
"-	c #FCAB11",
";	c #FCAA11",
">	c #FCA911",
",	c #FCAD11",
"'	c #FCC511",
")	c #FCC811",
"!	c #FC9211",
"~	c #FCA811",
"{	c #FC9811",
"]	c #FC9B11",
"^	c #FC9911",
"/	c #FC9F11",
"(	c #FCC411",
"                                                                ",
"                                                                ",
"                                                                ",
"                                                                ",
"                                                                ",
"                                                                ",
"                                                                ",
"                                                                ",
"                                                                ",
"                                                                ",
"                                                                ",
"                                                                ",
"                                                                ",
"                                                                ",
"                                                                ",
"                                                                ",
"                                                                ",
"                                                                ",
"                                                                ",
"                                                                ",
"                                                                ",
"                                                                ",
"                                                                ",
"                                                                ",
"                                                                ",
"                                                                ",
"                                                                ",
"                                                                ",
"                                                                ",
"                                                                ",
"                                                                ",
"                                                                ",
"                                                                ",
"                                                                ",
"                                                                ",
"                                                                ",
"                                                                ",
"                                                                ",
"                                                                ",
"                                                                ",
"                                                                ",
"                                                                ",
"                                                                ",
"                                                                ",
"                                                                ",
"                                                                ",
"                                                                ",
"                                                                ",
"                                                                ",
"                                                                ",
"                                                                ",
"                                                                ",
"                                                                ",
"                                                                ",
"                                                                ",
"                                                                ",
"                                                                ",
"  ............+@@@#$%&********************&%$#@@@+............  ",
" ............+=-;;>,')********************)',>;;-=+............ ",
".............!~*''''************************''''*~!.............",
" .............{]]]^/(&********************&(/^]]]{............. ",
"                                                                ",
"                                                                ",
"                                                                "};
