/* XPM */
static char * Holy_VFX_02_5_xpm[] = {
"64 64 122 2",
"  	c #000000",
". 	c #FFFFFF",
"+ 	c #FDE1B0",
"@ 	c #FCBA00",
"# 	c #FDDB98",
"$ 	c #FDDC9C",
"% 	c #FC9311",
"& 	c #FCB100",
"* 	c #FDE0A1",
"= 	c #FFFEFC",
"- 	c #FDDE99",
"; 	c #FDE1A7",
"> 	c #FEDC7A",
", 	c #FDCE06",
"' 	c #FCB500",
") 	c #FDE1A8",
"! 	c #FFF4DC",
"~ 	c #FDD87D",
"{ 	c #FCB300",
"] 	c #FDD982",
"^ 	c #FFF5E1",
"/ 	c #FCB60E",
"( 	c #FDCC00",
"_ 	c #FED95F",
": 	c #FFFEFB",
"< 	c #FC9211",
"[ 	c #FED961",
"} 	c #FCB50C",
"| 	c #FC9011",
"1 	c #FCB000",
"2 	c #FEDB6E",
"3 	c #FDCD00",
"4 	c #FCB400",
"5 	c #FCC711",
"6 	c #FCB70B",
"7 	c #FDC400",
"8 	c #FEE7B3",
"9 	c #FEDB71",
"0 	c #FED225",
"a 	c #FDC832",
"b 	c #FCC906",
"c 	c #FDD019",
"d 	c #FFE399",
"e 	c #FFF1D4",
"f 	c #FED965",
"g 	c #FED643",
"h 	c #FDD241",
"i 	c #FCC607",
"j 	c #FDD140",
"k 	c #FED647",
"l 	c #FED432",
"m 	c #FED64B",
"n 	c #FED751",
"o 	c #FDD13E",
"p 	c #FCC806",
"q 	c #FDD240",
"r 	c #FED74F",
"s 	c #FED64A",
"t 	c #FED64D",
"u 	c #FCA70E",
"v 	c #FCBF24",
"w 	c #FDD23D",
"x 	c #FED74E",
"y 	c #FC8E12",
"z 	c #FDCF2C",
"A 	c #FCB503",
"B 	c #FDCF30",
"C 	c #FC9312",
"D 	c #FC930E",
"E 	c #FCB504",
"F 	c #FC9100",
"G 	c #FCB609",
"H 	c #FFF5F0",
"I 	c #FC9B45",
"J 	c #FFF9F6",
"K 	c #FCA158",
"L 	c #FC9204",
"M 	c #FFF8F5",
"N 	c #FC9F51",
"O 	c #FCB200",
"P 	c #FC941F",
"Q 	c #FC941E",
"R 	c #FCA054",
"S 	c #FC9205",
"T 	c #FCA259",
"U 	c #FFF9F7",
"V 	c #FDCF32",
"W 	c #FED64C",
"X 	c #FED31D",
"Y 	c #FDCE0A",
"Z 	c #FCB611",
"` 	c #FDCF21",
" .	c #FED85C",
"..	c #FEE5A7",
"+.	c #FDD66D",
"@.	c #FDE2AB",
"#.	c #FEDB70",
"$.	c #FFFFFC",
"%.	c #FED858",
"&.	c #FDD35E",
"*.	c #FFE9B7",
"=.	c #FC8E07",
"-.	c #FDE0A4",
";.	c #FDDD98",
">.	c #FC9B1E",
",.	c #FFFFFD",
"'.	c #FDCA00",
").	c #FDCA28",
"!.	c #FED54D",
"~.	c #FC9210",
"{.	c #FDE0A3",
"].	c #FFF3DB",
"^.	c #FDD77E",
"/.	c #FCBC00",
"(.	c #FDB335",
"_.	c #FDDF9F",
":.	c #FDE1A5",
"<.	c #FCAF00",
"[.	c #FC8B00",
"}.	c #FDDFA0",
"|.	c #FDDB99",
"1.	c #FDE0AE",
"                                                                                                                                ",
"                                                                                                                                ",
"                                                                                                                                ",
"                                                                                                                                ",
"                                                              . .                                                               ",
"                                                            + . . +                                                             ",
"                                                          @ # . . $ @                                                           ",
"                                                        % & * . = - & %                                                         ",
"                                                        % & ; = > , ' %                                                         ",
"                                                        % & ) . ! ~ { %                                                         ",
"                                                        % { ] ^ . ) & %                                                         ",
"                                                        % / ( _ : ) & %                                                         ",
"                                                        % / ( _ : ) & %                                                         ",
"                                                        % { ] ^ . ) & %                                                         ",
"                                                        % & ) . ^ ] { %                                                         ",
"                                                        < & ) : [ ( } <                                                         ",
"                                                        | 1 ; = 2 3 4 |                                                         ",
"                                      5                 6 7 8 . 9 0 a 6                                                         ",
"                                    5 5                 b c d e f g h b                                                         ",
"                                  5 5 5                 i j k l m n o i                                                         ",
"                                  5 5 5                 p q r s t n q p                                                         ",
"                                  5 5 5                 u v w x x w v u                                                         ",
"                                  5 5 5                 y { z r r z { y                                                         ",
"                                  5 5                   % A B r r B A %                                                         ",
"                                                        % A B r r B A %                                                         ",
"                                                        % A B r r B A %                                                         ",
"                                                        % A B r r B A %                                                         ",
"                        5 5 5                           % A B r r B A %                                                         ",
"                      5 5 5 5 5                         % A B r r B A %                                                         ",
"                      5 5 5 5 5                         % A B r r B A %                                                         ",
"                      5 5 5 5 5                         % A B r r B A %                                                         ",
"                      5 5 5 5 5                         % A B r r B A %                                                         ",
"                      5 5 5 5 5                         % A B r r B A %                                                         ",
"                      5 5 5 5 5                         % A B r r B A %                                                         ",
"                      5 5 5 5 5                         C A B r r B A %                                                         ",
"                      5 5 5 5 5       .       . .       D E B r r B A %                                                         ",
"                        5 5 5           . . . . . . .   F G B r r B A %                                                         ",
"                                          . . . . . . H I { B r r B A %                                                         ",
"                                            . . . . . J K & B r r B G L                                                         ",
"                                              . . . . M N O B r r B ' P                                                         ",
"                                                        Q ' B r r B O R M                                                       ",
"                                                        S G B r r B & T U . . .                                                 ",
"                                                        % A B r r B { I H . . .                                                 ",
"                                                        % A B r r B G F   . . . . . .                                           ",
"                                                        % A B r r B E D                                                         ",
"                                              t         % A B r r B A C                                                         ",
"                                            t t         % A B r r B A %                                                         ",
"                                          t t t t       % A B r r B A %                                                         ",
"                                          t t t t       % A B r r B A %                                                         ",
"                                          t t t t       % A V W X Y Z %                                                         ",
"                                          t t t t       % A `  ...+.4 %                                                         ",
"                                          t t t t       % A 3 9 . @.& %                                                         ",
"                                          t t t t       % A 3 #.$.) & %                                                         ",
"                                          t t t t       % Z ( %.: ) & %                                                         ",
"                                          t t t t       % 4 &.*.. ) 1 =.                                                        ",
"                                          t t t t       % & -.. $.;.4 >.      t t t t                                           ",
"                                          t t t t       % & ) ,.> '.).!.t                                                       ",
"                                            t t t t     ~.& {.. ].^./.(.                                                        ",
"                                              t t t     ~.& _.. . :.<.[.                                                        ",
"                                                        % & }.. . }.& %                                                         ",
"                                                        % & }.. . }.& %                                                         ",
"                                                          @ |.. . |.@                                                           ",
"                                                            1.. . 1.                                                            ",
"                                                              . .                                                               "};
