/* XPM */
static char * Yellow2_xpm[] = {
"64 64 183 2",
"  	c #000000",
". 	c #E38034",
"+ 	c #E88D35",
"@ 	c #F1A437",
"# 	c #F5AD38",
"$ 	c #F1A337",
"% 	c #F4AA38",
"& 	c #F5AA36",
"* 	c #F1A035",
"= 	c #E68632",
"- 	c #E17732",
"; 	c #E27D33",
"> 	c #E27F34",
", 	c #F6B43C",
"' 	c #F2AD3C",
") 	c #EA9C3A",
"! 	c #E69038",
"~ 	c #E78C35",
"{ 	c #E78934",
"] 	c #F6B33C",
"^ 	c #F6C345",
"/ 	c #F5C749",
"( 	c #F2C248",
"_ 	c #F1B844",
": 	c #F1A83A",
"< 	c #EE9834",
"[ 	c #E68634",
"} 	c #E17A33",
"| 	c #E27D34",
"1 	c #E37F34",
"2 	c #F1A136",
"3 	c #F6C446",
"4 	c #F7BB40",
"5 	c #F2AA3A",
"6 	c #EA9336",
"7 	c #E68633",
"8 	c #E88C34",
"9 	c #E78A34",
"0 	c #EA9235",
"a 	c #E68B36",
"b 	c #EA9B3A",
"c 	c #F2AB3B",
"d 	c #F6B93F",
"e 	c #F6C547",
"f 	c #F4C045",
"g 	c #F09C34",
"h 	c #E68835",
"i 	c #F0A237",
"j 	c #F1A236",
"k 	c #F09F35",
"l 	c #E78B35",
"m 	c #E17833",
"n 	c #E17631",
"o 	c #E68332",
"p 	c #F09C33",
"q 	c #F5B23C",
"r 	c #F5C346",
"s 	c #F5C447",
"t 	c #F5B840",
"u 	c #F5B23B",
"v 	c #E68834",
"w 	c #F5AD39",
"x 	c #F5B43D",
"y 	c #F09B33",
"z 	c #E58333",
"A 	c #E58634",
"B 	c #EE9C37",
"C 	c #F2A437",
"D 	c #F3A535",
"E 	c #F4AE3A",
"F 	c #F5BF44",
"G 	c #F5C648",
"H 	c #F09B34",
"I 	c #F4BF45",
"J 	c #F5B83F",
"K 	c #F1A739",
"L 	c #E99035",
"M 	c #E98E34",
"N 	c #F6AE39",
"O 	c #F5AF3A",
"P 	c #F4B73F",
"Q 	c #F5C547",
"R 	c #F5CC4A",
"S 	c #E99135",
"T 	c #F5B940",
"U 	c #F5C246",
"V 	c #F4BD44",
"W 	c #F19E34",
"X 	c #F3A435",
"Y 	c #F5BE44",
"Z 	c #F5C647",
"` 	c #F5C746",
" .	c #F5C845",
"..	c #F5C949",
"+.	c #F5B83E",
"@.	c #F5AF39",
"#.	c #F4B63F",
"$.	c #F5CE4F",
"%.	c #F6D055",
"&.	c #F6D058",
"*.	c #F0A137",
"=.	c #F3A536",
"-.	c #F4B13C",
";.	c #F5C448",
">.	c #F5CA4A",
",.	c #F5C443",
"'.	c #F5C142",
").	c #F5C245",
"!.	c #F5C446",
"~.	c #F5C646",
"{.	c #F7DE6E",
"].	c #F8E578",
"^.	c #F5AC38",
"/.	c #F5AB38",
"(.	c #F4A736",
"_.	c #F4B03B",
":.	c #F5CD4F",
"<.	c #F6D258",
"[.	c #F5CC4D",
"}.	c #F5C846",
"|.	c #F5C642",
"1.	c #F6D057",
"2.	c #F8E477",
"3.	c #F9EE83",
"4.	c #F4AB38",
"5.	c #F4A937",
"6.	c #F4A635",
"7.	c #F4AE39",
"8.	c #F5C042",
"9.	c #F7E374",
"0.	c #F7E273",
"a.	c #F5CF54",
"b.	c #F5C43D",
"c.	c #F4C33C",
"d.	c #F5CE54",
"e.	c #F7E375",
"f.	c #F8ED82",
"g.	c #F3A838",
"h.	c #F4AD3A",
"i.	c #F4B63E",
"j.	c #F5C243",
"k.	c #F6D157",
"l.	c #F7E272",
"m.	c #F6D560",
"n.	c #F5CE53",
"o.	c #F6D561",
"p.	c #F8EB80",
"q.	c #E07833",
"r.	c #E78A35",
"s.	c #F5C848",
"t.	c #F5CB4D",
"u.	c #F7E070",
"v.	c #F8E476",
"w.	c #F8E87B",
"x.	c #F8EA7E",
"y.	c #E68935",
"z.	c #EA9135",
"A.	c #F4B740",
"B.	c #F5C649",
"C.	c #F5CC4C",
"D.	c #F5C94A",
"E.	c #F5C645",
"F.	c #F5C33D",
"G.	c #F8ED83",
"H.	c #F8EC81",
"I.	c #F8EB7F",
"J.	c #F8E97E",
"K.	c #F8E97D",
"L.	c #F1A237",
"M.	c #F3A637",
"N.	c #F5C542",
"O.	c #F8EA7F",
"P.	c #F4A836",
"Q.	c #F5C548",
"R.	c #F5CA4D",
"S.	c #F5CF55",
"T.	c #F4A837",
"U.	c #F5CB4A",
"V.	c #F8E577",
"W.	c #F5C347",
"X.	c #F5CA49",
"Y.	c #F5C744",
"Z.	c #F6D159",
". + @ #                                                                                                                 # @ + . ",
". + $ #                                                                                                                 # $ + . ",
"        % %                                                                                                         % %         ",
"        % %                                                                                                         % %         ",
"                                                                                                                                ",
"                                                                                                                                ",
"                                                                                                                                ",
"                                                                                                                                ",
"                                                                                                                                ",
"                                                                                                                                ",
"                                                                                                                                ",
"                                                                                                                                ",
"                            & * = - ; >                                                 > ; - = * &                             ",
"                            , ' ) ! ~ {                                                 { ~ ! ) ' ,                             ",
"                % %     & ] ^ / ( _ : < [ }                 | 1 1 |                 } [ < : _ ( / ^ ] &     % %                 ",
"                % %     2 : _ ( / 3 4 5 6 7                 8 9 9 8                 7 6 5 4 3 / ( _ : 2     % %                 ",
"                    # @ 0 a ! b c d e f : g         } h i % j k k j % i h }         g : f e d c b ! a 0 @ #                     ",
"                    # @ l m n o p q r s t u         v 0 $ w u x x u w $ 0 v         u t s r q p o n m l @ #                     ",
"                                    q t s r u y z A B C D E F G G F E D C B A z y u r s t q                                     ",
"                                    H : I s J K L M C N O P Q R R Q P O N C M L K J s I : H                                     ",
"                                    z S : T U V : W X O Y Z `  . .` Z Y O X W : V U T : S z                                     ",
"                                    A M W q / ..+.@.E #.Z $.%.&.&.%.$.Z #.E @.+.../ q W M A                                     ",
"                                    *.$ =.-.;.>.,.'.).!.~.%.{.].].{.%.~.!.).'.,.>.;.-.=.$ *.                                    ",
"                                    ^./.(._.).:.<.<.[.}.|.1.2.3.3.2.1.|.}.[.<.<.:.)._.(./.^.                                    ",
"                                4.% 4.5.6.7.8.<.9.0.a.b.c.d.e.f.f.e.d.c.b.a.0.9.<.8.7.6.5.4.% 4.                                ",
"                                g.% 5.% h.i.j.k.l.e.m.n.n.o.2.p.p.2.o.n.n.m.e.l.k.j.i.h.% 5.% g.                                ",
"                            q.r.$ /.(.h.Y G s.t.d.m.u.v.e.2.w.x.x.w.2.e.v.u.m.d.t.s.G Y h.(./.$ r.q.                            ",
"                            y.z.$ w E A.B.C.D.E.F.n.v.G.H.I.J.K.K.J.I.H.G.v.n.F.E.D.C.B.A.E w $ z.y.                            ",
"                            L.$ M._.Y B.D.D.` N.c.n.e.H.O.x.K.K.K.K.x.O.H.e.n.c.N.` D.D.B.Y _.M.$ L.                            ",
"                            4.^.P.-.Q.C.>.R.S.1.d.o.2.I.x.K.K.K.K.K.K.x.I.2.o.d.1.S.R.>.C.Q.-.P.^.4.                            ",
"                        | + @ ^.T.-.s U.}.S.{.V.e.2.w.J.K.K.K.K.K.K.K.K.J.w.2.e.V.{.S.}.U.s -.T.^.@ + |                         ",
"                        1 l i ^.T.-.W.X.Y.Z.].3.f.p.x.K.K.K.K.K.K.K.K.K.K.x.p.f.3.].Z.Y.X.W.-.T.^.i l 1                         ",
"                        1 l i ^.T.-.W.X.Y.Z.].3.f.p.x.K.K.K.K.K.K.K.K.K.K.x.p.f.3.].Z.Y.X.W.-.T.^.i l 1                         ",
"                        | + @ ^.T.-.s U.}.S.{.V.e.2.w.J.K.K.K.K.K.K.K.K.J.w.2.e.V.{.S.}.U.s -.T.^.@ + |                         ",
"                            4.^.P.-.Q.C.>.R.S.1.d.o.2.I.x.K.K.K.K.K.K.x.I.2.o.d.1.S.R.>.C.Q.-.P.^.4.                            ",
"                            L.$ M._.Y B.D.D.` N.c.n.e.H.O.x.K.K.K.K.x.O.H.e.n.c.N.` D.D.B.Y _.M.$ L.                            ",
"                            y.z.$ w E A.B.C.D.E.F.n.v.G.H.I.J.K.K.J.I.H.G.v.n.F.E.D.C.B.A.E w $ z.y.                            ",
"                            q.r.$ /.(.h.Y G s.t.d.m.u.v.e.2.w.x.x.w.2.e.v.u.m.d.t.s.G Y h.(./.$ r.q.                            ",
"                                g.% 5.% h.i.j.k.l.e.m.n.n.o.2.p.p.2.o.n.n.m.e.l.k.j.i.h.% 5.% g.                                ",
"                                4.% 4.5.6.7.8.<.9.0.a.b.c.d.e.f.f.e.d.c.b.a.0.9.<.8.7.6.5.4.% 4.                                ",
"                                    ^./.(._.).:.<.<.[.}.|.1.2.3.3.2.1.|.}.[.<.<.:.)._.(./.^.                                    ",
"                                    *.$ =.-.;.>.,.'.).!.~.%.{.].].{.%.~.!.).'.,.>.;.-.=.$ *.                                    ",
"                                    A M W q / ..+.@.E #.Z $.%.&.&.%.$.Z #.E @.+.../ q W M A                                     ",
"                                    z S : T U V : W X O Y Z `  . .` Z Y O X W : V U T : S z                                     ",
"                                    H : I s J K L M C N O P Q R R Q P O N C M L K J s I : H                                     ",
"                                    q t s r u y z A B C D E F G G F E D C B A z y u r s t q                                     ",
"                    # @ l m n o p q r s t u         v 0 $ w u x x u w $ 0 v         u t s r q p o n m l @ #                     ",
"                    # @ 0 a ! b c d e f : g         } h i % j k k j % i h }         g : f e d c b ! a 0 @ #                     ",
"                % %     2 : _ ( / 3 4 5 6 7                 8 9 9 8                 7 6 5 4 3 / ( _ : 2     % %                 ",
"                % %     & ] ^ / ( _ : < [ }                 | 1 1 |                 } [ < : _ ( / ^ ] &     % %                 ",
"                            , ' ) ! ~ {                                                 { ~ ! ) ' ,                             ",
"                            & * = - ; >                                                 > ; - = * &                             ",
"                                                                                                                                ",
"                                                                                                                                ",
"                                                                                                                                ",
"                                                                                                                                ",
"                                                                                                                                ",
"                                                                                                                                ",
"                                                                                                                                ",
"                                                                                                                                ",
"        % %                                                                                                         % %         ",
"        % %                                                                                                         % %         ",
". + $ #                                                                                                                 # $ + . ",
". + @ #                                                                                                                 # @ + . "};
