/* XPM */
static char * Yellow4_xpm[] = {
"64 64 148 2",
"  	c #000000",
". 	c #E37F34",
"+ 	c #E78C35",
"@ 	c #F1A337",
"# 	c #F5AC38",
"$ 	c #F6B03A",
"% 	c #F5CB4B",
"& 	c #F5CC4C",
"* 	c #F4C146",
"= 	c #F5C447",
"- 	c #DF6E30",
"; 	c #E78B35",
"> 	c #F1AA3B",
", 	c #F5B43D",
"' 	c #E79239",
") 	c #E99738",
"! 	c #F1A237",
"~ 	c #F6AA36",
"{ 	c #F2BE46",
"] 	c #F1BB45",
"^ 	c #E27F34",
"/ 	c #E37E33",
"( 	c #E37C32",
"_ 	c #E27831",
": 	c #F5CA4B",
"< 	c #F7CF4C",
"[ 	c #E78B34",
"} 	c #E78E36",
"| 	c #E79339",
"1 	c #E8963A",
"2 	c #E27731",
"3 	c #E99A3B",
"4 	c #F3C248",
"5 	c #F7D24D",
"6 	c #DF7031",
"7 	c #E68834",
"8 	c #EE9B35",
"9 	c #F2AB3B",
"0 	c #F2BC45",
"a 	c #F3AD3B",
"b 	c #F5A534",
"c 	c #E79238",
"d 	c #F1B843",
"e 	c #F7CB49",
"f 	c #E78C36",
"g 	c #E99035",
"h 	c #F1A236",
"i 	c #F7B73D",
"j 	c #F6C546",
"k 	c #F6C346",
"l 	c #F5B63F",
"m 	c #E78D35",
"n 	c #F1A83A",
"o 	c #F7BC40",
"p 	c #F6CA4A",
"q 	c #F4C348",
"r 	c #F1A036",
"s 	c #F5B03B",
"t 	c #F5B73F",
"u 	c #F6C446",
"v 	c #E07331",
"w 	c #E78934",
"x 	c #EE9834",
"y 	c #F2AA3A",
"z 	c #F4BE44",
"A 	c #F5C246",
"B 	c #F4A233",
"C 	c #EA9939",
"D 	c #E68533",
"E 	c #E78A34",
"F 	c #E68634",
"G 	c #EA9436",
"H 	c #F2AA3B",
"I 	c #F6B53D",
"J 	c #F5B13C",
"K 	c #F2A839",
"L 	c #EE9C36",
"M 	c #E17A33",
"N 	c #F0A036",
"O 	c #F5AA36",
"P 	c #F09F35",
"Q 	c #F2A436",
"R 	c #F2A738",
"S 	c #EA9336",
"T 	c #E68734",
"U 	c #F2AC3B",
"V 	c #F6B43C",
"W 	c #F5AE39",
"X 	c #F5AB37",
"Y 	c #EA9235",
"Z 	c #F2A537",
"` 	c #F4AB38",
" .	c #F2A538",
"..	c #F09D35",
"+.	c #F4BF45",
"@.	c #F5C145",
"#.	c #F5AF3B",
"$.	c #F4A535",
"%.	c #F0A237",
"&.	c #F5AD38",
"*.	c #F5B03A",
"=.	c #F5B940",
"-.	c #F5C848",
";.	c #F5C747",
">.	c #F4B63E",
",.	c #F4AD38",
"'.	c #E68835",
").	c #F5A736",
"!.	c #F4AE3A",
"~.	c #F5BE44",
"{.	c #F5C648",
"].	c #F5C846",
"^.	c #F5C644",
"/.	c #F5C242",
"(.	c #F5C041",
"_.	c #E68935",
":.	c #F4B73F",
"<.	c #F5C546",
"[.	c #F5CD4D",
"}.	c #F6CF55",
"|.	c #F6D158",
"1.	c #F6D258",
"2.	c #F3A435",
"3.	c #F5C541",
"4.	c #F5CD51",
"5.	c #F7DE6D",
"6.	c #F8E577",
"7.	c #F7E476",
"8.	c #F7E475",
"9.	c #F4AA38",
"0.	c #F5AD39",
"a.	c #F4AF3B",
"b.	c #F4B740",
"c.	c #F5C647",
"d.	c #F6D662",
"e.	c #F8E679",
"f.	c #F8ED82",
"g.	c #F8EC80",
"h.	c #F8EB80",
"i.	c #E27D34",
"j.	c #E88C34",
"k.	c #F5B23C",
"l.	c #F5C045",
"m.	c #F5C748",
"n.	c #F5C746",
"o.	c #F8E97D",
"p.	c #F8EA7F",
"q.	c #F8EA7E",
"                                                                                                                                ",
"                                                                                                                                ",
"                                                                                                                                ",
"                                                                                                                                ",
"                                                                                                                                ",
"                                                                                                                                ",
"                                                                                                                                ",
"                                                                                                                                ",
"                . + @ #                                                                                 # @ + .                 ",
"                . + @ $                                                                                 $ @ + .                 ",
"                        % &                                                                         & %                         ",
"                        * =                                                                         = *                         ",
"                    - ; > ,                                                                         , > ; -                     ",
"                    ' ) ! ~                                                                         ~ ! ) '                     ",
"                    { ]         ^ / ( _                                                 _ ( / ^         ] {                     ",
"                    : <         [ } | 1                                                 1 | } [         < :                     ",
"                2 3 4 5     6 7 8 9 ] 0 a b                                         b a 0 ] 9 8 7 6     5 4 3 2                 ",
"                ( c d e     f g h i j k l a                                         a l k j i h g f     e d c (                 ",
"                / m n o p q > r     s t u 0 | v         ^ . . . . . . ^         v | 0 u t s     r > q p o n m /                 ",
"                ^ w x y z A , ~     B s u 0 C D         E [ ; + + ; [ E         D C 0 u s B     ~ , A z y x w ^                 ",
"                    F G H ,             I J K L 7 M M 7 8 h ! @ @ ! h 8 7 M M 7 L K J I             , H G F                     ",
"                    M 7 N O             P Q # R S 7 T G U V W X X W V U G T 7 S R # Q P             O N 7 M                     ",
"                                        T Y Z `  .N ..n +.@.#.$.$.#.@.+.n ..N  .` Z Y T                                         ",
"                                        M 7 %.&.# &.*.=.-.;.>.,.,.>.;.-.=.*.&.# &.%.7 M                                         ",
"                                        M '.%.# ).!.~.{.].^./.(.(./.^.].{.~.!.).# %.'.M                                         ",
"                                        _.Y @ # !.:.<.[.}.|.1.1.1.1.|.}.[.<.:.!.# @ Y _.                                        ",
"                                        @ @ 2.!.~.<.3.4.5.6.7.8.8.7.6.5.4.3.<.~.!.2.@ @                                         ",
"                                        9.0.a.b.c.[.4.d.e.f.g.h.h.g.f.e.d.4.[.c.b.a.0.9.                                        ",
"                                    i.j.h k.l.m.n.}.5.e.o.p.q.q.q.q.p.o.e.5.}.n.m.l.k.h j.i.                                    ",
"                                    . E N k.@.;.^.|.6.f.p.o.o.o.o.o.o.p.f.6.|.^.;.@.k.N E .                                     ",
"                                    . ; ! 0.a.>./.1.7.g.q.o.o.o.o.o.o.q.g.7.1./.>.a.0.! ; .                                     ",
"                                    . + @ X $.,.(.1.8.h.q.o.o.o.o.o.o.q.h.8.1.(.,.$.X @ + .                                     ",
"                                    . + @ X $.,.(.1.8.h.q.o.o.o.o.o.o.q.h.8.1.(.,.$.X @ + .                                     ",
"                                    . ; ! 0.a.>./.1.7.g.q.o.o.o.o.o.o.q.g.7.1./.>.a.0.! ; .                                     ",
"                                    . E N k.@.;.^.|.6.f.p.o.o.o.o.o.o.p.f.6.|.^.;.@.k.N E .                                     ",
"                                    i.j.h k.l.m.n.}.5.e.o.p.q.q.q.q.p.o.e.5.}.n.m.l.k.h j.i.                                    ",
"                                        9.0.a.b.c.[.4.d.e.f.g.h.h.g.f.e.d.4.[.c.b.a.0.9.                                        ",
"                                        @ @ 2.!.~.<.3.4.5.6.7.8.8.7.6.5.4.3.<.~.!.2.@ @                                         ",
"                                        _.Y @ # !.:.<.[.}.|.1.1.1.1.|.}.[.<.:.!.# @ Y _.                                        ",
"                                        M '.%.# ).!.~.{.].^./.(.(./.^.].{.~.!.).# %.'.M                                         ",
"                                        M 7 %.&.# &.*.=.-.;.>.,.,.>.;.-.=.*.&.# &.%.7 M                                         ",
"                                        T Y Z `  .N ..n +.@.#.$.$.#.@.+.n ..N  .` Z Y T                                         ",
"                    M 7 N O             P Q # R S 7 T G U V W X X W V U G T 7 S R # Q P             O N 7 M                     ",
"                    F G H ,             I J K L 7 M M 7 8 h ! @ @ ! h 8 7 M M 7 L K J I             , H G F                     ",
"                ^ w x y z A , ~     B s u 0 C D         E [ ; + + ; [ E         D C 0 u s B     ~ , A z y x w ^                 ",
"                / m n o p q > r     s t u 0 | v         ^ . . . . . . ^         v | 0 u t s     r > q p o n m /                 ",
"                ( c d e     f g h i j k l a                                         a l k j i h g f     e d c (                 ",
"                2 3 4 5     6 7 8 9 ] 0 a b                                         b a 0 ] 9 8 7 6     5 4 3 2                 ",
"                    : <         [ } | 1                                                 1 | } [         < :                     ",
"                    { ]         ^ / ( _                                                 _ ( / ^         ] {                     ",
"                    ' ) ! ~                                                                         ~ ! ) '                     ",
"                    - ; > ,                                                                         , > ; -                     ",
"                        * =                                                                         = *                         ",
"                        % &                                                                         & %                         ",
"                . + @ $                                                                                 $ @ + .                 ",
"                . + @ #                                                                                 # @ + .                 ",
"                                                                                                                                ",
"                                                                                                                                ",
"                                                                                                                                ",
"                                                                                                                                ",
"                                                                                                                                ",
"                                                                                                                                ",
"                                                                                                                                ",
"                                                                                                                                "};
