/* XPM */
static char * Yellow1_xpm[] = {
"64 64 119 2",
"  	c #000000",
". 	c #E48234",
"+ 	c #E48334",
"@ 	c #E58534",
"# 	c #F4A836",
"$ 	c #F3A536",
"% 	c #F4B23C",
"& 	c #F5B33D",
"* 	c #F6C648",
"= 	c #F6C748",
"- 	c #F1BF47",
"; 	c #F2BE46",
"> 	c #E69339",
", 	c #EA9839",
"' 	c #F2A437",
") 	c #F7B63D",
"! 	c #F5CE4D",
"~ 	c #E17431",
"{ 	c #E68432",
"] 	c #EE9A35",
"^ 	c #F2AC3B",
"/ 	c #F4BE44",
"( 	c #F5C648",
"_ 	c #E68834",
": 	c #EA9436",
"< 	c #F2A93A",
"[ 	c #F5B840",
"} 	c #F5C547",
"| 	c #F5CC4B",
"1 	c #E17A33",
"2 	c #E68633",
"3 	c #F09C34",
"4 	c #F5B23C",
"5 	c #F5C447",
"6 	c #F5CB4B",
"7 	c #E27D34",
"8 	c #E37F34",
"9 	c #E88C34",
"0 	c #E78A34",
"a 	c #E78B34",
"b 	c #F5AD38",
"c 	c #E27F34",
"d 	c #E27E34",
"e 	c #E17B33",
"f 	c #E68935",
"g 	c #F1A337",
"h 	c #F4AA38",
"i 	c #F1A236",
"j 	c #F09F35",
"k 	c #F0A036",
"l 	c #F1A036",
"m 	c #E78B35",
"n 	c #EA9135",
"o 	c #F5AD39",
"p 	c #F5B23B",
"q 	c #F5B43D",
"r 	c #F5B33C",
"s 	c #E78A35",
"t 	c #EA9235",
"u 	c #F2A537",
"v 	c #F8B239",
"w 	c #E07633",
"x 	c #E68835",
"y 	c #EE9D37",
"z 	c #F1A135",
"A 	c #F3A435",
"B 	c #F4AE3A",
"C 	c #F5BF44",
"D 	c #E17933",
"E 	c #EF9E37",
"F 	c #F2A638",
"G 	c #E68934",
"H 	c #F6AF39",
"I 	c #F6B23C",
"J 	c #F4B03B",
"K 	c #F4B63F",
"L 	c #F5CC4A",
"M 	c #F5CB4A",
"N 	c #F5CA49",
"O 	c #F1A437",
"P 	c #F1A035",
"Q 	c #F5AF3A",
"R 	c #F5C548",
"S 	c #F5C446",
"T 	c #F5C645",
"U 	c #F5C745",
"V 	c #F0A137",
"W 	c #F5AE39",
"X 	c #F5CB4C",
"Y 	c #F5CF55",
"Z 	c #F6D058",
"` 	c #F6D057",
" .	c #F5C044",
"..	c #F5C743",
"+.	c #F5C540",
"@.	c #F5CD52",
"#.	c #F7DE6D",
"$.	c #F8E577",
"%.	c #F7E476",
"&.	c #F7E375",
"*.	c #F5CD4C",
"=.	c #F5CB49",
"-.	c #F5CE54",
";.	c #F6D661",
">.	c #F8E679",
",.	c #F8ED82",
"'.	c #F8EC80",
").	c #F8EB80",
"!.	c #F5C642",
"~.	c #F5CD51",
"{.	c #F8E477",
"].	c #F8E87C",
"^.	c #F8EA7F",
"/.	c #F8EA7E",
"(.	c #F6D662",
"_.	c #F8EC81",
":.	c #F8EB7F",
"<.	c #F8E97E",
"[.	c #F8E97D",
"                                                                                                                                ",
"                                                                                                                                ",
"        . +                                                                                                         + .         ",
"        @ .                                                                                                         . @         ",
"    # $                                                                                                                 $ #     ",
"    % &                                                                                                                 & %     ",
"    * =                                                                                                                 = *     ",
"    - ;                                                                                                                 ; -     ",
"    > , ' ) = !                                                                                                 ! = ) ' , >     ",
"    ~ { ] ^ / (                                                                                                 ( / ^ ] { ~     ",
"        _ : < [ } |                                                                                         | } [ < : _         ",
"        1 2 3 4 5 6                                                                                         6 5 4 3 2 1         ",
"                                                        7 8 8 8 8 8 8 7                                                         ",
"                                                        9 0 0 a a 0 0 9                                                         ",
"                            b b             c d e f g h i j k l l k j i h g f e d c             b b                             ",
"                            g g             m m _ n g o p q & r r & q p o g n _ m m             g g                             ",
"                            s t u v     w x y g l z A B C ( 5 5 5 5 ( C B A z l g y x w     v u t s                             ",
"                            D f E F     G n ' H I r J K } L M N N M L } K J r I H ' n G     F E f D                             ",
"                                s t O h i P A Q C R 5 S T U U U U U U T S 5 R C Q A P i h O t s                                 ",
"                                D _ V W 4 r J K } L N X Y Z Z ` ` Z Z Y X N L } K J r 4 W V _ D                                 ",
"                                D _ k 4  .R 5 S T ..+.@.#.$.%.&.&.%.$.#.@.+...T S 5 R  .4 k _ D                                 ",
"                                f n z 4 R *.=.X Y ` -.;.>.,.'.).).'.,.>.;.-.` Y X =.*.R 4 z n f                                 ",
"                            c m y u A J 5 =.!.~.#.$.&.{.].^././././.^.].{.&.$.#.~.!.=.5 J A u y m c                             ",
"                            d m g H Q K S X ~.(.>.,._.:.<.[.[.[.[.[.[.<.:._.,.>.(.~.X S K Q H g m d                             ",
"                            e _ l I C } T Y #.>.[.^././.[.[.[.[.[.[.[.[././.^.[.>.#.Y T } C I l _ e                             ",
"                            f n z r R L ..` $.,.^.[.[.[.[.[.[.[.[.[.[.[.[.[.[.^.,.$.` ..L R r z n f                             ",
"                            g g A J 5 N +.-.&._./.[.[.[.[.[.[.[.[.[.[.[.[.[.[./._.&.-.+.N 5 J A g g                             ",
"                            h o B K S X @.;.{.:./.[.[.[.[.[.[.[.[.[.[.[.[.[.[./.:.{.;.@.X S K B o h                             ",
"                        7 9 i p C } T Y #.>.].<.[.[.[.[.[.[.[.[.[.[.[.[.[.[.[.[.<.].>.#.Y T } C p i 9 7                         ",
"                        8 0 j q ( L U Z $.,.^.[.[.[.[.[.[.[.[.[.[.[.[.[.[.[.[.[.[.^.,.$.Z U L ( q j 0 8                         ",
"                        8 0 k & 5 M U Z %.'./.[.[.[.[.[.[.[.[.[.[.[.[.[.[.[.[.[.[./.'.%.Z U M 5 & k 0 8                         ",
"                        8 a l r 5 N U ` &.)./.[.[.[.[.[.[.[.[.[.[.[.[.[.[.[.[.[.[./.).&.` U N 5 r l a 8                         ",
"                        8 a l r 5 N U ` &.)./.[.[.[.[.[.[.[.[.[.[.[.[.[.[.[.[.[.[./.).&.` U N 5 r l a 8                         ",
"                        8 0 k & 5 M U Z %.'./.[.[.[.[.[.[.[.[.[.[.[.[.[.[.[.[.[.[./.'.%.Z U M 5 & k 0 8                         ",
"                        8 0 j q ( L U Z $.,.^.[.[.[.[.[.[.[.[.[.[.[.[.[.[.[.[.[.[.^.,.$.Z U L ( q j 0 8                         ",
"                        7 9 i p C } T Y #.>.].<.[.[.[.[.[.[.[.[.[.[.[.[.[.[.[.[.<.].>.#.Y T } C p i 9 7                         ",
"                            h o B K S X @.;.{.:./.[.[.[.[.[.[.[.[.[.[.[.[.[.[./.:.{.;.@.X S K B o h                             ",
"                            g g A J 5 N +.-.&._./.[.[.[.[.[.[.[.[.[.[.[.[.[.[./._.&.-.+.N 5 J A g g                             ",
"                            f n z r R L ..` $.,.^.[.[.[.[.[.[.[.[.[.[.[.[.[.[.^.,.$.` ..L R r z n f                             ",
"                            e _ l I C } T Y #.>.[.^././.[.[.[.[.[.[.[.[././.^.[.>.#.Y T } C I l _ e                             ",
"                            d m g H Q K S X ~.(.>.,._.:.<.[.[.[.[.[.[.<.:._.,.>.(.~.X S K Q H g m d                             ",
"                            c m y u A J 5 =.!.~.#.$.&.{.].^././././.^.].{.&.$.#.~.!.=.5 J A u y m c                             ",
"                                f n z 4 R *.=.X Y ` -.;.>.,.'.).).'.,.>.;.-.` Y X =.*.R 4 z n f                                 ",
"                                D _ k 4  .R 5 S T ..+.@.#.$.%.&.&.%.$.#.@.+...T S 5 R  .4 k _ D                                 ",
"                                D _ V W 4 r J K } L N X Y Z Z ` ` Z Z Y X N L } K J r 4 W V _ D                                 ",
"                                s t O h i P A Q C R 5 S T U U U U U U T S 5 R C Q A P i h O t s                                 ",
"                            D f E F     G n ' H I r J K } L M N N M L } K J r I H ' n G     F E f D                             ",
"                            s t u v     w x y g l z A B C ( 5 5 5 5 ( C B A z l g y x w     v u t s                             ",
"                            g g             m m _ n g o p q & r r & q p o g n _ m m             g g                             ",
"                            b b             c d e f g h i j k l l k j i h g f e d c             b b                             ",
"                                                        9 0 0 a a 0 0 9                                                         ",
"                                                        7 8 8 8 8 8 8 7                                                         ",
"        1 2 3 4 5 6                                                                                         6 5 4 3 2 1         ",
"        _ : < [ } |                                                                                         | } [ < : _         ",
"    ~ { ] ^ / (                                                                                                 ( / ^ ] { ~     ",
"    > , ' ) = !                                                                                                 ! = ) ' , >     ",
"    - ;                                                                                                                 ; -     ",
"    * =                                                                                                                 = *     ",
"    % &                                                                                                                 & %     ",
"    # $                                                                                                                 $ #     ",
"        @ .                                                                                                         . @         ",
"        . +                                                                                                         + .         ",
"                                                                                                                                ",
"                                                                                                                                "};
