/* XPM */
static char * Yellow3_xpm[] = {
"64 64 180 2",
"  	c #000000",
". 	c #E37F34",
"+ 	c #E78B35",
"@ 	c #E78C35",
"# 	c #F1A237",
"$ 	c #F1A337",
"% 	c #F5AD38",
"& 	c #F4AA38",
"* 	c #F6AE39",
"= 	c #F1A437",
"- 	c #E78833",
"; 	c #E07331",
"> 	c #F5AC38",
", 	c #F1A638",
"' 	c #EA9A39",
") 	c #E69139",
"! 	c #F4A837",
"~ 	c #F4AF3B",
"{ 	c #F3BD45",
"] 	c #EFB645",
"^ 	c #E58D38",
"/ 	c #E57E30",
"( 	c #F09E35",
"_ 	c #F5AA36",
": 	c #F4A636",
"< 	c #F5B23C",
"[ 	c #F7C546",
"} 	c #F3BF46",
"| 	c #EA9F3D",
"1 	c #EA9839",
"2 	c #F2AB3C",
"3 	c #F5B33C",
"4 	c #F5B03B",
"5 	c #F4B53F",
"6 	c #F3C348",
"7 	c #F4C548",
"8 	c #F5C245",
"9 	c #F5B43D",
"0 	c #E68432",
"a 	c #F4A334",
"b 	c #F4AD3B",
"c 	c #F3BC44",
"d 	c #F4C649",
"e 	c #F5C045",
"f 	c #F5B23B",
"g 	c #F2A437",
"h 	c #E79439",
"i 	c #EA9B3A",
"j 	c #F1AC3C",
"k 	c #F4B03C",
"l 	c #F2BC45",
"m 	c #F3AD3B",
"n 	c #F4A434",
"o 	c #F09F35",
"p 	c #F4A736",
"q 	c #F1A136",
"r 	c #F2AB3B",
"s 	c #F5C246",
"t 	c #F6C547",
"u 	c #F5B63F",
"v 	c #E78934",
"w 	c #EA9336",
"x 	c #F2AB3A",
"y 	c #F6BA40",
"z 	c #F5C145",
"A 	c #F5C548",
"B 	c #E27D34",
"C 	c #E07933",
"D 	c #E68633",
"E 	c #EE9733",
"F 	c #F2AC3B",
"G 	c #F4CB4C",
"H 	c #E88C34",
"I 	c #E78A34",
"J 	c #E78B34",
"K 	c #E68332",
"L 	c #F3C449",
"M 	c #E06A2D",
"N 	c #E17A33",
"O 	c #E68835",
"P 	c #F0A237",
"Q 	c #F1A236",
"R 	c #F0A036",
"S 	c #F1A036",
"T 	c #F3BE45",
"U 	c #EAA03D",
"V 	c #E68F38",
"W 	c #E68634",
"X 	c #EA9135",
"Y 	c #F5AD39",
"Z 	c #F5B43C",
"` 	c #F5B33B",
" .	c #F5B23A",
"..	c #F5B73F",
"+.	c #EEB645",
"@.	c #E57D30",
"#.	c #EE9834",
"$.	c #F2A236",
"%.	c #F3A435",
"&.	c #F4AE3A",
"*.	c #F5BF44",
"=.	c #F5C547",
"-.	c #F5C243",
";.	c #F5C141",
">.	c #F09C34",
",.	c #F2A93A",
"'.	c #F6C345",
").	c #F3C046",
"!.	c #E99E3D",
"~.	c #E99638",
"{.	c #F6B33A",
"].	c #F5AF39",
"^.	c #F4B53D",
"/.	c #F5CE4F",
"(.	c #F6D156",
"_.	c #F6D359",
":.	c #E58333",
"<.	c #E99136",
"[.	c #F2BB45",
"}.	c #F2BE46",
"|.	c #F4C142",
"1.	c #F5C040",
"2.	c #F5C242",
"3.	c #F5C644",
"4.	c #F6D056",
"5.	c #F7DF6E",
"6.	c #F8E678",
"7.	c #E58634",
"8.	c #E98E34",
"9.	c #F19E34",
"0.	c #F5B13B",
"a.	c #F6C646",
"b.	c #F6D04F",
"c.	c #F6D256",
"d.	c #F6D259",
"e.	c #F6D35A",
"f.	c #F5CF54",
"g.	c #F5C746",
"h.	c #F6CF56",
"i.	c #F8E477",
"j.	c #F9EE83",
"k.	c #F3A334",
"l.	c #F4AE39",
"m.	c #F7DD6C",
"n.	c #F5CA4C",
"o.	c #F5CC50",
"p.	c #F7E274",
"q.	c #F8ED82",
"r.	c #F5C241",
"s.	c #F9EE84",
"t.	c #F8EE83",
"u.	c #F8E578",
"v.	c #F6D45E",
"w.	c #F6D35D",
"x.	c #F7E476",
"y.	c #F8EB80",
"z.	c #F5C546",
"A.	c #F6D159",
"B.	c #F8E87C",
"C.	c #F8E87B",
"D.	c #F8EA7E",
"E.	c #F5C648",
"F.	c #F5CC4B",
"G.	c #F5C846",
"H.	c #F5CE55",
"I.	c #F7DE6D",
"J.	c #F8E679",
"K.	c #F8EB7F",
"L.	c #F8E97E",
"M.	c #F8E97D",
"N.	c #F5B33D",
"O.	c #F5C447",
"P.	c #F5CB4B",
"Q.	c #F5C949",
"R.	c #F5CD51",
"S.	c #F6D661",
"T.	c #F5CA4B",
"U.	c #F5C747",
"V.	c #F5C43E",
"W.	c #F5CD52",
"                                                                                                                                ",
"                                                                                                                                ",
"                                                                                                                                ",
"                                                                                                                                ",
"                                                                                                                                ",
"                                                                                                                                ",
"            . .                                                                                                 . .             ",
"            + @                                                                                                 @ +             ",
"            # $                                                                                                 $ #             ",
"            % &                                                                                                 & %             ",
"            * = - ;                                                                                         ; - = *             ",
"            > , ' )                                                                                         ) ' , >             ",
"            ! ~ { ] ^ / ( _                                                                         _ ( / ^ ] { ~ !             ",
"            : < [ } | 1 2 3                                                                         3 2 1 | } [ < :             ",
"                4 5 { 6 7 8 9 ( 0 ;                                                         ; 0 ( 9 8 7 6 { 5 4                 ",
"                a b c 6 d e f g 1 h                                                         h 1 g f e d 6 c b a                 ",
"                    h i j f % k l l m n                                                 n m l l k % f j i h                     ",
"                    ; 0 o p q r s t u ~                                                 ~ u t s r q p o 0 ;                     ",
"                            v w x y z A                 B . . . . . . B                 A z y x w v                             ",
"                            C D E F A G                 H I I J J I I H                 G A F E D C                             ",
"                                K i 6 L h M     N O P & Q o R S S R o Q & P O N     M h L 6 i K                                 ",
"                                ; h { T U V     W X $ Y < Z `  . .` Z < Y $ X W     V U T { h ;                                 ",
"                                    4 ..} +.^ @.#.$.%.&.*.=.-.;.;.-.=.*.&.%.$.#.@.^ +.} ..4                                     ",
"                                    >.,.'.).!.~.x {.].^.=./.(._._.(./.=.^.].{.x ~.!.).'.,.>.                                    ",
"                                    :.<.,...[.}.|.;.1.2.3.4.5.6.6.5.4.3.2.1.;.|.}.[...,.<.:.                                    ",
"                                    7.8.9.0.a.b.c.d.e.f.g.h.i.j.j.i.h.g.f.e.d.c.b.a.0.9.8.7.                                    ",
"                                    P Q k.l.2.c.5.6.6.m.n.o.p.q.q.p.o.n.m.6.6.5.c.2.l.k.Q P                                     ",
"                                    & Y &.^.r.d.6.s.t.u.v.w.x.y.y.x.w.v.u.t.s.6.d.r.^.&.Y &                                     ",
"                                B H Q f *.z.3.A.u.t.y.B.x.x.C.D.D.C.x.x.B.y.t.u.A.3.z.*.f Q H B                                 ",
"                                . I o 9 E.F.G.H.I.J.B.D.y.K.L.M.M.L.K.y.D.B.J.I.H.G.F.E.9 o I .                                 ",
"                                . I R N.O.P.Q.n.R.S.i.K.D.D.M.M.M.M.D.D.K.i.S.R.n.Q.P.O.N.R I .                                 ",
"                                . J S 3 O.P.T.U.V.W.p.y.D.M.M.M.M.M.M.D.y.p.W.V.U.T.P.O.3 S J .                                 ",
"                                . J S 3 O.P.T.U.V.W.p.y.D.M.M.M.M.M.M.D.y.p.W.V.U.T.P.O.3 S J .                                 ",
"                                . I R N.O.P.Q.n.R.S.i.K.D.D.M.M.M.M.D.D.K.i.S.R.n.Q.P.O.N.R I .                                 ",
"                                . I o 9 E.F.G.H.I.J.B.D.y.K.L.M.M.L.K.y.D.B.J.I.H.G.F.E.9 o I .                                 ",
"                                B H Q f *.z.3.A.u.t.y.B.x.x.C.D.D.C.x.x.B.y.t.u.A.3.z.*.f Q H B                                 ",
"                                    & Y &.^.r.d.6.s.t.u.v.w.x.y.y.x.w.v.u.t.s.6.d.r.^.&.Y &                                     ",
"                                    P Q k.l.2.c.5.6.6.m.n.o.p.q.q.p.o.n.m.6.6.5.c.2.l.k.Q P                                     ",
"                                    7.8.9.0.a.b.c.d.e.f.g.h.i.j.j.i.h.g.f.e.d.c.b.a.0.9.8.7.                                    ",
"                                    :.<.,...[.}.|.;.1.2.3.4.5.6.6.5.4.3.2.1.;.|.}.[...,.<.:.                                    ",
"                                    >.,.'.).!.~.x {.].^.=./.(._._.(./.=.^.].{.x ~.!.).'.,.>.                                    ",
"                                    4 ..} +.^ @.#.$.%.&.*.=.-.;.;.-.=.*.&.%.$.#.@.^ +.} ..4                                     ",
"                                ; h { T U V     W X $ Y < Z `  . .` Z < Y $ X W     V U T { h ;                                 ",
"                                K i 6 L h M     N O P & Q o R S S R o Q & P O N     M h L 6 i K                                 ",
"                            C D E F A G                 H I I J J I I H                 G A F E D C                             ",
"                            v w x y z A                 B . . . . . . B                 A z y x w v                             ",
"                    ; 0 o p q r s t u ~                                                 ~ u t s r q p o 0 ;                     ",
"                    h i j f % k l l m n                                                 n m l l k % f j i h                     ",
"                a b c 6 d e f g 1 h                                                         h 1 g f e d 6 c b a                 ",
"                4 5 { 6 7 8 9 ( 0 ;                                                         ; 0 ( 9 8 7 6 { 5 4                 ",
"            : < [ } | 1 2 3                                                                         3 2 1 | } [ < :             ",
"            ! ~ { ] ^ / ( _                                                                         _ ( / ^ ] { ~ !             ",
"            > , ' )                                                                                         ) ' , >             ",
"            * = - ;                                                                                         ; - = *             ",
"            % &                                                                                                 & %             ",
"            # $                                                                                                 $ #             ",
"            + @                                                                                                 @ +             ",
"            . .                                                                                                 . .             ",
"                                                                                                                                ",
"                                                                                                                                ",
"                                                                                                                                ",
"                                                                                                                                ",
"                                                                                                                                ",
"                                                                                                                                "};
